%MOIN*%
%OFA0B0*%
%FSLAX46Y46*%
%IPPOS*%
%LPD*%
%ADD10C,0.0047244094488188976*%
%ADD21C,0.0047244094488188976*%
%ADD22C,0.0047244094488188976*%
%ADD23C,0.0047244094488188976*%
%ADD24C,0.0047244094488188976*%
%ADD25C,0.0047244094488188976*%
%ADD26C,0.0047244094488188976*%
%ADD27C,0.0047244094488188976*%
%ADD28C,0.0047244094488188976*%
G01*
D10*
X0000019685Y0000511811D02*
X0000075196Y0000511811D01*
X0000076771Y0000688976D02*
X0000019685Y0000688976D01*
X0000019685Y0000688976D02*
X0000019685Y0000511811D01*
X0000179921Y0000991732D02*
X0000077559Y0000991732D01*
X0000077559Y0001094094D02*
X0000077559Y0001041732D01*
X0000282283Y0001094094D02*
X0000179921Y0001094094D01*
X0000179921Y0001094094D02*
X0000179921Y0000991732D01*
X0000077559Y0000991732D02*
X0000077559Y0000089370D01*
X0000129921Y0001094094D02*
X0000077559Y0001094094D01*
X0000282283Y0000089370D02*
X0000077559Y0000089370D01*
X0000282283Y0001094094D02*
X0000282283Y0000089370D01*
G36*
X0000735308Y0000520578D02*
G01*
X0000744859Y0000519113D01*
X0000751617Y0000516496D01*
X0000756109Y0000512551D01*
X0000758629Y0000506984D01*
X0000759469Y0000499504D01*
X0000758629Y0000492043D01*
X0000756109Y0000486535D01*
X0000751617Y0000482648D01*
X0000744859Y0000480051D01*
X0000735308Y0000478586D01*
X0000722437Y0000478097D01*
X0000709176Y0000478586D01*
X0000699390Y0000480051D01*
X0000692515Y0000482648D01*
X0000687984Y0000486535D01*
X0000685465Y0000492043D01*
X0000684625Y0000499504D01*
X0000685465Y0000506984D01*
X0000687984Y0000512551D01*
X0000692535Y0000516496D01*
X0000699469Y0000519113D01*
X0000709273Y0000520578D01*
X0000722437Y0000521066D01*
X0000735308Y0000520578D01*
G37*
G36*
X0000733062Y0000862316D02*
G01*
X0000688375Y0000874347D01*
X0000688375Y0000874660D01*
X0000733062Y0000886691D01*
X0000733062Y0000862316D01*
G37*
G36*
X0000759312Y0000130597D02*
G01*
X0000757984Y0000121183D01*
X0000755250Y0000114191D01*
X0000750738Y0000109250D01*
X0000744078Y0000105988D01*
X0000734801Y0000104172D01*
X0000722437Y0000103566D01*
X0000710738Y0000104152D01*
X0000701890Y0000105910D01*
X0000695445Y0000109054D01*
X0000690953Y0000113801D01*
X0000688043Y0000120500D01*
X0000686344Y0000129504D01*
X0000685758Y0000136847D01*
X0000685562Y0000142941D01*
X0000758844Y0000142941D01*
X0000759312Y0000130597D01*
G37*
G36*
X0000634885Y0000050858D02*
G01*
X0000634885Y0000144816D01*
X0000668375Y0000144816D01*
X0000668570Y0000136379D01*
X0000669156Y0000128879D01*
X0000670719Y0000117898D01*
X0000673114Y0000108705D01*
X0000676344Y0000101301D01*
X0000683199Y0000092961D01*
X0000692828Y0000087472D01*
X0000701135Y0000085215D01*
X0000711370Y0000083861D01*
X0000723531Y0000083410D01*
X0000736248Y0000083931D01*
X0000746899Y0000085493D01*
X0000755484Y0000088097D01*
X0000765191Y0000094387D01*
X0000771656Y0000103879D01*
X0000774347Y0000112299D01*
X0000775962Y0000122768D01*
X0000776500Y0000135285D01*
X0000776361Y0000143497D01*
X0000775944Y0000152715D01*
X0000775250Y0000162941D01*
X0000669000Y0000162941D01*
X0000668531Y0000153410D01*
X0000668375Y0000144816D01*
X0000634885Y0000144816D01*
X0000634885Y0000172472D01*
X0000669000Y0000172472D01*
X0000775250Y0000185129D01*
X0000775250Y0000205910D01*
X0000682750Y0000217941D01*
X0000682750Y0000218566D01*
X0000775250Y0000230754D01*
X0000775250Y0000251379D01*
X0000669000Y0000264035D01*
X0000669000Y0000246847D01*
X0000752594Y0000240754D01*
X0000752594Y0000240597D01*
X0000733219Y0000239504D01*
X0000669000Y0000229504D01*
X0000669000Y0000207004D01*
X0000733219Y0000197316D01*
X0000752594Y0000196066D01*
X0000752594Y0000195910D01*
X0000669000Y0000189660D01*
X0000669000Y0000172472D01*
X0000634885Y0000172472D01*
X0000634885Y0000312316D01*
X0000667437Y0000312316D01*
X0000668101Y0000299015D01*
X0000670094Y0000289113D01*
X0000673687Y0000282062D01*
X0000679156Y0000277316D01*
X0000686930Y0000274660D01*
X0000697437Y0000273879D01*
X0000697437Y0000293722D01*
X0000689547Y0000295988D01*
X0000685640Y0000301769D01*
X0000684469Y0000312941D01*
X0000685562Y0000324426D01*
X0000689156Y0000330129D01*
X0000696500Y0000331847D01*
X0000704547Y0000325832D01*
X0000708394Y0000317453D01*
X0000712906Y0000304347D01*
X0000717008Y0000293000D01*
X0000721187Y0000284582D01*
X0000725855Y0000278625D01*
X0000731422Y0000274660D01*
X0000738277Y0000272433D01*
X0000746812Y0000271691D01*
X0000757203Y0000272590D01*
X0000764937Y0000275285D01*
X0000770406Y0000280109D01*
X0000774000Y0000287394D01*
X0000775992Y0000297726D01*
X0000776656Y0000311691D01*
X0000775914Y0000326086D01*
X0000773687Y0000336769D01*
X0000769664Y0000344289D01*
X0000763531Y0000349191D01*
X0000754859Y0000351769D01*
X0000743219Y0000352316D01*
X0000743219Y0000332785D01*
X0000753297Y0000330285D01*
X0000758219Y0000323644D01*
X0000759273Y0000318039D01*
X0000759625Y0000310441D01*
X0000758531Y0000298801D01*
X0000754703Y0000292941D01*
X0000746969Y0000291222D01*
X0000739000Y0000293722D01*
X0000732984Y0000301926D01*
X0000730152Y0000308820D01*
X0000727125Y0000318097D01*
X0000723199Y0000329718D01*
X0000719234Y0000338332D01*
X0000714879Y0000344406D01*
X0000709781Y0000348410D01*
X0000703570Y0000350637D01*
X0000695875Y0000351379D01*
X0000686031Y0000350500D01*
X0000678687Y0000347863D01*
X0000673473Y0000343137D01*
X0000670015Y0000335988D01*
X0000668082Y0000325890D01*
X0000667437Y0000312316D01*
X0000634885Y0000312316D01*
X0000634885Y0000499504D01*
X0000667437Y0000499504D01*
X0000667984Y0000489495D01*
X0000669625Y0000481136D01*
X0000672359Y0000474426D01*
X0000678980Y0000466887D01*
X0000689000Y0000461926D01*
X0000697923Y0000459886D01*
X0000709069Y0000458662D01*
X0000722437Y0000458254D01*
X0000735614Y0000458662D01*
X0000746604Y0000459886D01*
X0000755406Y0000461926D01*
X0000765289Y0000466887D01*
X0000771812Y0000474426D01*
X0000774503Y0000481136D01*
X0000776118Y0000489495D01*
X0000776656Y0000499504D01*
X0000776118Y0000509512D01*
X0000774503Y0000517872D01*
X0000771812Y0000524582D01*
X0000765289Y0000532121D01*
X0000755406Y0000537082D01*
X0000746604Y0000539122D01*
X0000735614Y0000540346D01*
X0000722437Y0000540754D01*
X0000709069Y0000540346D01*
X0000697923Y0000539122D01*
X0000689000Y0000537082D01*
X0000678980Y0000532121D01*
X0000672359Y0000524582D01*
X0000669625Y0000517872D01*
X0000667984Y0000509512D01*
X0000667437Y0000499504D01*
X0000634885Y0000499504D01*
X0000634885Y0000554816D01*
X0000669000Y0000554816D01*
X0000686812Y0000554816D01*
X0000686812Y0000583254D01*
X0000775250Y0000583254D01*
X0000775250Y0000603254D01*
X0000686812Y0000603254D01*
X0000686812Y0000631691D01*
X0000669000Y0000631691D01*
X0000669000Y0000554816D01*
X0000634885Y0000554816D01*
X0000634885Y0000779504D01*
X0000667437Y0000779504D01*
X0000668140Y0000766574D01*
X0000670250Y0000756847D01*
X0000674000Y0000749836D01*
X0000679625Y0000745051D01*
X0000687594Y0000742140D01*
X0000698375Y0000740754D01*
X0000698375Y0000760129D01*
X0000690015Y0000762472D01*
X0000685875Y0000768332D01*
X0000684625Y0000779347D01*
X0000685484Y0000786965D01*
X0000688062Y0000792629D01*
X0000692672Y0000796633D01*
X0000699625Y0000799269D01*
X0000709430Y0000800734D01*
X0000722594Y0000801222D01*
X0000735465Y0000800676D01*
X0000745015Y0000799035D01*
X0000751754Y0000796125D01*
X0000756187Y0000791769D01*
X0000758648Y0000785617D01*
X0000759469Y0000777316D01*
X0000758765Y0000767707D01*
X0000756344Y0000759972D01*
X0000732437Y0000759972D01*
X0000732437Y0000782004D01*
X0000715406Y0000782004D01*
X0000715406Y0000741066D01*
X0000768375Y0000741066D01*
X0000772437Y0000750793D01*
X0000774937Y0000759035D01*
X0000776226Y0000767238D01*
X0000776656Y0000776847D01*
X0000776109Y0000787525D01*
X0000774469Y0000796431D01*
X0000771734Y0000803566D01*
X0000765133Y0000811594D01*
X0000755172Y0000816926D01*
X0000746326Y0000819139D01*
X0000735311Y0000820467D01*
X0000722125Y0000820910D01*
X0000708852Y0000820493D01*
X0000697785Y0000819243D01*
X0000688922Y0000817160D01*
X0000678961Y0000812140D01*
X0000672359Y0000804582D01*
X0000669625Y0000797872D01*
X0000667984Y0000789512D01*
X0000667437Y0000779504D01*
X0000634885Y0000779504D01*
X0000634885Y0000861847D01*
X0000669000Y0000861847D01*
X0000775250Y0000830129D01*
X0000775250Y0000849972D01*
X0000749781Y0000857629D01*
X0000749781Y0000891379D01*
X0000775250Y0000899035D01*
X0000775250Y0000918879D01*
X0000669000Y0000887160D01*
X0000669000Y0000861847D01*
X0000634885Y0000861847D01*
X0000634885Y0000929816D01*
X0000669000Y0000929816D01*
X0000686812Y0000929816D01*
X0000686812Y0000958254D01*
X0000775250Y0000958254D01*
X0000775250Y0000978254D01*
X0000686812Y0000978254D01*
X0000686812Y0001006691D01*
X0000669000Y0001006691D01*
X0000669000Y0000929816D01*
X0000634885Y0000929816D01*
X0000634885Y0001028410D01*
X0000669000Y0001028410D01*
X0000743687Y0001028410D01*
X0000755172Y0001029211D01*
X0000763687Y0001031613D01*
X0000769703Y0001035929D01*
X0000773687Y0001042472D01*
X0000775914Y0001051730D01*
X0000776656Y0001064191D01*
X0000775914Y0001076750D01*
X0000773687Y0001085988D01*
X0000769742Y0001092433D01*
X0000763844Y0001096613D01*
X0000755562Y0001098781D01*
X0000744469Y0001099191D01*
X0000744469Y0001079191D01*
X0000756109Y0001076222D01*
X0000759312Y0001064660D01*
X0000757828Y0001054738D01*
X0000752906Y0001049738D01*
X0000743062Y0001048254D01*
X0000669000Y0001048254D01*
X0000669000Y0001028410D01*
X0000634885Y0001028410D01*
X0000634885Y0001132212D01*
X0000809208Y0001132212D01*
X0000809208Y0000050858D01*
X0000634885Y0000050858D01*
G37*
G04 next file*
G04 Gerber Fmt 4.6, Leading zero omitted, Abs format (unit mm)*
G04 Created by KiCad (PCBNEW (6.0.9)) date 2023-10-26 15:22:16*
G01*
G04 APERTURE LIST*
G04 APERTURE END LIST*
D21*
X0001318897Y0000511811D02*
X0001374409Y0000511811D01*
X0001375984Y0000688976D02*
X0001318897Y0000688976D01*
X0001318897Y0000688976D02*
X0001318897Y0000511811D01*
X0001479133Y0000991732D02*
X0001376771Y0000991732D01*
X0001376771Y0001094094D02*
X0001376771Y0001041732D01*
X0001581496Y0001094094D02*
X0001479133Y0001094094D01*
X0001479133Y0001094094D02*
X0001479133Y0000991732D01*
X0001376771Y0000991732D02*
X0001376771Y0000089370D01*
X0001429133Y0001094094D02*
X0001376771Y0001094094D01*
X0001581496Y0000089370D02*
X0001376771Y0000089370D01*
X0001581496Y0001094094D02*
X0001581496Y0000089370D01*
G36*
X0002034521Y0000520578D02*
G01*
X0002044072Y0000519113D01*
X0002050830Y0000516496D01*
X0002055322Y0000512551D01*
X0002057841Y0000506984D01*
X0002058681Y0000499504D01*
X0002057841Y0000492043D01*
X0002055322Y0000486535D01*
X0002050830Y0000482648D01*
X0002044072Y0000480051D01*
X0002034521Y0000478586D01*
X0002021650Y0000478097D01*
X0002008388Y0000478586D01*
X0001998603Y0000480051D01*
X0001991728Y0000482648D01*
X0001987197Y0000486535D01*
X0001984677Y0000492043D01*
X0001983837Y0000499504D01*
X0001984677Y0000506984D01*
X0001987197Y0000512551D01*
X0001991748Y0000516496D01*
X0001998681Y0000519113D01*
X0002008486Y0000520578D01*
X0002021650Y0000521066D01*
X0002034521Y0000520578D01*
G37*
G36*
X0002032275Y0000862316D02*
G01*
X0001987587Y0000874347D01*
X0001987587Y0000874660D01*
X0002032275Y0000886691D01*
X0002032275Y0000862316D01*
G37*
G36*
X0002058525Y0000130597D02*
G01*
X0002057197Y0000121183D01*
X0002054462Y0000114191D01*
X0002049951Y0000109250D01*
X0002043291Y0000105988D01*
X0002034013Y0000104172D01*
X0002021650Y0000103566D01*
X0002009951Y0000104152D01*
X0002001103Y0000105910D01*
X0001994658Y0000109054D01*
X0001990166Y0000113801D01*
X0001987255Y0000120500D01*
X0001985556Y0000129504D01*
X0001984970Y0000136847D01*
X0001984775Y0000142941D01*
X0002058056Y0000142941D01*
X0002058525Y0000130597D01*
G37*
G36*
X0001934098Y0000050858D02*
G01*
X0001934098Y0000144816D01*
X0001967587Y0000144816D01*
X0001967783Y0000136379D01*
X0001968369Y0000128879D01*
X0001969931Y0000117898D01*
X0001972327Y0000108705D01*
X0001975556Y0000101301D01*
X0001982412Y0000092961D01*
X0001992041Y0000087472D01*
X0002000348Y0000085215D01*
X0002010582Y0000083861D01*
X0002022744Y0000083410D01*
X0002035461Y0000083931D01*
X0002046112Y0000085493D01*
X0002054697Y0000088097D01*
X0002064404Y0000094387D01*
X0002070869Y0000103879D01*
X0002073560Y0000112299D01*
X0002075174Y0000122768D01*
X0002075712Y0000135285D01*
X0002075574Y0000143497D01*
X0002075157Y0000152715D01*
X0002074462Y0000162941D01*
X0001968212Y0000162941D01*
X0001967744Y0000153410D01*
X0001967587Y0000144816D01*
X0001934098Y0000144816D01*
X0001934098Y0000172472D01*
X0001968212Y0000172472D01*
X0002074462Y0000185129D01*
X0002074462Y0000205910D01*
X0001981962Y0000217941D01*
X0001981962Y0000218566D01*
X0002074462Y0000230754D01*
X0002074462Y0000251379D01*
X0001968212Y0000264035D01*
X0001968212Y0000246847D01*
X0002051806Y0000240754D01*
X0002051806Y0000240597D01*
X0002032431Y0000239504D01*
X0001968212Y0000229504D01*
X0001968212Y0000207004D01*
X0002032431Y0000197316D01*
X0002051806Y0000196066D01*
X0002051806Y0000195910D01*
X0001968212Y0000189660D01*
X0001968212Y0000172472D01*
X0001934098Y0000172472D01*
X0001934098Y0000312316D01*
X0001966650Y0000312316D01*
X0001967314Y0000299015D01*
X0001969306Y0000289113D01*
X0001972900Y0000282062D01*
X0001978369Y0000277316D01*
X0001986142Y0000274660D01*
X0001996650Y0000273879D01*
X0001996650Y0000293722D01*
X0001988759Y0000295988D01*
X0001984853Y0000301769D01*
X0001983681Y0000312941D01*
X0001984775Y0000324426D01*
X0001988369Y0000330129D01*
X0001995712Y0000331847D01*
X0002003759Y0000325832D01*
X0002007607Y0000317453D01*
X0002012119Y0000304347D01*
X0002016220Y0000293000D01*
X0002020400Y0000284582D01*
X0002025068Y0000278625D01*
X0002030634Y0000274660D01*
X0002037490Y0000272433D01*
X0002046025Y0000271691D01*
X0002056416Y0000272590D01*
X0002064150Y0000275285D01*
X0002069619Y0000280109D01*
X0002073212Y0000287394D01*
X0002075205Y0000297726D01*
X0002075869Y0000311691D01*
X0002075127Y0000326086D01*
X0002072900Y0000336769D01*
X0002068877Y0000344289D01*
X0002062744Y0000349191D01*
X0002054072Y0000351769D01*
X0002042431Y0000352316D01*
X0002042431Y0000332785D01*
X0002052509Y0000330285D01*
X0002057431Y0000323644D01*
X0002058486Y0000318039D01*
X0002058837Y0000310441D01*
X0002057744Y0000298801D01*
X0002053916Y0000292941D01*
X0002046181Y0000291222D01*
X0002038212Y0000293722D01*
X0002032197Y0000301926D01*
X0002029365Y0000308820D01*
X0002026337Y0000318097D01*
X0002022412Y0000329718D01*
X0002018447Y0000338332D01*
X0002014091Y0000344406D01*
X0002008994Y0000348410D01*
X0002002783Y0000350637D01*
X0001995087Y0000351379D01*
X0001985244Y0000350500D01*
X0001977900Y0000347863D01*
X0001972685Y0000343137D01*
X0001969228Y0000335988D01*
X0001967295Y0000325890D01*
X0001966650Y0000312316D01*
X0001934098Y0000312316D01*
X0001934098Y0000499504D01*
X0001966650Y0000499504D01*
X0001967197Y0000489495D01*
X0001968837Y0000481136D01*
X0001971572Y0000474426D01*
X0001978193Y0000466887D01*
X0001988212Y0000461926D01*
X0001997136Y0000459886D01*
X0002008282Y0000458662D01*
X0002021650Y0000458254D01*
X0002034827Y0000458662D01*
X0002045817Y0000459886D01*
X0002054619Y0000461926D01*
X0002064502Y0000466887D01*
X0002071025Y0000474426D01*
X0002073716Y0000481136D01*
X0002075331Y0000489495D01*
X0002075869Y0000499504D01*
X0002075331Y0000509512D01*
X0002073716Y0000517872D01*
X0002071025Y0000524582D01*
X0002064502Y0000532121D01*
X0002054619Y0000537082D01*
X0002045817Y0000539122D01*
X0002034827Y0000540346D01*
X0002021650Y0000540754D01*
X0002008282Y0000540346D01*
X0001997136Y0000539122D01*
X0001988212Y0000537082D01*
X0001978193Y0000532121D01*
X0001971572Y0000524582D01*
X0001968837Y0000517872D01*
X0001967197Y0000509512D01*
X0001966650Y0000499504D01*
X0001934098Y0000499504D01*
X0001934098Y0000554816D01*
X0001968212Y0000554816D01*
X0001986025Y0000554816D01*
X0001986025Y0000583254D01*
X0002074462Y0000583254D01*
X0002074462Y0000603254D01*
X0001986025Y0000603254D01*
X0001986025Y0000631691D01*
X0001968212Y0000631691D01*
X0001968212Y0000554816D01*
X0001934098Y0000554816D01*
X0001934098Y0000779504D01*
X0001966650Y0000779504D01*
X0001967353Y0000766574D01*
X0001969462Y0000756847D01*
X0001973212Y0000749836D01*
X0001978837Y0000745051D01*
X0001986806Y0000742140D01*
X0001997587Y0000740754D01*
X0001997587Y0000760129D01*
X0001989228Y0000762472D01*
X0001985087Y0000768332D01*
X0001983837Y0000779347D01*
X0001984697Y0000786965D01*
X0001987275Y0000792629D01*
X0001991884Y0000796633D01*
X0001998837Y0000799269D01*
X0002008642Y0000800734D01*
X0002021806Y0000801222D01*
X0002034677Y0000800676D01*
X0002044228Y0000799035D01*
X0002050966Y0000796125D01*
X0002055400Y0000791769D01*
X0002057861Y0000785617D01*
X0002058681Y0000777316D01*
X0002057978Y0000767707D01*
X0002055556Y0000759972D01*
X0002031650Y0000759972D01*
X0002031650Y0000782004D01*
X0002014619Y0000782004D01*
X0002014619Y0000741066D01*
X0002067587Y0000741066D01*
X0002071650Y0000750793D01*
X0002074150Y0000759035D01*
X0002075439Y0000767238D01*
X0002075869Y0000776847D01*
X0002075322Y0000787525D01*
X0002073681Y0000796431D01*
X0002070947Y0000803566D01*
X0002064345Y0000811594D01*
X0002054384Y0000816926D01*
X0002045539Y0000819139D01*
X0002034523Y0000820467D01*
X0002021337Y0000820910D01*
X0002008065Y0000820493D01*
X0001996997Y0000819243D01*
X0001988134Y0000817160D01*
X0001978173Y0000812140D01*
X0001971572Y0000804582D01*
X0001968837Y0000797872D01*
X0001967197Y0000789512D01*
X0001966650Y0000779504D01*
X0001934098Y0000779504D01*
X0001934098Y0000861847D01*
X0001968212Y0000861847D01*
X0002074462Y0000830129D01*
X0002074462Y0000849972D01*
X0002048994Y0000857629D01*
X0002048994Y0000891379D01*
X0002074462Y0000899035D01*
X0002074462Y0000918879D01*
X0001968212Y0000887160D01*
X0001968212Y0000861847D01*
X0001934098Y0000861847D01*
X0001934098Y0000929816D01*
X0001968212Y0000929816D01*
X0001986025Y0000929816D01*
X0001986025Y0000958254D01*
X0002074462Y0000958254D01*
X0002074462Y0000978254D01*
X0001986025Y0000978254D01*
X0001986025Y0001006691D01*
X0001968212Y0001006691D01*
X0001968212Y0000929816D01*
X0001934098Y0000929816D01*
X0001934098Y0001028410D01*
X0001968212Y0001028410D01*
X0002042900Y0001028410D01*
X0002054384Y0001029211D01*
X0002062900Y0001031613D01*
X0002068916Y0001035929D01*
X0002072900Y0001042472D01*
X0002075127Y0001051730D01*
X0002075869Y0001064191D01*
X0002075127Y0001076750D01*
X0002072900Y0001085988D01*
X0002068955Y0001092433D01*
X0002063056Y0001096613D01*
X0002054775Y0001098781D01*
X0002043681Y0001099191D01*
X0002043681Y0001079191D01*
X0002055322Y0001076222D01*
X0002058525Y0001064660D01*
X0002057041Y0001054738D01*
X0002052119Y0001049738D01*
X0002042275Y0001048254D01*
X0001968212Y0001048254D01*
X0001968212Y0001028410D01*
X0001934098Y0001028410D01*
X0001934098Y0001132212D01*
X0002108421Y0001132212D01*
X0002108421Y0000050858D01*
X0001934098Y0000050858D01*
G37*
G04 next file*
G04 Gerber Fmt 4.6, Leading zero omitted, Abs format (unit mm)*
G04 Created by KiCad (PCBNEW (6.0.9)) date 2023-10-26 15:22:16*
G01*
G04 APERTURE LIST*
G04 APERTURE END LIST*
D22*
X0002618110Y0000511811D02*
X0002673622Y0000511811D01*
X0002675196Y0000688976D02*
X0002618110Y0000688976D01*
X0002618110Y0000688976D02*
X0002618110Y0000511811D01*
X0002778346Y0000991732D02*
X0002675984Y0000991732D01*
X0002675984Y0001094094D02*
X0002675984Y0001041732D01*
X0002880708Y0001094094D02*
X0002778346Y0001094094D01*
X0002778346Y0001094094D02*
X0002778346Y0000991732D01*
X0002675984Y0000991732D02*
X0002675984Y0000089370D01*
X0002728346Y0001094094D02*
X0002675984Y0001094094D01*
X0002880708Y0000089370D02*
X0002675984Y0000089370D01*
X0002880708Y0001094094D02*
X0002880708Y0000089370D01*
G36*
X0003333734Y0000520578D02*
G01*
X0003343284Y0000519113D01*
X0003350042Y0000516496D01*
X0003354534Y0000512551D01*
X0003357054Y0000506984D01*
X0003357894Y0000499504D01*
X0003357054Y0000492043D01*
X0003354534Y0000486535D01*
X0003350042Y0000482648D01*
X0003343284Y0000480051D01*
X0003333734Y0000478586D01*
X0003320863Y0000478097D01*
X0003307601Y0000478586D01*
X0003297816Y0000480051D01*
X0003290941Y0000482648D01*
X0003286409Y0000486535D01*
X0003283890Y0000492043D01*
X0003283050Y0000499504D01*
X0003283890Y0000506984D01*
X0003286409Y0000512551D01*
X0003290960Y0000516496D01*
X0003297894Y0000519113D01*
X0003307699Y0000520578D01*
X0003320863Y0000521066D01*
X0003333734Y0000520578D01*
G37*
G36*
X0003331488Y0000862316D02*
G01*
X0003286800Y0000874347D01*
X0003286800Y0000874660D01*
X0003331488Y0000886691D01*
X0003331488Y0000862316D01*
G37*
G36*
X0003357738Y0000130597D02*
G01*
X0003356409Y0000121183D01*
X0003353675Y0000114191D01*
X0003349163Y0000109250D01*
X0003342503Y0000105988D01*
X0003333226Y0000104172D01*
X0003320863Y0000103566D01*
X0003309163Y0000104152D01*
X0003300316Y0000105910D01*
X0003293870Y0000109054D01*
X0003289378Y0000113801D01*
X0003286468Y0000120500D01*
X0003284769Y0000129504D01*
X0003284183Y0000136847D01*
X0003283988Y0000142941D01*
X0003357269Y0000142941D01*
X0003357738Y0000130597D01*
G37*
G36*
X0003233310Y0000050858D02*
G01*
X0003233310Y0000144816D01*
X0003266800Y0000144816D01*
X0003266995Y0000136379D01*
X0003267581Y0000128879D01*
X0003269144Y0000117898D01*
X0003271540Y0000108705D01*
X0003274769Y0000101301D01*
X0003281624Y0000092961D01*
X0003291253Y0000087472D01*
X0003299560Y0000085215D01*
X0003309795Y0000083861D01*
X0003321956Y0000083410D01*
X0003334673Y0000083931D01*
X0003345324Y0000085493D01*
X0003353909Y0000088097D01*
X0003363616Y0000094387D01*
X0003370081Y0000103879D01*
X0003372772Y0000112299D01*
X0003374387Y0000122768D01*
X0003374925Y0000135285D01*
X0003374786Y0000143497D01*
X0003374370Y0000152715D01*
X0003373675Y0000162941D01*
X0003267425Y0000162941D01*
X0003266956Y0000153410D01*
X0003266800Y0000144816D01*
X0003233310Y0000144816D01*
X0003233310Y0000172472D01*
X0003267425Y0000172472D01*
X0003373675Y0000185129D01*
X0003373675Y0000205910D01*
X0003281175Y0000217941D01*
X0003281175Y0000218566D01*
X0003373675Y0000230754D01*
X0003373675Y0000251379D01*
X0003267425Y0000264035D01*
X0003267425Y0000246847D01*
X0003351019Y0000240754D01*
X0003351019Y0000240597D01*
X0003331644Y0000239504D01*
X0003267425Y0000229504D01*
X0003267425Y0000207004D01*
X0003331644Y0000197316D01*
X0003351019Y0000196066D01*
X0003351019Y0000195910D01*
X0003267425Y0000189660D01*
X0003267425Y0000172472D01*
X0003233310Y0000172472D01*
X0003233310Y0000312316D01*
X0003265863Y0000312316D01*
X0003266527Y0000299015D01*
X0003268519Y0000289113D01*
X0003272113Y0000282062D01*
X0003277581Y0000277316D01*
X0003285355Y0000274660D01*
X0003295863Y0000273879D01*
X0003295863Y0000293722D01*
X0003287972Y0000295988D01*
X0003284066Y0000301769D01*
X0003282894Y0000312941D01*
X0003283988Y0000324426D01*
X0003287581Y0000330129D01*
X0003294925Y0000331847D01*
X0003302972Y0000325832D01*
X0003306820Y0000317453D01*
X0003311331Y0000304347D01*
X0003315433Y0000293000D01*
X0003319613Y0000284582D01*
X0003324280Y0000278625D01*
X0003329847Y0000274660D01*
X0003336702Y0000272433D01*
X0003345238Y0000271691D01*
X0003355628Y0000272590D01*
X0003363363Y0000275285D01*
X0003368831Y0000280109D01*
X0003372425Y0000287394D01*
X0003374417Y0000297726D01*
X0003375081Y0000311691D01*
X0003374339Y0000326086D01*
X0003372113Y0000336769D01*
X0003368089Y0000344289D01*
X0003361956Y0000349191D01*
X0003353284Y0000351769D01*
X0003341644Y0000352316D01*
X0003341644Y0000332785D01*
X0003351722Y0000330285D01*
X0003356644Y0000323644D01*
X0003357699Y0000318039D01*
X0003358050Y0000310441D01*
X0003356956Y0000298801D01*
X0003353128Y0000292941D01*
X0003345394Y0000291222D01*
X0003337425Y0000293722D01*
X0003331409Y0000301926D01*
X0003328577Y0000308820D01*
X0003325550Y0000318097D01*
X0003321624Y0000329718D01*
X0003317659Y0000338332D01*
X0003313304Y0000344406D01*
X0003308206Y0000348410D01*
X0003301995Y0000350637D01*
X0003294300Y0000351379D01*
X0003284456Y0000350500D01*
X0003277113Y0000347863D01*
X0003271898Y0000343137D01*
X0003268441Y0000335988D01*
X0003266507Y0000325890D01*
X0003265863Y0000312316D01*
X0003233310Y0000312316D01*
X0003233310Y0000499504D01*
X0003265863Y0000499504D01*
X0003266409Y0000489495D01*
X0003268050Y0000481136D01*
X0003270784Y0000474426D01*
X0003277406Y0000466887D01*
X0003287425Y0000461926D01*
X0003296349Y0000459886D01*
X0003307495Y0000458662D01*
X0003320863Y0000458254D01*
X0003334040Y0000458662D01*
X0003345029Y0000459886D01*
X0003353831Y0000461926D01*
X0003363714Y0000466887D01*
X0003370238Y0000474426D01*
X0003372929Y0000481136D01*
X0003374543Y0000489495D01*
X0003375081Y0000499504D01*
X0003374543Y0000509512D01*
X0003372929Y0000517872D01*
X0003370238Y0000524582D01*
X0003363714Y0000532121D01*
X0003353831Y0000537082D01*
X0003345029Y0000539122D01*
X0003334040Y0000540346D01*
X0003320863Y0000540754D01*
X0003307495Y0000540346D01*
X0003296349Y0000539122D01*
X0003287425Y0000537082D01*
X0003277406Y0000532121D01*
X0003270784Y0000524582D01*
X0003268050Y0000517872D01*
X0003266409Y0000509512D01*
X0003265863Y0000499504D01*
X0003233310Y0000499504D01*
X0003233310Y0000554816D01*
X0003267425Y0000554816D01*
X0003285238Y0000554816D01*
X0003285238Y0000583254D01*
X0003373675Y0000583254D01*
X0003373675Y0000603254D01*
X0003285238Y0000603254D01*
X0003285238Y0000631691D01*
X0003267425Y0000631691D01*
X0003267425Y0000554816D01*
X0003233310Y0000554816D01*
X0003233310Y0000779504D01*
X0003265863Y0000779504D01*
X0003266566Y0000766574D01*
X0003268675Y0000756847D01*
X0003272425Y0000749836D01*
X0003278050Y0000745051D01*
X0003286019Y0000742140D01*
X0003296800Y0000740754D01*
X0003296800Y0000760129D01*
X0003288441Y0000762472D01*
X0003284300Y0000768332D01*
X0003283050Y0000779347D01*
X0003283909Y0000786965D01*
X0003286488Y0000792629D01*
X0003291097Y0000796633D01*
X0003298050Y0000799269D01*
X0003307855Y0000800734D01*
X0003321019Y0000801222D01*
X0003333890Y0000800676D01*
X0003343441Y0000799035D01*
X0003350179Y0000796125D01*
X0003354613Y0000791769D01*
X0003357074Y0000785617D01*
X0003357894Y0000777316D01*
X0003357191Y0000767707D01*
X0003354769Y0000759972D01*
X0003330863Y0000759972D01*
X0003330863Y0000782004D01*
X0003313831Y0000782004D01*
X0003313831Y0000741066D01*
X0003366800Y0000741066D01*
X0003370863Y0000750793D01*
X0003373363Y0000759035D01*
X0003374652Y0000767238D01*
X0003375081Y0000776847D01*
X0003374534Y0000787525D01*
X0003372894Y0000796431D01*
X0003370159Y0000803566D01*
X0003363558Y0000811594D01*
X0003353597Y0000816926D01*
X0003344751Y0000819139D01*
X0003333736Y0000820467D01*
X0003320550Y0000820910D01*
X0003307277Y0000820493D01*
X0003296210Y0000819243D01*
X0003287347Y0000817160D01*
X0003277386Y0000812140D01*
X0003270784Y0000804582D01*
X0003268050Y0000797872D01*
X0003266409Y0000789512D01*
X0003265863Y0000779504D01*
X0003233310Y0000779504D01*
X0003233310Y0000861847D01*
X0003267425Y0000861847D01*
X0003373675Y0000830129D01*
X0003373675Y0000849972D01*
X0003348206Y0000857629D01*
X0003348206Y0000891379D01*
X0003373675Y0000899035D01*
X0003373675Y0000918879D01*
X0003267425Y0000887160D01*
X0003267425Y0000861847D01*
X0003233310Y0000861847D01*
X0003233310Y0000929816D01*
X0003267425Y0000929816D01*
X0003285238Y0000929816D01*
X0003285238Y0000958254D01*
X0003373675Y0000958254D01*
X0003373675Y0000978254D01*
X0003285238Y0000978254D01*
X0003285238Y0001006691D01*
X0003267425Y0001006691D01*
X0003267425Y0000929816D01*
X0003233310Y0000929816D01*
X0003233310Y0001028410D01*
X0003267425Y0001028410D01*
X0003342113Y0001028410D01*
X0003353597Y0001029211D01*
X0003362113Y0001031613D01*
X0003368128Y0001035929D01*
X0003372113Y0001042472D01*
X0003374339Y0001051730D01*
X0003375081Y0001064191D01*
X0003374339Y0001076750D01*
X0003372113Y0001085988D01*
X0003368167Y0001092433D01*
X0003362269Y0001096613D01*
X0003353988Y0001098781D01*
X0003342894Y0001099191D01*
X0003342894Y0001079191D01*
X0003354534Y0001076222D01*
X0003357738Y0001064660D01*
X0003356253Y0001054738D01*
X0003351331Y0001049738D01*
X0003341488Y0001048254D01*
X0003267425Y0001048254D01*
X0003267425Y0001028410D01*
X0003233310Y0001028410D01*
X0003233310Y0001132212D01*
X0003407633Y0001132212D01*
X0003407633Y0000050858D01*
X0003233310Y0000050858D01*
G37*
G04 next file*
G04 Gerber Fmt 4.6, Leading zero omitted, Abs format (unit mm)*
G04 Created by KiCad (PCBNEW (6.0.9)) date 2023-10-26 15:22:16*
G01*
G04 APERTURE LIST*
G04 APERTURE END LIST*
D23*
X0000019685Y0001771653D02*
X0000075196Y0001771653D01*
X0000076771Y0001948818D02*
X0000019685Y0001948818D01*
X0000019685Y0001948818D02*
X0000019685Y0001771653D01*
X0000179921Y0002251574D02*
X0000077559Y0002251574D01*
X0000077559Y0002353937D02*
X0000077559Y0002301574D01*
X0000282283Y0002353937D02*
X0000179921Y0002353937D01*
X0000179921Y0002353937D02*
X0000179921Y0002251574D01*
X0000077559Y0002251574D02*
X0000077559Y0001349212D01*
X0000129921Y0002353937D02*
X0000077559Y0002353937D01*
X0000282283Y0001349212D02*
X0000077559Y0001349212D01*
X0000282283Y0002353937D02*
X0000282283Y0001349212D01*
G36*
X0000735308Y0001780420D02*
G01*
X0000744859Y0001778956D01*
X0000751617Y0001776338D01*
X0000756109Y0001772393D01*
X0000758629Y0001766827D01*
X0000759469Y0001759346D01*
X0000758629Y0001751885D01*
X0000756109Y0001746377D01*
X0000751617Y0001742491D01*
X0000744859Y0001739893D01*
X0000735308Y0001738428D01*
X0000722437Y0001737940D01*
X0000709176Y0001738428D01*
X0000699390Y0001739893D01*
X0000692515Y0001742491D01*
X0000687984Y0001746377D01*
X0000685465Y0001751885D01*
X0000684625Y0001759346D01*
X0000685465Y0001766827D01*
X0000687984Y0001772393D01*
X0000692535Y0001776338D01*
X0000699469Y0001778956D01*
X0000709273Y0001780420D01*
X0000722437Y0001780909D01*
X0000735308Y0001780420D01*
G37*
G36*
X0000733062Y0002122159D02*
G01*
X0000688375Y0002134190D01*
X0000688375Y0002134502D01*
X0000733062Y0002146534D01*
X0000733062Y0002122159D01*
G37*
G36*
X0000759312Y0001390440D02*
G01*
X0000757984Y0001381026D01*
X0000755250Y0001374034D01*
X0000750738Y0001369092D01*
X0000744078Y0001365831D01*
X0000734801Y0001364014D01*
X0000722437Y0001363409D01*
X0000710738Y0001363995D01*
X0000701890Y0001365752D01*
X0000695445Y0001368897D01*
X0000690953Y0001373643D01*
X0000688043Y0001380342D01*
X0000686344Y0001389346D01*
X0000685758Y0001396690D01*
X0000685562Y0001402784D01*
X0000758844Y0001402784D01*
X0000759312Y0001390440D01*
G37*
G36*
X0000634885Y0001310700D02*
G01*
X0000634885Y0001404659D01*
X0000668375Y0001404659D01*
X0000668570Y0001396221D01*
X0000669156Y0001388721D01*
X0000670719Y0001377740D01*
X0000673114Y0001368548D01*
X0000676344Y0001361143D01*
X0000683199Y0001352803D01*
X0000692828Y0001347315D01*
X0000701135Y0001345058D01*
X0000711370Y0001343704D01*
X0000723531Y0001343252D01*
X0000736248Y0001343773D01*
X0000746899Y0001345336D01*
X0000755484Y0001347940D01*
X0000765191Y0001354229D01*
X0000771656Y0001363721D01*
X0000774347Y0001372141D01*
X0000775962Y0001382610D01*
X0000776500Y0001395127D01*
X0000776361Y0001403339D01*
X0000775944Y0001412558D01*
X0000775250Y0001422784D01*
X0000669000Y0001422784D01*
X0000668531Y0001413252D01*
X0000668375Y0001404659D01*
X0000634885Y0001404659D01*
X0000634885Y0001432315D01*
X0000669000Y0001432315D01*
X0000775250Y0001444971D01*
X0000775250Y0001465752D01*
X0000682750Y0001477784D01*
X0000682750Y0001478409D01*
X0000775250Y0001490596D01*
X0000775250Y0001511221D01*
X0000669000Y0001523877D01*
X0000669000Y0001506690D01*
X0000752594Y0001500596D01*
X0000752594Y0001500440D01*
X0000733219Y0001499346D01*
X0000669000Y0001489346D01*
X0000669000Y0001466846D01*
X0000733219Y0001457159D01*
X0000752594Y0001455909D01*
X0000752594Y0001455752D01*
X0000669000Y0001449502D01*
X0000669000Y0001432315D01*
X0000634885Y0001432315D01*
X0000634885Y0001572159D01*
X0000667437Y0001572159D01*
X0000668101Y0001558858D01*
X0000670094Y0001548956D01*
X0000673687Y0001541905D01*
X0000679156Y0001537159D01*
X0000686930Y0001534502D01*
X0000697437Y0001533721D01*
X0000697437Y0001553565D01*
X0000689547Y0001555831D01*
X0000685640Y0001561612D01*
X0000684469Y0001572784D01*
X0000685562Y0001584268D01*
X0000689156Y0001589971D01*
X0000696500Y0001591690D01*
X0000704547Y0001585674D01*
X0000708394Y0001577295D01*
X0000712906Y0001564190D01*
X0000717008Y0001552842D01*
X0000721187Y0001544424D01*
X0000725855Y0001538467D01*
X0000731422Y0001534502D01*
X0000738277Y0001532276D01*
X0000746812Y0001531534D01*
X0000757203Y0001532432D01*
X0000764937Y0001535127D01*
X0000770406Y0001539952D01*
X0000774000Y0001547237D01*
X0000775992Y0001557569D01*
X0000776656Y0001571534D01*
X0000775914Y0001585928D01*
X0000773687Y0001596612D01*
X0000769664Y0001604131D01*
X0000763531Y0001609034D01*
X0000754859Y0001611612D01*
X0000743219Y0001612159D01*
X0000743219Y0001592627D01*
X0000753297Y0001590127D01*
X0000758219Y0001583487D01*
X0000759273Y0001577881D01*
X0000759625Y0001570284D01*
X0000758531Y0001558643D01*
X0000754703Y0001552784D01*
X0000746969Y0001551065D01*
X0000739000Y0001553565D01*
X0000732984Y0001561768D01*
X0000730152Y0001568663D01*
X0000727125Y0001577940D01*
X0000723199Y0001589561D01*
X0000719234Y0001598174D01*
X0000714879Y0001604249D01*
X0000709781Y0001608252D01*
X0000703570Y0001610479D01*
X0000695875Y0001611221D01*
X0000686031Y0001610342D01*
X0000678687Y0001607706D01*
X0000673473Y0001602979D01*
X0000670015Y0001595831D01*
X0000668082Y0001585733D01*
X0000667437Y0001572159D01*
X0000634885Y0001572159D01*
X0000634885Y0001759346D01*
X0000667437Y0001759346D01*
X0000667984Y0001749338D01*
X0000669625Y0001740978D01*
X0000672359Y0001734268D01*
X0000678980Y0001726729D01*
X0000689000Y0001721768D01*
X0000697923Y0001719728D01*
X0000709069Y0001718504D01*
X0000722437Y0001718096D01*
X0000735614Y0001718504D01*
X0000746604Y0001719728D01*
X0000755406Y0001721768D01*
X0000765289Y0001726729D01*
X0000771812Y0001734268D01*
X0000774503Y0001740978D01*
X0000776118Y0001749338D01*
X0000776656Y0001759346D01*
X0000776118Y0001769355D01*
X0000774503Y0001777714D01*
X0000771812Y0001784424D01*
X0000765289Y0001791963D01*
X0000755406Y0001796924D01*
X0000746604Y0001798964D01*
X0000735614Y0001800188D01*
X0000722437Y0001800596D01*
X0000709069Y0001800188D01*
X0000697923Y0001798964D01*
X0000689000Y0001796924D01*
X0000678980Y0001791963D01*
X0000672359Y0001784424D01*
X0000669625Y0001777714D01*
X0000667984Y0001769355D01*
X0000667437Y0001759346D01*
X0000634885Y0001759346D01*
X0000634885Y0001814659D01*
X0000669000Y0001814659D01*
X0000686812Y0001814659D01*
X0000686812Y0001843096D01*
X0000775250Y0001843096D01*
X0000775250Y0001863096D01*
X0000686812Y0001863096D01*
X0000686812Y0001891534D01*
X0000669000Y0001891534D01*
X0000669000Y0001814659D01*
X0000634885Y0001814659D01*
X0000634885Y0002039346D01*
X0000667437Y0002039346D01*
X0000668140Y0002026416D01*
X0000670250Y0002016690D01*
X0000674000Y0002009678D01*
X0000679625Y0002004893D01*
X0000687594Y0002001983D01*
X0000698375Y0002000596D01*
X0000698375Y0002019971D01*
X0000690015Y0002022315D01*
X0000685875Y0002028174D01*
X0000684625Y0002039190D01*
X0000685484Y0002046807D01*
X0000688062Y0002052471D01*
X0000692672Y0002056475D01*
X0000699625Y0002059112D01*
X0000709430Y0002060577D01*
X0000722594Y0002061065D01*
X0000735465Y0002060518D01*
X0000745015Y0002058877D01*
X0000751754Y0002055967D01*
X0000756187Y0002051612D01*
X0000758648Y0002045460D01*
X0000759469Y0002037159D01*
X0000758765Y0002027549D01*
X0000756344Y0002019815D01*
X0000732437Y0002019815D01*
X0000732437Y0002041846D01*
X0000715406Y0002041846D01*
X0000715406Y0002000909D01*
X0000768375Y0002000909D01*
X0000772437Y0002010635D01*
X0000774937Y0002018877D01*
X0000776226Y0002027081D01*
X0000776656Y0002036690D01*
X0000776109Y0002047367D01*
X0000774469Y0002056273D01*
X0000771734Y0002063409D01*
X0000765133Y0002071436D01*
X0000755172Y0002076768D01*
X0000746326Y0002078982D01*
X0000735311Y0002080310D01*
X0000722125Y0002080752D01*
X0000708852Y0002080336D01*
X0000697785Y0002079086D01*
X0000688922Y0002077002D01*
X0000678961Y0002071983D01*
X0000672359Y0002064424D01*
X0000669625Y0002057714D01*
X0000667984Y0002049355D01*
X0000667437Y0002039346D01*
X0000634885Y0002039346D01*
X0000634885Y0002121690D01*
X0000669000Y0002121690D01*
X0000775250Y0002089971D01*
X0000775250Y0002109815D01*
X0000749781Y0002117471D01*
X0000749781Y0002151221D01*
X0000775250Y0002158877D01*
X0000775250Y0002178721D01*
X0000669000Y0002147002D01*
X0000669000Y0002121690D01*
X0000634885Y0002121690D01*
X0000634885Y0002189659D01*
X0000669000Y0002189659D01*
X0000686812Y0002189659D01*
X0000686812Y0002218096D01*
X0000775250Y0002218096D01*
X0000775250Y0002238096D01*
X0000686812Y0002238096D01*
X0000686812Y0002266534D01*
X0000669000Y0002266534D01*
X0000669000Y0002189659D01*
X0000634885Y0002189659D01*
X0000634885Y0002288252D01*
X0000669000Y0002288252D01*
X0000743687Y0002288252D01*
X0000755172Y0002289053D01*
X0000763687Y0002291456D01*
X0000769703Y0002295772D01*
X0000773687Y0002302315D01*
X0000775914Y0002311573D01*
X0000776656Y0002324034D01*
X0000775914Y0002336592D01*
X0000773687Y0002345831D01*
X0000769742Y0002352276D01*
X0000763844Y0002356456D01*
X0000755562Y0002358624D01*
X0000744469Y0002359034D01*
X0000744469Y0002339034D01*
X0000756109Y0002336065D01*
X0000759312Y0002324502D01*
X0000757828Y0002314581D01*
X0000752906Y0002309581D01*
X0000743062Y0002308096D01*
X0000669000Y0002308096D01*
X0000669000Y0002288252D01*
X0000634885Y0002288252D01*
X0000634885Y0002392055D01*
X0000809208Y0002392055D01*
X0000809208Y0001310700D01*
X0000634885Y0001310700D01*
G37*
G04 next file*
G04 Gerber Fmt 4.6, Leading zero omitted, Abs format (unit mm)*
G04 Created by KiCad (PCBNEW (6.0.9)) date 2023-10-26 15:22:16*
G01*
G04 APERTURE LIST*
G04 APERTURE END LIST*
D24*
X0000019685Y0003031496D02*
X0000075196Y0003031496D01*
X0000076771Y0003208661D02*
X0000019685Y0003208661D01*
X0000019685Y0003208661D02*
X0000019685Y0003031496D01*
X0000179921Y0003511417D02*
X0000077559Y0003511417D01*
X0000077559Y0003613779D02*
X0000077559Y0003561417D01*
X0000282283Y0003613779D02*
X0000179921Y0003613779D01*
X0000179921Y0003613779D02*
X0000179921Y0003511417D01*
X0000077559Y0003511417D02*
X0000077559Y0002609055D01*
X0000129921Y0003613779D02*
X0000077559Y0003613779D01*
X0000282283Y0002609055D02*
X0000077559Y0002609055D01*
X0000282283Y0003613779D02*
X0000282283Y0002609055D01*
G36*
X0000735308Y0003040263D02*
G01*
X0000744859Y0003038798D01*
X0000751617Y0003036181D01*
X0000756109Y0003032236D01*
X0000758629Y0003026669D01*
X0000759469Y0003019189D01*
X0000758629Y0003011728D01*
X0000756109Y0003006220D01*
X0000751617Y0003002333D01*
X0000744859Y0002999736D01*
X0000735308Y0002998271D01*
X0000722437Y0002997782D01*
X0000709176Y0002998271D01*
X0000699390Y0002999736D01*
X0000692515Y0003002333D01*
X0000687984Y0003006220D01*
X0000685465Y0003011728D01*
X0000684625Y0003019189D01*
X0000685465Y0003026669D01*
X0000687984Y0003032236D01*
X0000692535Y0003036181D01*
X0000699469Y0003038798D01*
X0000709273Y0003040263D01*
X0000722437Y0003040751D01*
X0000735308Y0003040263D01*
G37*
G36*
X0000733062Y0003382001D02*
G01*
X0000688375Y0003394032D01*
X0000688375Y0003394345D01*
X0000733062Y0003406376D01*
X0000733062Y0003382001D01*
G37*
G36*
X0000759312Y0002650282D02*
G01*
X0000757984Y0002640868D01*
X0000755250Y0002633876D01*
X0000750738Y0002628935D01*
X0000744078Y0002625673D01*
X0000734801Y0002623857D01*
X0000722437Y0002623251D01*
X0000710738Y0002623837D01*
X0000701890Y0002625595D01*
X0000695445Y0002628740D01*
X0000690953Y0002633486D01*
X0000688043Y0002640185D01*
X0000686344Y0002649189D01*
X0000685758Y0002656532D01*
X0000685562Y0002662626D01*
X0000758844Y0002662626D01*
X0000759312Y0002650282D01*
G37*
G36*
X0000634885Y0002570543D02*
G01*
X0000634885Y0002664501D01*
X0000668375Y0002664501D01*
X0000668570Y0002656064D01*
X0000669156Y0002648564D01*
X0000670719Y0002637583D01*
X0000673114Y0002628390D01*
X0000676344Y0002620986D01*
X0000683199Y0002612646D01*
X0000692828Y0002607157D01*
X0000701135Y0002604901D01*
X0000711370Y0002603546D01*
X0000723531Y0002603095D01*
X0000736248Y0002603616D01*
X0000746899Y0002605178D01*
X0000755484Y0002607782D01*
X0000765191Y0002614072D01*
X0000771656Y0002623564D01*
X0000774347Y0002631984D01*
X0000775962Y0002642453D01*
X0000776500Y0002654970D01*
X0000776361Y0002663182D01*
X0000775944Y0002672401D01*
X0000775250Y0002682626D01*
X0000669000Y0002682626D01*
X0000668531Y0002673095D01*
X0000668375Y0002664501D01*
X0000634885Y0002664501D01*
X0000634885Y0002692157D01*
X0000669000Y0002692157D01*
X0000775250Y0002704814D01*
X0000775250Y0002725595D01*
X0000682750Y0002737626D01*
X0000682750Y0002738251D01*
X0000775250Y0002750439D01*
X0000775250Y0002771064D01*
X0000669000Y0002783720D01*
X0000669000Y0002766532D01*
X0000752594Y0002760439D01*
X0000752594Y0002760282D01*
X0000733219Y0002759189D01*
X0000669000Y0002749189D01*
X0000669000Y0002726689D01*
X0000733219Y0002717001D01*
X0000752594Y0002715751D01*
X0000752594Y0002715595D01*
X0000669000Y0002709345D01*
X0000669000Y0002692157D01*
X0000634885Y0002692157D01*
X0000634885Y0002832001D01*
X0000667437Y0002832001D01*
X0000668101Y0002818700D01*
X0000670094Y0002808798D01*
X0000673687Y0002801747D01*
X0000679156Y0002797001D01*
X0000686930Y0002794345D01*
X0000697437Y0002793564D01*
X0000697437Y0002813407D01*
X0000689547Y0002815673D01*
X0000685640Y0002821454D01*
X0000684469Y0002832626D01*
X0000685562Y0002844111D01*
X0000689156Y0002849814D01*
X0000696500Y0002851532D01*
X0000704547Y0002845517D01*
X0000708394Y0002837138D01*
X0000712906Y0002824032D01*
X0000717008Y0002812685D01*
X0000721187Y0002804267D01*
X0000725855Y0002798310D01*
X0000731422Y0002794345D01*
X0000738277Y0002792118D01*
X0000746812Y0002791376D01*
X0000757203Y0002792275D01*
X0000764937Y0002794970D01*
X0000770406Y0002799794D01*
X0000774000Y0002807079D01*
X0000775992Y0002817411D01*
X0000776656Y0002831376D01*
X0000775914Y0002845771D01*
X0000773687Y0002856454D01*
X0000769664Y0002863974D01*
X0000763531Y0002868876D01*
X0000754859Y0002871454D01*
X0000743219Y0002872001D01*
X0000743219Y0002852470D01*
X0000753297Y0002849970D01*
X0000758219Y0002843329D01*
X0000759273Y0002837724D01*
X0000759625Y0002830126D01*
X0000758531Y0002818486D01*
X0000754703Y0002812626D01*
X0000746969Y0002810907D01*
X0000739000Y0002813407D01*
X0000732984Y0002821611D01*
X0000730152Y0002828505D01*
X0000727125Y0002837782D01*
X0000723199Y0002849404D01*
X0000719234Y0002858017D01*
X0000714879Y0002864091D01*
X0000709781Y0002868095D01*
X0000703570Y0002870322D01*
X0000695875Y0002871064D01*
X0000686031Y0002870185D01*
X0000678687Y0002867548D01*
X0000673473Y0002862822D01*
X0000670015Y0002855673D01*
X0000668082Y0002845575D01*
X0000667437Y0002832001D01*
X0000634885Y0002832001D01*
X0000634885Y0003019189D01*
X0000667437Y0003019189D01*
X0000667984Y0003009180D01*
X0000669625Y0003000821D01*
X0000672359Y0002994111D01*
X0000678980Y0002986572D01*
X0000689000Y0002981611D01*
X0000697923Y0002979571D01*
X0000709069Y0002978347D01*
X0000722437Y0002977939D01*
X0000735614Y0002978347D01*
X0000746604Y0002979571D01*
X0000755406Y0002981611D01*
X0000765289Y0002986572D01*
X0000771812Y0002994111D01*
X0000774503Y0003000821D01*
X0000776118Y0003009180D01*
X0000776656Y0003019189D01*
X0000776118Y0003029197D01*
X0000774503Y0003037557D01*
X0000771812Y0003044267D01*
X0000765289Y0003051806D01*
X0000755406Y0003056767D01*
X0000746604Y0003058807D01*
X0000735614Y0003060031D01*
X0000722437Y0003060439D01*
X0000709069Y0003060031D01*
X0000697923Y0003058807D01*
X0000689000Y0003056767D01*
X0000678980Y0003051806D01*
X0000672359Y0003044267D01*
X0000669625Y0003037557D01*
X0000667984Y0003029197D01*
X0000667437Y0003019189D01*
X0000634885Y0003019189D01*
X0000634885Y0003074501D01*
X0000669000Y0003074501D01*
X0000686812Y0003074501D01*
X0000686812Y0003102939D01*
X0000775250Y0003102939D01*
X0000775250Y0003122939D01*
X0000686812Y0003122939D01*
X0000686812Y0003151376D01*
X0000669000Y0003151376D01*
X0000669000Y0003074501D01*
X0000634885Y0003074501D01*
X0000634885Y0003299189D01*
X0000667437Y0003299189D01*
X0000668140Y0003286259D01*
X0000670250Y0003276532D01*
X0000674000Y0003269521D01*
X0000679625Y0003264736D01*
X0000687594Y0003261825D01*
X0000698375Y0003260439D01*
X0000698375Y0003279814D01*
X0000690015Y0003282157D01*
X0000685875Y0003288017D01*
X0000684625Y0003299032D01*
X0000685484Y0003306650D01*
X0000688062Y0003312314D01*
X0000692672Y0003316318D01*
X0000699625Y0003318954D01*
X0000709430Y0003320419D01*
X0000722594Y0003320907D01*
X0000735465Y0003320361D01*
X0000745015Y0003318720D01*
X0000751754Y0003315810D01*
X0000756187Y0003311454D01*
X0000758648Y0003305302D01*
X0000759469Y0003297001D01*
X0000758765Y0003287392D01*
X0000756344Y0003279657D01*
X0000732437Y0003279657D01*
X0000732437Y0003301689D01*
X0000715406Y0003301689D01*
X0000715406Y0003260751D01*
X0000768375Y0003260751D01*
X0000772437Y0003270478D01*
X0000774937Y0003278720D01*
X0000776226Y0003286923D01*
X0000776656Y0003296532D01*
X0000776109Y0003307210D01*
X0000774469Y0003316116D01*
X0000771734Y0003323251D01*
X0000765133Y0003331279D01*
X0000755172Y0003336611D01*
X0000746326Y0003338824D01*
X0000735311Y0003340152D01*
X0000722125Y0003340595D01*
X0000708852Y0003340178D01*
X0000697785Y0003338928D01*
X0000688922Y0003336845D01*
X0000678961Y0003331825D01*
X0000672359Y0003324267D01*
X0000669625Y0003317557D01*
X0000667984Y0003309197D01*
X0000667437Y0003299189D01*
X0000634885Y0003299189D01*
X0000634885Y0003381532D01*
X0000669000Y0003381532D01*
X0000775250Y0003349814D01*
X0000775250Y0003369657D01*
X0000749781Y0003377314D01*
X0000749781Y0003411064D01*
X0000775250Y0003418720D01*
X0000775250Y0003438564D01*
X0000669000Y0003406845D01*
X0000669000Y0003381532D01*
X0000634885Y0003381532D01*
X0000634885Y0003449501D01*
X0000669000Y0003449501D01*
X0000686812Y0003449501D01*
X0000686812Y0003477939D01*
X0000775250Y0003477939D01*
X0000775250Y0003497939D01*
X0000686812Y0003497939D01*
X0000686812Y0003526376D01*
X0000669000Y0003526376D01*
X0000669000Y0003449501D01*
X0000634885Y0003449501D01*
X0000634885Y0003548095D01*
X0000669000Y0003548095D01*
X0000743687Y0003548095D01*
X0000755172Y0003548896D01*
X0000763687Y0003551298D01*
X0000769703Y0003555615D01*
X0000773687Y0003562157D01*
X0000775914Y0003571415D01*
X0000776656Y0003583876D01*
X0000775914Y0003596435D01*
X0000773687Y0003605673D01*
X0000769742Y0003612118D01*
X0000763844Y0003616298D01*
X0000755562Y0003618466D01*
X0000744469Y0003618876D01*
X0000744469Y0003598876D01*
X0000756109Y0003595907D01*
X0000759312Y0003584345D01*
X0000757828Y0003574423D01*
X0000752906Y0003569423D01*
X0000743062Y0003567939D01*
X0000669000Y0003567939D01*
X0000669000Y0003548095D01*
X0000634885Y0003548095D01*
X0000634885Y0003651897D01*
X0000809208Y0003651897D01*
X0000809208Y0002570543D01*
X0000634885Y0002570543D01*
G37*
G04 next file*
G04 Gerber Fmt 4.6, Leading zero omitted, Abs format (unit mm)*
G04 Created by KiCad (PCBNEW (6.0.9)) date 2023-10-26 15:22:16*
G01*
G04 APERTURE LIST*
G04 APERTURE END LIST*
D25*
X0001318897Y0001771653D02*
X0001374409Y0001771653D01*
X0001375984Y0001948818D02*
X0001318897Y0001948818D01*
X0001318897Y0001948818D02*
X0001318897Y0001771653D01*
X0001479133Y0002251574D02*
X0001376771Y0002251574D01*
X0001376771Y0002353937D02*
X0001376771Y0002301574D01*
X0001581496Y0002353937D02*
X0001479133Y0002353937D01*
X0001479133Y0002353937D02*
X0001479133Y0002251574D01*
X0001376771Y0002251574D02*
X0001376771Y0001349212D01*
X0001429133Y0002353937D02*
X0001376771Y0002353937D01*
X0001581496Y0001349212D02*
X0001376771Y0001349212D01*
X0001581496Y0002353937D02*
X0001581496Y0001349212D01*
G36*
X0002034521Y0001780420D02*
G01*
X0002044072Y0001778956D01*
X0002050830Y0001776338D01*
X0002055322Y0001772393D01*
X0002057841Y0001766827D01*
X0002058681Y0001759346D01*
X0002057841Y0001751885D01*
X0002055322Y0001746377D01*
X0002050830Y0001742491D01*
X0002044072Y0001739893D01*
X0002034521Y0001738428D01*
X0002021650Y0001737940D01*
X0002008388Y0001738428D01*
X0001998603Y0001739893D01*
X0001991728Y0001742491D01*
X0001987197Y0001746377D01*
X0001984677Y0001751885D01*
X0001983837Y0001759346D01*
X0001984677Y0001766827D01*
X0001987197Y0001772393D01*
X0001991748Y0001776338D01*
X0001998681Y0001778956D01*
X0002008486Y0001780420D01*
X0002021650Y0001780909D01*
X0002034521Y0001780420D01*
G37*
G36*
X0002032275Y0002122159D02*
G01*
X0001987587Y0002134190D01*
X0001987587Y0002134502D01*
X0002032275Y0002146534D01*
X0002032275Y0002122159D01*
G37*
G36*
X0002058525Y0001390440D02*
G01*
X0002057197Y0001381026D01*
X0002054462Y0001374034D01*
X0002049951Y0001369092D01*
X0002043291Y0001365831D01*
X0002034013Y0001364014D01*
X0002021650Y0001363409D01*
X0002009951Y0001363995D01*
X0002001103Y0001365752D01*
X0001994658Y0001368897D01*
X0001990166Y0001373643D01*
X0001987255Y0001380342D01*
X0001985556Y0001389346D01*
X0001984970Y0001396690D01*
X0001984775Y0001402784D01*
X0002058056Y0001402784D01*
X0002058525Y0001390440D01*
G37*
G36*
X0001934098Y0001310700D02*
G01*
X0001934098Y0001404659D01*
X0001967587Y0001404659D01*
X0001967783Y0001396221D01*
X0001968369Y0001388721D01*
X0001969931Y0001377740D01*
X0001972327Y0001368548D01*
X0001975556Y0001361143D01*
X0001982412Y0001352803D01*
X0001992041Y0001347315D01*
X0002000348Y0001345058D01*
X0002010582Y0001343704D01*
X0002022744Y0001343252D01*
X0002035461Y0001343773D01*
X0002046112Y0001345336D01*
X0002054697Y0001347940D01*
X0002064404Y0001354229D01*
X0002070869Y0001363721D01*
X0002073560Y0001372141D01*
X0002075174Y0001382610D01*
X0002075712Y0001395127D01*
X0002075574Y0001403339D01*
X0002075157Y0001412558D01*
X0002074462Y0001422784D01*
X0001968212Y0001422784D01*
X0001967744Y0001413252D01*
X0001967587Y0001404659D01*
X0001934098Y0001404659D01*
X0001934098Y0001432315D01*
X0001968212Y0001432315D01*
X0002074462Y0001444971D01*
X0002074462Y0001465752D01*
X0001981962Y0001477784D01*
X0001981962Y0001478409D01*
X0002074462Y0001490596D01*
X0002074462Y0001511221D01*
X0001968212Y0001523877D01*
X0001968212Y0001506690D01*
X0002051806Y0001500596D01*
X0002051806Y0001500440D01*
X0002032431Y0001499346D01*
X0001968212Y0001489346D01*
X0001968212Y0001466846D01*
X0002032431Y0001457159D01*
X0002051806Y0001455909D01*
X0002051806Y0001455752D01*
X0001968212Y0001449502D01*
X0001968212Y0001432315D01*
X0001934098Y0001432315D01*
X0001934098Y0001572159D01*
X0001966650Y0001572159D01*
X0001967314Y0001558858D01*
X0001969306Y0001548956D01*
X0001972900Y0001541905D01*
X0001978369Y0001537159D01*
X0001986142Y0001534502D01*
X0001996650Y0001533721D01*
X0001996650Y0001553565D01*
X0001988759Y0001555831D01*
X0001984853Y0001561612D01*
X0001983681Y0001572784D01*
X0001984775Y0001584268D01*
X0001988369Y0001589971D01*
X0001995712Y0001591690D01*
X0002003759Y0001585674D01*
X0002007607Y0001577295D01*
X0002012119Y0001564190D01*
X0002016220Y0001552842D01*
X0002020400Y0001544424D01*
X0002025068Y0001538467D01*
X0002030634Y0001534502D01*
X0002037490Y0001532276D01*
X0002046025Y0001531534D01*
X0002056416Y0001532432D01*
X0002064150Y0001535127D01*
X0002069619Y0001539952D01*
X0002073212Y0001547237D01*
X0002075205Y0001557569D01*
X0002075869Y0001571534D01*
X0002075127Y0001585928D01*
X0002072900Y0001596612D01*
X0002068877Y0001604131D01*
X0002062744Y0001609034D01*
X0002054072Y0001611612D01*
X0002042431Y0001612159D01*
X0002042431Y0001592627D01*
X0002052509Y0001590127D01*
X0002057431Y0001583487D01*
X0002058486Y0001577881D01*
X0002058837Y0001570284D01*
X0002057744Y0001558643D01*
X0002053916Y0001552784D01*
X0002046181Y0001551065D01*
X0002038212Y0001553565D01*
X0002032197Y0001561768D01*
X0002029365Y0001568663D01*
X0002026337Y0001577940D01*
X0002022412Y0001589561D01*
X0002018447Y0001598174D01*
X0002014091Y0001604249D01*
X0002008994Y0001608252D01*
X0002002783Y0001610479D01*
X0001995087Y0001611221D01*
X0001985244Y0001610342D01*
X0001977900Y0001607706D01*
X0001972685Y0001602979D01*
X0001969228Y0001595831D01*
X0001967295Y0001585733D01*
X0001966650Y0001572159D01*
X0001934098Y0001572159D01*
X0001934098Y0001759346D01*
X0001966650Y0001759346D01*
X0001967197Y0001749338D01*
X0001968837Y0001740978D01*
X0001971572Y0001734268D01*
X0001978193Y0001726729D01*
X0001988212Y0001721768D01*
X0001997136Y0001719728D01*
X0002008282Y0001718504D01*
X0002021650Y0001718096D01*
X0002034827Y0001718504D01*
X0002045817Y0001719728D01*
X0002054619Y0001721768D01*
X0002064502Y0001726729D01*
X0002071025Y0001734268D01*
X0002073716Y0001740978D01*
X0002075331Y0001749338D01*
X0002075869Y0001759346D01*
X0002075331Y0001769355D01*
X0002073716Y0001777714D01*
X0002071025Y0001784424D01*
X0002064502Y0001791963D01*
X0002054619Y0001796924D01*
X0002045817Y0001798964D01*
X0002034827Y0001800188D01*
X0002021650Y0001800596D01*
X0002008282Y0001800188D01*
X0001997136Y0001798964D01*
X0001988212Y0001796924D01*
X0001978193Y0001791963D01*
X0001971572Y0001784424D01*
X0001968837Y0001777714D01*
X0001967197Y0001769355D01*
X0001966650Y0001759346D01*
X0001934098Y0001759346D01*
X0001934098Y0001814659D01*
X0001968212Y0001814659D01*
X0001986025Y0001814659D01*
X0001986025Y0001843096D01*
X0002074462Y0001843096D01*
X0002074462Y0001863096D01*
X0001986025Y0001863096D01*
X0001986025Y0001891534D01*
X0001968212Y0001891534D01*
X0001968212Y0001814659D01*
X0001934098Y0001814659D01*
X0001934098Y0002039346D01*
X0001966650Y0002039346D01*
X0001967353Y0002026416D01*
X0001969462Y0002016690D01*
X0001973212Y0002009678D01*
X0001978837Y0002004893D01*
X0001986806Y0002001983D01*
X0001997587Y0002000596D01*
X0001997587Y0002019971D01*
X0001989228Y0002022315D01*
X0001985087Y0002028174D01*
X0001983837Y0002039190D01*
X0001984697Y0002046807D01*
X0001987275Y0002052471D01*
X0001991884Y0002056475D01*
X0001998837Y0002059112D01*
X0002008642Y0002060577D01*
X0002021806Y0002061065D01*
X0002034677Y0002060518D01*
X0002044228Y0002058877D01*
X0002050966Y0002055967D01*
X0002055400Y0002051612D01*
X0002057861Y0002045460D01*
X0002058681Y0002037159D01*
X0002057978Y0002027549D01*
X0002055556Y0002019815D01*
X0002031650Y0002019815D01*
X0002031650Y0002041846D01*
X0002014619Y0002041846D01*
X0002014619Y0002000909D01*
X0002067587Y0002000909D01*
X0002071650Y0002010635D01*
X0002074150Y0002018877D01*
X0002075439Y0002027081D01*
X0002075869Y0002036690D01*
X0002075322Y0002047367D01*
X0002073681Y0002056273D01*
X0002070947Y0002063409D01*
X0002064345Y0002071436D01*
X0002054384Y0002076768D01*
X0002045539Y0002078982D01*
X0002034523Y0002080310D01*
X0002021337Y0002080752D01*
X0002008065Y0002080336D01*
X0001996997Y0002079086D01*
X0001988134Y0002077002D01*
X0001978173Y0002071983D01*
X0001971572Y0002064424D01*
X0001968837Y0002057714D01*
X0001967197Y0002049355D01*
X0001966650Y0002039346D01*
X0001934098Y0002039346D01*
X0001934098Y0002121690D01*
X0001968212Y0002121690D01*
X0002074462Y0002089971D01*
X0002074462Y0002109815D01*
X0002048994Y0002117471D01*
X0002048994Y0002151221D01*
X0002074462Y0002158877D01*
X0002074462Y0002178721D01*
X0001968212Y0002147002D01*
X0001968212Y0002121690D01*
X0001934098Y0002121690D01*
X0001934098Y0002189659D01*
X0001968212Y0002189659D01*
X0001986025Y0002189659D01*
X0001986025Y0002218096D01*
X0002074462Y0002218096D01*
X0002074462Y0002238096D01*
X0001986025Y0002238096D01*
X0001986025Y0002266534D01*
X0001968212Y0002266534D01*
X0001968212Y0002189659D01*
X0001934098Y0002189659D01*
X0001934098Y0002288252D01*
X0001968212Y0002288252D01*
X0002042900Y0002288252D01*
X0002054384Y0002289053D01*
X0002062900Y0002291456D01*
X0002068916Y0002295772D01*
X0002072900Y0002302315D01*
X0002075127Y0002311573D01*
X0002075869Y0002324034D01*
X0002075127Y0002336592D01*
X0002072900Y0002345831D01*
X0002068955Y0002352276D01*
X0002063056Y0002356456D01*
X0002054775Y0002358624D01*
X0002043681Y0002359034D01*
X0002043681Y0002339034D01*
X0002055322Y0002336065D01*
X0002058525Y0002324502D01*
X0002057041Y0002314581D01*
X0002052119Y0002309581D01*
X0002042275Y0002308096D01*
X0001968212Y0002308096D01*
X0001968212Y0002288252D01*
X0001934098Y0002288252D01*
X0001934098Y0002392055D01*
X0002108421Y0002392055D01*
X0002108421Y0001310700D01*
X0001934098Y0001310700D01*
G37*
G04 next file*
G04 Gerber Fmt 4.6, Leading zero omitted, Abs format (unit mm)*
G04 Created by KiCad (PCBNEW (6.0.9)) date 2023-10-26 15:22:16*
G01*
G04 APERTURE LIST*
G04 APERTURE END LIST*
D26*
X0002618110Y0001771653D02*
X0002673622Y0001771653D01*
X0002675196Y0001948818D02*
X0002618110Y0001948818D01*
X0002618110Y0001948818D02*
X0002618110Y0001771653D01*
X0002778346Y0002251574D02*
X0002675984Y0002251574D01*
X0002675984Y0002353937D02*
X0002675984Y0002301574D01*
X0002880708Y0002353937D02*
X0002778346Y0002353937D01*
X0002778346Y0002353937D02*
X0002778346Y0002251574D01*
X0002675984Y0002251574D02*
X0002675984Y0001349212D01*
X0002728346Y0002353937D02*
X0002675984Y0002353937D01*
X0002880708Y0001349212D02*
X0002675984Y0001349212D01*
X0002880708Y0002353937D02*
X0002880708Y0001349212D01*
G36*
X0003333734Y0001780420D02*
G01*
X0003343284Y0001778956D01*
X0003350042Y0001776338D01*
X0003354534Y0001772393D01*
X0003357054Y0001766827D01*
X0003357894Y0001759346D01*
X0003357054Y0001751885D01*
X0003354534Y0001746377D01*
X0003350042Y0001742491D01*
X0003343284Y0001739893D01*
X0003333734Y0001738428D01*
X0003320863Y0001737940D01*
X0003307601Y0001738428D01*
X0003297816Y0001739893D01*
X0003290941Y0001742491D01*
X0003286409Y0001746377D01*
X0003283890Y0001751885D01*
X0003283050Y0001759346D01*
X0003283890Y0001766827D01*
X0003286409Y0001772393D01*
X0003290960Y0001776338D01*
X0003297894Y0001778956D01*
X0003307699Y0001780420D01*
X0003320863Y0001780909D01*
X0003333734Y0001780420D01*
G37*
G36*
X0003331488Y0002122159D02*
G01*
X0003286800Y0002134190D01*
X0003286800Y0002134502D01*
X0003331488Y0002146534D01*
X0003331488Y0002122159D01*
G37*
G36*
X0003357738Y0001390440D02*
G01*
X0003356409Y0001381026D01*
X0003353675Y0001374034D01*
X0003349163Y0001369092D01*
X0003342503Y0001365831D01*
X0003333226Y0001364014D01*
X0003320863Y0001363409D01*
X0003309163Y0001363995D01*
X0003300316Y0001365752D01*
X0003293870Y0001368897D01*
X0003289378Y0001373643D01*
X0003286468Y0001380342D01*
X0003284769Y0001389346D01*
X0003284183Y0001396690D01*
X0003283988Y0001402784D01*
X0003357269Y0001402784D01*
X0003357738Y0001390440D01*
G37*
G36*
X0003233310Y0001310700D02*
G01*
X0003233310Y0001404659D01*
X0003266800Y0001404659D01*
X0003266995Y0001396221D01*
X0003267581Y0001388721D01*
X0003269144Y0001377740D01*
X0003271540Y0001368548D01*
X0003274769Y0001361143D01*
X0003281624Y0001352803D01*
X0003291253Y0001347315D01*
X0003299560Y0001345058D01*
X0003309795Y0001343704D01*
X0003321956Y0001343252D01*
X0003334673Y0001343773D01*
X0003345324Y0001345336D01*
X0003353909Y0001347940D01*
X0003363616Y0001354229D01*
X0003370081Y0001363721D01*
X0003372772Y0001372141D01*
X0003374387Y0001382610D01*
X0003374925Y0001395127D01*
X0003374786Y0001403339D01*
X0003374370Y0001412558D01*
X0003373675Y0001422784D01*
X0003267425Y0001422784D01*
X0003266956Y0001413252D01*
X0003266800Y0001404659D01*
X0003233310Y0001404659D01*
X0003233310Y0001432315D01*
X0003267425Y0001432315D01*
X0003373675Y0001444971D01*
X0003373675Y0001465752D01*
X0003281175Y0001477784D01*
X0003281175Y0001478409D01*
X0003373675Y0001490596D01*
X0003373675Y0001511221D01*
X0003267425Y0001523877D01*
X0003267425Y0001506690D01*
X0003351019Y0001500596D01*
X0003351019Y0001500440D01*
X0003331644Y0001499346D01*
X0003267425Y0001489346D01*
X0003267425Y0001466846D01*
X0003331644Y0001457159D01*
X0003351019Y0001455909D01*
X0003351019Y0001455752D01*
X0003267425Y0001449502D01*
X0003267425Y0001432315D01*
X0003233310Y0001432315D01*
X0003233310Y0001572159D01*
X0003265863Y0001572159D01*
X0003266527Y0001558858D01*
X0003268519Y0001548956D01*
X0003272113Y0001541905D01*
X0003277581Y0001537159D01*
X0003285355Y0001534502D01*
X0003295863Y0001533721D01*
X0003295863Y0001553565D01*
X0003287972Y0001555831D01*
X0003284066Y0001561612D01*
X0003282894Y0001572784D01*
X0003283988Y0001584268D01*
X0003287581Y0001589971D01*
X0003294925Y0001591690D01*
X0003302972Y0001585674D01*
X0003306820Y0001577295D01*
X0003311331Y0001564190D01*
X0003315433Y0001552842D01*
X0003319613Y0001544424D01*
X0003324280Y0001538467D01*
X0003329847Y0001534502D01*
X0003336702Y0001532276D01*
X0003345238Y0001531534D01*
X0003355628Y0001532432D01*
X0003363363Y0001535127D01*
X0003368831Y0001539952D01*
X0003372425Y0001547237D01*
X0003374417Y0001557569D01*
X0003375081Y0001571534D01*
X0003374339Y0001585928D01*
X0003372113Y0001596612D01*
X0003368089Y0001604131D01*
X0003361956Y0001609034D01*
X0003353284Y0001611612D01*
X0003341644Y0001612159D01*
X0003341644Y0001592627D01*
X0003351722Y0001590127D01*
X0003356644Y0001583487D01*
X0003357699Y0001577881D01*
X0003358050Y0001570284D01*
X0003356956Y0001558643D01*
X0003353128Y0001552784D01*
X0003345394Y0001551065D01*
X0003337425Y0001553565D01*
X0003331409Y0001561768D01*
X0003328577Y0001568663D01*
X0003325550Y0001577940D01*
X0003321624Y0001589561D01*
X0003317659Y0001598174D01*
X0003313304Y0001604249D01*
X0003308206Y0001608252D01*
X0003301995Y0001610479D01*
X0003294300Y0001611221D01*
X0003284456Y0001610342D01*
X0003277113Y0001607706D01*
X0003271898Y0001602979D01*
X0003268441Y0001595831D01*
X0003266507Y0001585733D01*
X0003265863Y0001572159D01*
X0003233310Y0001572159D01*
X0003233310Y0001759346D01*
X0003265863Y0001759346D01*
X0003266409Y0001749338D01*
X0003268050Y0001740978D01*
X0003270784Y0001734268D01*
X0003277406Y0001726729D01*
X0003287425Y0001721768D01*
X0003296349Y0001719728D01*
X0003307495Y0001718504D01*
X0003320863Y0001718096D01*
X0003334040Y0001718504D01*
X0003345029Y0001719728D01*
X0003353831Y0001721768D01*
X0003363714Y0001726729D01*
X0003370238Y0001734268D01*
X0003372929Y0001740978D01*
X0003374543Y0001749338D01*
X0003375081Y0001759346D01*
X0003374543Y0001769355D01*
X0003372929Y0001777714D01*
X0003370238Y0001784424D01*
X0003363714Y0001791963D01*
X0003353831Y0001796924D01*
X0003345029Y0001798964D01*
X0003334040Y0001800188D01*
X0003320863Y0001800596D01*
X0003307495Y0001800188D01*
X0003296349Y0001798964D01*
X0003287425Y0001796924D01*
X0003277406Y0001791963D01*
X0003270784Y0001784424D01*
X0003268050Y0001777714D01*
X0003266409Y0001769355D01*
X0003265863Y0001759346D01*
X0003233310Y0001759346D01*
X0003233310Y0001814659D01*
X0003267425Y0001814659D01*
X0003285238Y0001814659D01*
X0003285238Y0001843096D01*
X0003373675Y0001843096D01*
X0003373675Y0001863096D01*
X0003285238Y0001863096D01*
X0003285238Y0001891534D01*
X0003267425Y0001891534D01*
X0003267425Y0001814659D01*
X0003233310Y0001814659D01*
X0003233310Y0002039346D01*
X0003265863Y0002039346D01*
X0003266566Y0002026416D01*
X0003268675Y0002016690D01*
X0003272425Y0002009678D01*
X0003278050Y0002004893D01*
X0003286019Y0002001983D01*
X0003296800Y0002000596D01*
X0003296800Y0002019971D01*
X0003288441Y0002022315D01*
X0003284300Y0002028174D01*
X0003283050Y0002039190D01*
X0003283909Y0002046807D01*
X0003286488Y0002052471D01*
X0003291097Y0002056475D01*
X0003298050Y0002059112D01*
X0003307855Y0002060577D01*
X0003321019Y0002061065D01*
X0003333890Y0002060518D01*
X0003343441Y0002058877D01*
X0003350179Y0002055967D01*
X0003354613Y0002051612D01*
X0003357074Y0002045460D01*
X0003357894Y0002037159D01*
X0003357191Y0002027549D01*
X0003354769Y0002019815D01*
X0003330863Y0002019815D01*
X0003330863Y0002041846D01*
X0003313831Y0002041846D01*
X0003313831Y0002000909D01*
X0003366800Y0002000909D01*
X0003370863Y0002010635D01*
X0003373363Y0002018877D01*
X0003374652Y0002027081D01*
X0003375081Y0002036690D01*
X0003374534Y0002047367D01*
X0003372894Y0002056273D01*
X0003370159Y0002063409D01*
X0003363558Y0002071436D01*
X0003353597Y0002076768D01*
X0003344751Y0002078982D01*
X0003333736Y0002080310D01*
X0003320550Y0002080752D01*
X0003307277Y0002080336D01*
X0003296210Y0002079086D01*
X0003287347Y0002077002D01*
X0003277386Y0002071983D01*
X0003270784Y0002064424D01*
X0003268050Y0002057714D01*
X0003266409Y0002049355D01*
X0003265863Y0002039346D01*
X0003233310Y0002039346D01*
X0003233310Y0002121690D01*
X0003267425Y0002121690D01*
X0003373675Y0002089971D01*
X0003373675Y0002109815D01*
X0003348206Y0002117471D01*
X0003348206Y0002151221D01*
X0003373675Y0002158877D01*
X0003373675Y0002178721D01*
X0003267425Y0002147002D01*
X0003267425Y0002121690D01*
X0003233310Y0002121690D01*
X0003233310Y0002189659D01*
X0003267425Y0002189659D01*
X0003285238Y0002189659D01*
X0003285238Y0002218096D01*
X0003373675Y0002218096D01*
X0003373675Y0002238096D01*
X0003285238Y0002238096D01*
X0003285238Y0002266534D01*
X0003267425Y0002266534D01*
X0003267425Y0002189659D01*
X0003233310Y0002189659D01*
X0003233310Y0002288252D01*
X0003267425Y0002288252D01*
X0003342113Y0002288252D01*
X0003353597Y0002289053D01*
X0003362113Y0002291456D01*
X0003368128Y0002295772D01*
X0003372113Y0002302315D01*
X0003374339Y0002311573D01*
X0003375081Y0002324034D01*
X0003374339Y0002336592D01*
X0003372113Y0002345831D01*
X0003368167Y0002352276D01*
X0003362269Y0002356456D01*
X0003353988Y0002358624D01*
X0003342894Y0002359034D01*
X0003342894Y0002339034D01*
X0003354534Y0002336065D01*
X0003357738Y0002324502D01*
X0003356253Y0002314581D01*
X0003351331Y0002309581D01*
X0003341488Y0002308096D01*
X0003267425Y0002308096D01*
X0003267425Y0002288252D01*
X0003233310Y0002288252D01*
X0003233310Y0002392055D01*
X0003407633Y0002392055D01*
X0003407633Y0001310700D01*
X0003233310Y0001310700D01*
G37*
G04 next file*
G04 Gerber Fmt 4.6, Leading zero omitted, Abs format (unit mm)*
G04 Created by KiCad (PCBNEW (6.0.9)) date 2023-10-26 15:22:16*
G01*
G04 APERTURE LIST*
G04 APERTURE END LIST*
D27*
X0001318897Y0003031496D02*
X0001374409Y0003031496D01*
X0001375984Y0003208661D02*
X0001318897Y0003208661D01*
X0001318897Y0003208661D02*
X0001318897Y0003031496D01*
X0001479133Y0003511417D02*
X0001376771Y0003511417D01*
X0001376771Y0003613779D02*
X0001376771Y0003561417D01*
X0001581496Y0003613779D02*
X0001479133Y0003613779D01*
X0001479133Y0003613779D02*
X0001479133Y0003511417D01*
X0001376771Y0003511417D02*
X0001376771Y0002609055D01*
X0001429133Y0003613779D02*
X0001376771Y0003613779D01*
X0001581496Y0002609055D02*
X0001376771Y0002609055D01*
X0001581496Y0003613779D02*
X0001581496Y0002609055D01*
G36*
X0002034521Y0003040263D02*
G01*
X0002044072Y0003038798D01*
X0002050830Y0003036181D01*
X0002055322Y0003032236D01*
X0002057841Y0003026669D01*
X0002058681Y0003019189D01*
X0002057841Y0003011728D01*
X0002055322Y0003006220D01*
X0002050830Y0003002333D01*
X0002044072Y0002999736D01*
X0002034521Y0002998271D01*
X0002021650Y0002997782D01*
X0002008388Y0002998271D01*
X0001998603Y0002999736D01*
X0001991728Y0003002333D01*
X0001987197Y0003006220D01*
X0001984677Y0003011728D01*
X0001983837Y0003019189D01*
X0001984677Y0003026669D01*
X0001987197Y0003032236D01*
X0001991748Y0003036181D01*
X0001998681Y0003038798D01*
X0002008486Y0003040263D01*
X0002021650Y0003040751D01*
X0002034521Y0003040263D01*
G37*
G36*
X0002032275Y0003382001D02*
G01*
X0001987587Y0003394032D01*
X0001987587Y0003394345D01*
X0002032275Y0003406376D01*
X0002032275Y0003382001D01*
G37*
G36*
X0002058525Y0002650282D02*
G01*
X0002057197Y0002640868D01*
X0002054462Y0002633876D01*
X0002049951Y0002628935D01*
X0002043291Y0002625673D01*
X0002034013Y0002623857D01*
X0002021650Y0002623251D01*
X0002009951Y0002623837D01*
X0002001103Y0002625595D01*
X0001994658Y0002628740D01*
X0001990166Y0002633486D01*
X0001987255Y0002640185D01*
X0001985556Y0002649189D01*
X0001984970Y0002656532D01*
X0001984775Y0002662626D01*
X0002058056Y0002662626D01*
X0002058525Y0002650282D01*
G37*
G36*
X0001934098Y0002570543D02*
G01*
X0001934098Y0002664501D01*
X0001967587Y0002664501D01*
X0001967783Y0002656064D01*
X0001968369Y0002648564D01*
X0001969931Y0002637583D01*
X0001972327Y0002628390D01*
X0001975556Y0002620986D01*
X0001982412Y0002612646D01*
X0001992041Y0002607157D01*
X0002000348Y0002604901D01*
X0002010582Y0002603546D01*
X0002022744Y0002603095D01*
X0002035461Y0002603616D01*
X0002046112Y0002605178D01*
X0002054697Y0002607782D01*
X0002064404Y0002614072D01*
X0002070869Y0002623564D01*
X0002073560Y0002631984D01*
X0002075174Y0002642453D01*
X0002075712Y0002654970D01*
X0002075574Y0002663182D01*
X0002075157Y0002672401D01*
X0002074462Y0002682626D01*
X0001968212Y0002682626D01*
X0001967744Y0002673095D01*
X0001967587Y0002664501D01*
X0001934098Y0002664501D01*
X0001934098Y0002692157D01*
X0001968212Y0002692157D01*
X0002074462Y0002704814D01*
X0002074462Y0002725595D01*
X0001981962Y0002737626D01*
X0001981962Y0002738251D01*
X0002074462Y0002750439D01*
X0002074462Y0002771064D01*
X0001968212Y0002783720D01*
X0001968212Y0002766532D01*
X0002051806Y0002760439D01*
X0002051806Y0002760282D01*
X0002032431Y0002759189D01*
X0001968212Y0002749189D01*
X0001968212Y0002726689D01*
X0002032431Y0002717001D01*
X0002051806Y0002715751D01*
X0002051806Y0002715595D01*
X0001968212Y0002709345D01*
X0001968212Y0002692157D01*
X0001934098Y0002692157D01*
X0001934098Y0002832001D01*
X0001966650Y0002832001D01*
X0001967314Y0002818700D01*
X0001969306Y0002808798D01*
X0001972900Y0002801747D01*
X0001978369Y0002797001D01*
X0001986142Y0002794345D01*
X0001996650Y0002793564D01*
X0001996650Y0002813407D01*
X0001988759Y0002815673D01*
X0001984853Y0002821454D01*
X0001983681Y0002832626D01*
X0001984775Y0002844111D01*
X0001988369Y0002849814D01*
X0001995712Y0002851532D01*
X0002003759Y0002845517D01*
X0002007607Y0002837138D01*
X0002012119Y0002824032D01*
X0002016220Y0002812685D01*
X0002020400Y0002804267D01*
X0002025068Y0002798310D01*
X0002030634Y0002794345D01*
X0002037490Y0002792118D01*
X0002046025Y0002791376D01*
X0002056416Y0002792275D01*
X0002064150Y0002794970D01*
X0002069619Y0002799794D01*
X0002073212Y0002807079D01*
X0002075205Y0002817411D01*
X0002075869Y0002831376D01*
X0002075127Y0002845771D01*
X0002072900Y0002856454D01*
X0002068877Y0002863974D01*
X0002062744Y0002868876D01*
X0002054072Y0002871454D01*
X0002042431Y0002872001D01*
X0002042431Y0002852470D01*
X0002052509Y0002849970D01*
X0002057431Y0002843329D01*
X0002058486Y0002837724D01*
X0002058837Y0002830126D01*
X0002057744Y0002818486D01*
X0002053916Y0002812626D01*
X0002046181Y0002810907D01*
X0002038212Y0002813407D01*
X0002032197Y0002821611D01*
X0002029365Y0002828505D01*
X0002026337Y0002837782D01*
X0002022412Y0002849404D01*
X0002018447Y0002858017D01*
X0002014091Y0002864091D01*
X0002008994Y0002868095D01*
X0002002783Y0002870322D01*
X0001995087Y0002871064D01*
X0001985244Y0002870185D01*
X0001977900Y0002867548D01*
X0001972685Y0002862822D01*
X0001969228Y0002855673D01*
X0001967295Y0002845575D01*
X0001966650Y0002832001D01*
X0001934098Y0002832001D01*
X0001934098Y0003019189D01*
X0001966650Y0003019189D01*
X0001967197Y0003009180D01*
X0001968837Y0003000821D01*
X0001971572Y0002994111D01*
X0001978193Y0002986572D01*
X0001988212Y0002981611D01*
X0001997136Y0002979571D01*
X0002008282Y0002978347D01*
X0002021650Y0002977939D01*
X0002034827Y0002978347D01*
X0002045817Y0002979571D01*
X0002054619Y0002981611D01*
X0002064502Y0002986572D01*
X0002071025Y0002994111D01*
X0002073716Y0003000821D01*
X0002075331Y0003009180D01*
X0002075869Y0003019189D01*
X0002075331Y0003029197D01*
X0002073716Y0003037557D01*
X0002071025Y0003044267D01*
X0002064502Y0003051806D01*
X0002054619Y0003056767D01*
X0002045817Y0003058807D01*
X0002034827Y0003060031D01*
X0002021650Y0003060439D01*
X0002008282Y0003060031D01*
X0001997136Y0003058807D01*
X0001988212Y0003056767D01*
X0001978193Y0003051806D01*
X0001971572Y0003044267D01*
X0001968837Y0003037557D01*
X0001967197Y0003029197D01*
X0001966650Y0003019189D01*
X0001934098Y0003019189D01*
X0001934098Y0003074501D01*
X0001968212Y0003074501D01*
X0001986025Y0003074501D01*
X0001986025Y0003102939D01*
X0002074462Y0003102939D01*
X0002074462Y0003122939D01*
X0001986025Y0003122939D01*
X0001986025Y0003151376D01*
X0001968212Y0003151376D01*
X0001968212Y0003074501D01*
X0001934098Y0003074501D01*
X0001934098Y0003299189D01*
X0001966650Y0003299189D01*
X0001967353Y0003286259D01*
X0001969462Y0003276532D01*
X0001973212Y0003269521D01*
X0001978837Y0003264736D01*
X0001986806Y0003261825D01*
X0001997587Y0003260439D01*
X0001997587Y0003279814D01*
X0001989228Y0003282157D01*
X0001985087Y0003288017D01*
X0001983837Y0003299032D01*
X0001984697Y0003306650D01*
X0001987275Y0003312314D01*
X0001991884Y0003316318D01*
X0001998837Y0003318954D01*
X0002008642Y0003320419D01*
X0002021806Y0003320907D01*
X0002034677Y0003320361D01*
X0002044228Y0003318720D01*
X0002050966Y0003315810D01*
X0002055400Y0003311454D01*
X0002057861Y0003305302D01*
X0002058681Y0003297001D01*
X0002057978Y0003287392D01*
X0002055556Y0003279657D01*
X0002031650Y0003279657D01*
X0002031650Y0003301689D01*
X0002014619Y0003301689D01*
X0002014619Y0003260751D01*
X0002067587Y0003260751D01*
X0002071650Y0003270478D01*
X0002074150Y0003278720D01*
X0002075439Y0003286923D01*
X0002075869Y0003296532D01*
X0002075322Y0003307210D01*
X0002073681Y0003316116D01*
X0002070947Y0003323251D01*
X0002064345Y0003331279D01*
X0002054384Y0003336611D01*
X0002045539Y0003338824D01*
X0002034523Y0003340152D01*
X0002021337Y0003340595D01*
X0002008065Y0003340178D01*
X0001996997Y0003338928D01*
X0001988134Y0003336845D01*
X0001978173Y0003331825D01*
X0001971572Y0003324267D01*
X0001968837Y0003317557D01*
X0001967197Y0003309197D01*
X0001966650Y0003299189D01*
X0001934098Y0003299189D01*
X0001934098Y0003381532D01*
X0001968212Y0003381532D01*
X0002074462Y0003349814D01*
X0002074462Y0003369657D01*
X0002048994Y0003377314D01*
X0002048994Y0003411064D01*
X0002074462Y0003418720D01*
X0002074462Y0003438564D01*
X0001968212Y0003406845D01*
X0001968212Y0003381532D01*
X0001934098Y0003381532D01*
X0001934098Y0003449501D01*
X0001968212Y0003449501D01*
X0001986025Y0003449501D01*
X0001986025Y0003477939D01*
X0002074462Y0003477939D01*
X0002074462Y0003497939D01*
X0001986025Y0003497939D01*
X0001986025Y0003526376D01*
X0001968212Y0003526376D01*
X0001968212Y0003449501D01*
X0001934098Y0003449501D01*
X0001934098Y0003548095D01*
X0001968212Y0003548095D01*
X0002042900Y0003548095D01*
X0002054384Y0003548896D01*
X0002062900Y0003551298D01*
X0002068916Y0003555615D01*
X0002072900Y0003562157D01*
X0002075127Y0003571415D01*
X0002075869Y0003583876D01*
X0002075127Y0003596435D01*
X0002072900Y0003605673D01*
X0002068955Y0003612118D01*
X0002063056Y0003616298D01*
X0002054775Y0003618466D01*
X0002043681Y0003618876D01*
X0002043681Y0003598876D01*
X0002055322Y0003595907D01*
X0002058525Y0003584345D01*
X0002057041Y0003574423D01*
X0002052119Y0003569423D01*
X0002042275Y0003567939D01*
X0001968212Y0003567939D01*
X0001968212Y0003548095D01*
X0001934098Y0003548095D01*
X0001934098Y0003651897D01*
X0002108421Y0003651897D01*
X0002108421Y0002570543D01*
X0001934098Y0002570543D01*
G37*
G04 next file*
G04 Gerber Fmt 4.6, Leading zero omitted, Abs format (unit mm)*
G04 Created by KiCad (PCBNEW (6.0.9)) date 2023-10-26 15:22:16*
G01*
G04 APERTURE LIST*
G04 APERTURE END LIST*
D28*
X0002618110Y0003031496D02*
X0002673622Y0003031496D01*
X0002675196Y0003208661D02*
X0002618110Y0003208661D01*
X0002618110Y0003208661D02*
X0002618110Y0003031496D01*
X0002778346Y0003511417D02*
X0002675984Y0003511417D01*
X0002675984Y0003613779D02*
X0002675984Y0003561417D01*
X0002880708Y0003613779D02*
X0002778346Y0003613779D01*
X0002778346Y0003613779D02*
X0002778346Y0003511417D01*
X0002675984Y0003511417D02*
X0002675984Y0002609055D01*
X0002728346Y0003613779D02*
X0002675984Y0003613779D01*
X0002880708Y0002609055D02*
X0002675984Y0002609055D01*
X0002880708Y0003613779D02*
X0002880708Y0002609055D01*
G36*
X0003333734Y0003040263D02*
G01*
X0003343284Y0003038798D01*
X0003350042Y0003036181D01*
X0003354534Y0003032236D01*
X0003357054Y0003026669D01*
X0003357894Y0003019189D01*
X0003357054Y0003011728D01*
X0003354534Y0003006220D01*
X0003350042Y0003002333D01*
X0003343284Y0002999736D01*
X0003333734Y0002998271D01*
X0003320863Y0002997782D01*
X0003307601Y0002998271D01*
X0003297816Y0002999736D01*
X0003290941Y0003002333D01*
X0003286409Y0003006220D01*
X0003283890Y0003011728D01*
X0003283050Y0003019189D01*
X0003283890Y0003026669D01*
X0003286409Y0003032236D01*
X0003290960Y0003036181D01*
X0003297894Y0003038798D01*
X0003307699Y0003040263D01*
X0003320863Y0003040751D01*
X0003333734Y0003040263D01*
G37*
G36*
X0003331488Y0003382001D02*
G01*
X0003286800Y0003394032D01*
X0003286800Y0003394345D01*
X0003331488Y0003406376D01*
X0003331488Y0003382001D01*
G37*
G36*
X0003357738Y0002650282D02*
G01*
X0003356409Y0002640868D01*
X0003353675Y0002633876D01*
X0003349163Y0002628935D01*
X0003342503Y0002625673D01*
X0003333226Y0002623857D01*
X0003320863Y0002623251D01*
X0003309163Y0002623837D01*
X0003300316Y0002625595D01*
X0003293870Y0002628740D01*
X0003289378Y0002633486D01*
X0003286468Y0002640185D01*
X0003284769Y0002649189D01*
X0003284183Y0002656532D01*
X0003283988Y0002662626D01*
X0003357269Y0002662626D01*
X0003357738Y0002650282D01*
G37*
G36*
X0003233310Y0002570543D02*
G01*
X0003233310Y0002664501D01*
X0003266800Y0002664501D01*
X0003266995Y0002656064D01*
X0003267581Y0002648564D01*
X0003269144Y0002637583D01*
X0003271540Y0002628390D01*
X0003274769Y0002620986D01*
X0003281624Y0002612646D01*
X0003291253Y0002607157D01*
X0003299560Y0002604901D01*
X0003309795Y0002603546D01*
X0003321956Y0002603095D01*
X0003334673Y0002603616D01*
X0003345324Y0002605178D01*
X0003353909Y0002607782D01*
X0003363616Y0002614072D01*
X0003370081Y0002623564D01*
X0003372772Y0002631984D01*
X0003374387Y0002642453D01*
X0003374925Y0002654970D01*
X0003374786Y0002663182D01*
X0003374370Y0002672401D01*
X0003373675Y0002682626D01*
X0003267425Y0002682626D01*
X0003266956Y0002673095D01*
X0003266800Y0002664501D01*
X0003233310Y0002664501D01*
X0003233310Y0002692157D01*
X0003267425Y0002692157D01*
X0003373675Y0002704814D01*
X0003373675Y0002725595D01*
X0003281175Y0002737626D01*
X0003281175Y0002738251D01*
X0003373675Y0002750439D01*
X0003373675Y0002771064D01*
X0003267425Y0002783720D01*
X0003267425Y0002766532D01*
X0003351019Y0002760439D01*
X0003351019Y0002760282D01*
X0003331644Y0002759189D01*
X0003267425Y0002749189D01*
X0003267425Y0002726689D01*
X0003331644Y0002717001D01*
X0003351019Y0002715751D01*
X0003351019Y0002715595D01*
X0003267425Y0002709345D01*
X0003267425Y0002692157D01*
X0003233310Y0002692157D01*
X0003233310Y0002832001D01*
X0003265863Y0002832001D01*
X0003266527Y0002818700D01*
X0003268519Y0002808798D01*
X0003272113Y0002801747D01*
X0003277581Y0002797001D01*
X0003285355Y0002794345D01*
X0003295863Y0002793564D01*
X0003295863Y0002813407D01*
X0003287972Y0002815673D01*
X0003284066Y0002821454D01*
X0003282894Y0002832626D01*
X0003283988Y0002844111D01*
X0003287581Y0002849814D01*
X0003294925Y0002851532D01*
X0003302972Y0002845517D01*
X0003306820Y0002837138D01*
X0003311331Y0002824032D01*
X0003315433Y0002812685D01*
X0003319613Y0002804267D01*
X0003324280Y0002798310D01*
X0003329847Y0002794345D01*
X0003336702Y0002792118D01*
X0003345238Y0002791376D01*
X0003355628Y0002792275D01*
X0003363363Y0002794970D01*
X0003368831Y0002799794D01*
X0003372425Y0002807079D01*
X0003374417Y0002817411D01*
X0003375081Y0002831376D01*
X0003374339Y0002845771D01*
X0003372113Y0002856454D01*
X0003368089Y0002863974D01*
X0003361956Y0002868876D01*
X0003353284Y0002871454D01*
X0003341644Y0002872001D01*
X0003341644Y0002852470D01*
X0003351722Y0002849970D01*
X0003356644Y0002843329D01*
X0003357699Y0002837724D01*
X0003358050Y0002830126D01*
X0003356956Y0002818486D01*
X0003353128Y0002812626D01*
X0003345394Y0002810907D01*
X0003337425Y0002813407D01*
X0003331409Y0002821611D01*
X0003328577Y0002828505D01*
X0003325550Y0002837782D01*
X0003321624Y0002849404D01*
X0003317659Y0002858017D01*
X0003313304Y0002864091D01*
X0003308206Y0002868095D01*
X0003301995Y0002870322D01*
X0003294300Y0002871064D01*
X0003284456Y0002870185D01*
X0003277113Y0002867548D01*
X0003271898Y0002862822D01*
X0003268441Y0002855673D01*
X0003266507Y0002845575D01*
X0003265863Y0002832001D01*
X0003233310Y0002832001D01*
X0003233310Y0003019189D01*
X0003265863Y0003019189D01*
X0003266409Y0003009180D01*
X0003268050Y0003000821D01*
X0003270784Y0002994111D01*
X0003277406Y0002986572D01*
X0003287425Y0002981611D01*
X0003296349Y0002979571D01*
X0003307495Y0002978347D01*
X0003320863Y0002977939D01*
X0003334040Y0002978347D01*
X0003345029Y0002979571D01*
X0003353831Y0002981611D01*
X0003363714Y0002986572D01*
X0003370238Y0002994111D01*
X0003372929Y0003000821D01*
X0003374543Y0003009180D01*
X0003375081Y0003019189D01*
X0003374543Y0003029197D01*
X0003372929Y0003037557D01*
X0003370238Y0003044267D01*
X0003363714Y0003051806D01*
X0003353831Y0003056767D01*
X0003345029Y0003058807D01*
X0003334040Y0003060031D01*
X0003320863Y0003060439D01*
X0003307495Y0003060031D01*
X0003296349Y0003058807D01*
X0003287425Y0003056767D01*
X0003277406Y0003051806D01*
X0003270784Y0003044267D01*
X0003268050Y0003037557D01*
X0003266409Y0003029197D01*
X0003265863Y0003019189D01*
X0003233310Y0003019189D01*
X0003233310Y0003074501D01*
X0003267425Y0003074501D01*
X0003285238Y0003074501D01*
X0003285238Y0003102939D01*
X0003373675Y0003102939D01*
X0003373675Y0003122939D01*
X0003285238Y0003122939D01*
X0003285238Y0003151376D01*
X0003267425Y0003151376D01*
X0003267425Y0003074501D01*
X0003233310Y0003074501D01*
X0003233310Y0003299189D01*
X0003265863Y0003299189D01*
X0003266566Y0003286259D01*
X0003268675Y0003276532D01*
X0003272425Y0003269521D01*
X0003278050Y0003264736D01*
X0003286019Y0003261825D01*
X0003296800Y0003260439D01*
X0003296800Y0003279814D01*
X0003288441Y0003282157D01*
X0003284300Y0003288017D01*
X0003283050Y0003299032D01*
X0003283909Y0003306650D01*
X0003286488Y0003312314D01*
X0003291097Y0003316318D01*
X0003298050Y0003318954D01*
X0003307855Y0003320419D01*
X0003321019Y0003320907D01*
X0003333890Y0003320361D01*
X0003343441Y0003318720D01*
X0003350179Y0003315810D01*
X0003354613Y0003311454D01*
X0003357074Y0003305302D01*
X0003357894Y0003297001D01*
X0003357191Y0003287392D01*
X0003354769Y0003279657D01*
X0003330863Y0003279657D01*
X0003330863Y0003301689D01*
X0003313831Y0003301689D01*
X0003313831Y0003260751D01*
X0003366800Y0003260751D01*
X0003370863Y0003270478D01*
X0003373363Y0003278720D01*
X0003374652Y0003286923D01*
X0003375081Y0003296532D01*
X0003374534Y0003307210D01*
X0003372894Y0003316116D01*
X0003370159Y0003323251D01*
X0003363558Y0003331279D01*
X0003353597Y0003336611D01*
X0003344751Y0003338824D01*
X0003333736Y0003340152D01*
X0003320550Y0003340595D01*
X0003307277Y0003340178D01*
X0003296210Y0003338928D01*
X0003287347Y0003336845D01*
X0003277386Y0003331825D01*
X0003270784Y0003324267D01*
X0003268050Y0003317557D01*
X0003266409Y0003309197D01*
X0003265863Y0003299189D01*
X0003233310Y0003299189D01*
X0003233310Y0003381532D01*
X0003267425Y0003381532D01*
X0003373675Y0003349814D01*
X0003373675Y0003369657D01*
X0003348206Y0003377314D01*
X0003348206Y0003411064D01*
X0003373675Y0003418720D01*
X0003373675Y0003438564D01*
X0003267425Y0003406845D01*
X0003267425Y0003381532D01*
X0003233310Y0003381532D01*
X0003233310Y0003449501D01*
X0003267425Y0003449501D01*
X0003285238Y0003449501D01*
X0003285238Y0003477939D01*
X0003373675Y0003477939D01*
X0003373675Y0003497939D01*
X0003285238Y0003497939D01*
X0003285238Y0003526376D01*
X0003267425Y0003526376D01*
X0003267425Y0003449501D01*
X0003233310Y0003449501D01*
X0003233310Y0003548095D01*
X0003267425Y0003548095D01*
X0003342113Y0003548095D01*
X0003353597Y0003548896D01*
X0003362113Y0003551298D01*
X0003368128Y0003555615D01*
X0003372113Y0003562157D01*
X0003374339Y0003571415D01*
X0003375081Y0003583876D01*
X0003374339Y0003596435D01*
X0003372113Y0003605673D01*
X0003368167Y0003612118D01*
X0003362269Y0003616298D01*
X0003353988Y0003618466D01*
X0003342894Y0003618876D01*
X0003342894Y0003598876D01*
X0003354534Y0003595907D01*
X0003357738Y0003584345D01*
X0003356253Y0003574423D01*
X0003351331Y0003569423D01*
X0003341488Y0003567939D01*
X0003267425Y0003567939D01*
X0003267425Y0003548095D01*
X0003233310Y0003548095D01*
X0003233310Y0003651897D01*
X0003407633Y0003651897D01*
X0003407633Y0002570543D01*
X0003233310Y0002570543D01*
G37*
M02*