%MOIN*%
%OFA0B0*%
%FSLAX46Y46*%
%IPPOS*%
%LPD*%
%ADD10R,0.066929133858267723X0.066929133858267723*%
%ADD11O,0.066929133858267723X0.066929133858267723*%
%ADD22R,0.066929133858267723X0.066929133858267723*%
%ADD23O,0.066929133858267723X0.066929133858267723*%
%ADD24R,0.066929133858267723X0.066929133858267723*%
%ADD25O,0.066929133858267723X0.066929133858267723*%
%ADD26R,0.066929133858267723X0.066929133858267723*%
%ADD27O,0.066929133858267723X0.066929133858267723*%
%ADD28R,0.066929133858267723X0.066929133858267723*%
%ADD29O,0.066929133858267723X0.066929133858267723*%
%ADD30R,0.066929133858267723X0.066929133858267723*%
%ADD31O,0.066929133858267723X0.066929133858267723*%
%ADD32R,0.066929133858267723X0.066929133858267723*%
%ADD33O,0.066929133858267723X0.066929133858267723*%
%ADD34R,0.066929133858267723X0.066929133858267723*%
%ADD35O,0.066929133858267723X0.066929133858267723*%
%ADD36R,0.066929133858267723X0.066929133858267723*%
%ADD37O,0.066929133858267723X0.066929133858267723*%
G01*
D10*
X0000000000Y0000000000D02*
X0000886811Y0000742519D03*
D11*
X0000886811Y0000642519D03*
X0000886811Y0000542519D03*
X0000886811Y0000442519D03*
D10*
X0000557874Y0001041338D03*
D11*
X0000457874Y0001041338D03*
X0000357874Y0001041338D03*
D10*
X0000458070Y0000841929D03*
D11*
X0000458070Y0000741929D03*
X0000458070Y0000641929D03*
X0000458070Y0000541929D03*
X0000458070Y0000441929D03*
X0000458070Y0000341929D03*
D10*
X0000129921Y0001041732D03*
D11*
X0000229921Y0001041732D03*
X0000129921Y0000941732D03*
X0000229921Y0000941732D03*
X0000129921Y0000841732D03*
X0000229921Y0000841732D03*
X0000129921Y0000741732D03*
X0000229921Y0000741732D03*
X0000129921Y0000641732D03*
X0000229921Y0000641732D03*
X0000129921Y0000541732D03*
X0000229921Y0000541732D03*
X0000129921Y0000441732D03*
X0000229921Y0000441732D03*
X0000129921Y0000341732D03*
X0000229921Y0000341732D03*
X0000129921Y0000241732D03*
X0000229921Y0000241732D03*
X0000129921Y0000141732D03*
X0000229921Y0000141732D03*
G04 next file*
G04 Gerber Fmt 4.6, Leading zero omitted, Abs format (unit mm)*
G04 Created by KiCad (PCBNEW (6.0.9)) date 2023-10-26 15:22:17*
G01*
G04 APERTURE LIST*
G04 APERTURE END LIST*
D22*
X0001299212Y0000000000D02*
X0002186023Y0000742519D03*
D23*
X0002186023Y0000642519D03*
X0002186023Y0000542519D03*
X0002186023Y0000442519D03*
D22*
X0001857086Y0001041338D03*
D23*
X0001757086Y0001041338D03*
X0001657086Y0001041338D03*
D22*
X0001757283Y0000841929D03*
D23*
X0001757283Y0000741929D03*
X0001757283Y0000641929D03*
X0001757283Y0000541929D03*
X0001757283Y0000441929D03*
X0001757283Y0000341929D03*
D22*
X0001429133Y0001041732D03*
D23*
X0001529133Y0001041732D03*
X0001429133Y0000941732D03*
X0001529133Y0000941732D03*
X0001429133Y0000841732D03*
X0001529133Y0000841732D03*
X0001429133Y0000741732D03*
X0001529133Y0000741732D03*
X0001429133Y0000641732D03*
X0001529133Y0000641732D03*
X0001429133Y0000541732D03*
X0001529133Y0000541732D03*
X0001429133Y0000441732D03*
X0001529133Y0000441732D03*
X0001429133Y0000341732D03*
X0001529133Y0000341732D03*
X0001429133Y0000241732D03*
X0001529133Y0000241732D03*
X0001429133Y0000141732D03*
X0001529133Y0000141732D03*
G04 next file*
G04 Gerber Fmt 4.6, Leading zero omitted, Abs format (unit mm)*
G04 Created by KiCad (PCBNEW (6.0.9)) date 2023-10-26 15:22:17*
G01*
G04 APERTURE LIST*
G04 APERTURE END LIST*
D24*
X0002598425Y0000000000D02*
X0003485236Y0000742519D03*
D25*
X0003485236Y0000642519D03*
X0003485236Y0000542519D03*
X0003485236Y0000442519D03*
D24*
X0003156299Y0001041338D03*
D25*
X0003056299Y0001041338D03*
X0002956299Y0001041338D03*
D24*
X0003056496Y0000841929D03*
D25*
X0003056496Y0000741929D03*
X0003056496Y0000641929D03*
X0003056496Y0000541929D03*
X0003056496Y0000441929D03*
X0003056496Y0000341929D03*
D24*
X0002728346Y0001041732D03*
D25*
X0002828346Y0001041732D03*
X0002728346Y0000941732D03*
X0002828346Y0000941732D03*
X0002728346Y0000841732D03*
X0002828346Y0000841732D03*
X0002728346Y0000741732D03*
X0002828346Y0000741732D03*
X0002728346Y0000641732D03*
X0002828346Y0000641732D03*
X0002728346Y0000541732D03*
X0002828346Y0000541732D03*
X0002728346Y0000441732D03*
X0002828346Y0000441732D03*
X0002728346Y0000341732D03*
X0002828346Y0000341732D03*
X0002728346Y0000241732D03*
X0002828346Y0000241732D03*
X0002728346Y0000141732D03*
X0002828346Y0000141732D03*
G04 next file*
G04 Gerber Fmt 4.6, Leading zero omitted, Abs format (unit mm)*
G04 Created by KiCad (PCBNEW (6.0.9)) date 2023-10-26 15:22:17*
G01*
G04 APERTURE LIST*
G04 APERTURE END LIST*
D26*
X0000000000Y0001259842D02*
X0000886811Y0002002362D03*
D27*
X0000886811Y0001902362D03*
X0000886811Y0001802362D03*
X0000886811Y0001702362D03*
D26*
X0000557874Y0002301181D03*
D27*
X0000457874Y0002301181D03*
X0000357874Y0002301181D03*
D26*
X0000458070Y0002101771D03*
D27*
X0000458070Y0002001771D03*
X0000458070Y0001901771D03*
X0000458070Y0001801771D03*
X0000458070Y0001701771D03*
X0000458070Y0001601771D03*
D26*
X0000129921Y0002301574D03*
D27*
X0000229921Y0002301574D03*
X0000129921Y0002201574D03*
X0000229921Y0002201574D03*
X0000129921Y0002101574D03*
X0000229921Y0002101574D03*
X0000129921Y0002001574D03*
X0000229921Y0002001574D03*
X0000129921Y0001901574D03*
X0000229921Y0001901574D03*
X0000129921Y0001801574D03*
X0000229921Y0001801574D03*
X0000129921Y0001701574D03*
X0000229921Y0001701574D03*
X0000129921Y0001601574D03*
X0000229921Y0001601574D03*
X0000129921Y0001501574D03*
X0000229921Y0001501574D03*
X0000129921Y0001401574D03*
X0000229921Y0001401574D03*
G04 next file*
G04 Gerber Fmt 4.6, Leading zero omitted, Abs format (unit mm)*
G04 Created by KiCad (PCBNEW (6.0.9)) date 2023-10-26 15:22:17*
G01*
G04 APERTURE LIST*
G04 APERTURE END LIST*
D28*
X0000000000Y0002519685D02*
X0000886811Y0003262204D03*
D29*
X0000886811Y0003162204D03*
X0000886811Y0003062204D03*
X0000886811Y0002962204D03*
D28*
X0000557874Y0003561023D03*
D29*
X0000457874Y0003561023D03*
X0000357874Y0003561023D03*
D28*
X0000458070Y0003361614D03*
D29*
X0000458070Y0003261614D03*
X0000458070Y0003161614D03*
X0000458070Y0003061614D03*
X0000458070Y0002961614D03*
X0000458070Y0002861614D03*
D28*
X0000129921Y0003561417D03*
D29*
X0000229921Y0003561417D03*
X0000129921Y0003461417D03*
X0000229921Y0003461417D03*
X0000129921Y0003361417D03*
X0000229921Y0003361417D03*
X0000129921Y0003261417D03*
X0000229921Y0003261417D03*
X0000129921Y0003161417D03*
X0000229921Y0003161417D03*
X0000129921Y0003061417D03*
X0000229921Y0003061417D03*
X0000129921Y0002961417D03*
X0000229921Y0002961417D03*
X0000129921Y0002861417D03*
X0000229921Y0002861417D03*
X0000129921Y0002761417D03*
X0000229921Y0002761417D03*
X0000129921Y0002661417D03*
X0000229921Y0002661417D03*
G04 next file*
G04 Gerber Fmt 4.6, Leading zero omitted, Abs format (unit mm)*
G04 Created by KiCad (PCBNEW (6.0.9)) date 2023-10-26 15:22:17*
G01*
G04 APERTURE LIST*
G04 APERTURE END LIST*
D30*
X0001299212Y0001259842D02*
X0002186023Y0002002362D03*
D31*
X0002186023Y0001902362D03*
X0002186023Y0001802362D03*
X0002186023Y0001702362D03*
D30*
X0001857086Y0002301181D03*
D31*
X0001757086Y0002301181D03*
X0001657086Y0002301181D03*
D30*
X0001757283Y0002101771D03*
D31*
X0001757283Y0002001771D03*
X0001757283Y0001901771D03*
X0001757283Y0001801771D03*
X0001757283Y0001701771D03*
X0001757283Y0001601771D03*
D30*
X0001429133Y0002301574D03*
D31*
X0001529133Y0002301574D03*
X0001429133Y0002201574D03*
X0001529133Y0002201574D03*
X0001429133Y0002101574D03*
X0001529133Y0002101574D03*
X0001429133Y0002001574D03*
X0001529133Y0002001574D03*
X0001429133Y0001901574D03*
X0001529133Y0001901574D03*
X0001429133Y0001801574D03*
X0001529133Y0001801574D03*
X0001429133Y0001701574D03*
X0001529133Y0001701574D03*
X0001429133Y0001601574D03*
X0001529133Y0001601574D03*
X0001429133Y0001501574D03*
X0001529133Y0001501574D03*
X0001429133Y0001401574D03*
X0001529133Y0001401574D03*
G04 next file*
G04 Gerber Fmt 4.6, Leading zero omitted, Abs format (unit mm)*
G04 Created by KiCad (PCBNEW (6.0.9)) date 2023-10-26 15:22:17*
G01*
G04 APERTURE LIST*
G04 APERTURE END LIST*
D32*
X0002598425Y0001259842D02*
X0003485236Y0002002362D03*
D33*
X0003485236Y0001902362D03*
X0003485236Y0001802362D03*
X0003485236Y0001702362D03*
D32*
X0003156299Y0002301181D03*
D33*
X0003056299Y0002301181D03*
X0002956299Y0002301181D03*
D32*
X0003056496Y0002101771D03*
D33*
X0003056496Y0002001771D03*
X0003056496Y0001901771D03*
X0003056496Y0001801771D03*
X0003056496Y0001701771D03*
X0003056496Y0001601771D03*
D32*
X0002728346Y0002301574D03*
D33*
X0002828346Y0002301574D03*
X0002728346Y0002201574D03*
X0002828346Y0002201574D03*
X0002728346Y0002101574D03*
X0002828346Y0002101574D03*
X0002728346Y0002001574D03*
X0002828346Y0002001574D03*
X0002728346Y0001901574D03*
X0002828346Y0001901574D03*
X0002728346Y0001801574D03*
X0002828346Y0001801574D03*
X0002728346Y0001701574D03*
X0002828346Y0001701574D03*
X0002728346Y0001601574D03*
X0002828346Y0001601574D03*
X0002728346Y0001501574D03*
X0002828346Y0001501574D03*
X0002728346Y0001401574D03*
X0002828346Y0001401574D03*
G04 next file*
G04 Gerber Fmt 4.6, Leading zero omitted, Abs format (unit mm)*
G04 Created by KiCad (PCBNEW (6.0.9)) date 2023-10-26 15:22:17*
G01*
G04 APERTURE LIST*
G04 APERTURE END LIST*
D34*
X0001299212Y0002519685D02*
X0002186023Y0003262204D03*
D35*
X0002186023Y0003162204D03*
X0002186023Y0003062204D03*
X0002186023Y0002962204D03*
D34*
X0001857086Y0003561023D03*
D35*
X0001757086Y0003561023D03*
X0001657086Y0003561023D03*
D34*
X0001757283Y0003361614D03*
D35*
X0001757283Y0003261614D03*
X0001757283Y0003161614D03*
X0001757283Y0003061614D03*
X0001757283Y0002961614D03*
X0001757283Y0002861614D03*
D34*
X0001429133Y0003561417D03*
D35*
X0001529133Y0003561417D03*
X0001429133Y0003461417D03*
X0001529133Y0003461417D03*
X0001429133Y0003361417D03*
X0001529133Y0003361417D03*
X0001429133Y0003261417D03*
X0001529133Y0003261417D03*
X0001429133Y0003161417D03*
X0001529133Y0003161417D03*
X0001429133Y0003061417D03*
X0001529133Y0003061417D03*
X0001429133Y0002961417D03*
X0001529133Y0002961417D03*
X0001429133Y0002861417D03*
X0001529133Y0002861417D03*
X0001429133Y0002761417D03*
X0001529133Y0002761417D03*
X0001429133Y0002661417D03*
X0001529133Y0002661417D03*
G04 next file*
G04 Gerber Fmt 4.6, Leading zero omitted, Abs format (unit mm)*
G04 Created by KiCad (PCBNEW (6.0.9)) date 2023-10-26 15:22:17*
G01*
G04 APERTURE LIST*
G04 APERTURE END LIST*
D36*
X0002598425Y0002519685D02*
X0003485236Y0003262204D03*
D37*
X0003485236Y0003162204D03*
X0003485236Y0003062204D03*
X0003485236Y0002962204D03*
D36*
X0003156299Y0003561023D03*
D37*
X0003056299Y0003561023D03*
X0002956299Y0003561023D03*
D36*
X0003056496Y0003361614D03*
D37*
X0003056496Y0003261614D03*
X0003056496Y0003161614D03*
X0003056496Y0003061614D03*
X0003056496Y0002961614D03*
X0003056496Y0002861614D03*
D36*
X0002728346Y0003561417D03*
D37*
X0002828346Y0003561417D03*
X0002728346Y0003461417D03*
X0002828346Y0003461417D03*
X0002728346Y0003361417D03*
X0002828346Y0003361417D03*
X0002728346Y0003261417D03*
X0002828346Y0003261417D03*
X0002728346Y0003161417D03*
X0002828346Y0003161417D03*
X0002728346Y0003061417D03*
X0002828346Y0003061417D03*
X0002728346Y0002961417D03*
X0002828346Y0002961417D03*
X0002728346Y0002861417D03*
X0002828346Y0002861417D03*
X0002728346Y0002761417D03*
X0002828346Y0002761417D03*
X0002728346Y0002661417D03*
X0002828346Y0002661417D03*
M02*