%
M48
METRIC,000.000
T01C1.00
T10C0.50
%
T01
X003300Y026460
X003300Y023920
X003300Y021380
X003300Y018840
X003300Y016300
X003300Y013760
X003300Y011220
X003300Y008680
X003300Y006140
X003300Y003600
X005840Y026460
X005840Y023920
X005840Y021380
X005840Y018840
X005840Y016300
X005840Y013760
X005840Y011220
X005840Y008680
X005840Y006140
X005840Y003600
X009090Y026450
X011630Y026450
X011635Y021385
X011635Y018845
X011635Y016305
X011635Y013765
X011635Y011225
X011635Y008685
X014170Y026450
X022525Y018860
X022525Y016320
X022525Y013780
X022525Y011240
X036300Y026460
X036300Y023920
X036300Y021380
X036300Y018840
X036300Y016300
X036300Y013760
X036300Y011220
X036300Y008680
X036300Y006140
X036300Y003600
X038840Y026460
X038840Y023920
X038840Y021380
X038840Y018840
X038840Y016300
X038840Y013760
X038840Y011220
X038840Y008680
X038840Y006140
X038840Y003600
X042090Y026450
X044630Y026450
X044635Y021385
X044635Y018845
X044635Y016305
X044635Y013765
X044635Y011225
X044635Y008685
X047170Y026450
X055525Y018860
X055525Y016320
X055525Y013780
X055525Y011240
X069300Y026460
X069300Y023920
X069300Y021380
X069300Y018840
X069300Y016300
X069300Y013760
X069300Y011220
X069300Y008680
X069300Y006140
X069300Y003600
X071840Y026460
X071840Y023920
X071840Y021380
X071840Y018840
X071840Y016300
X071840Y013760
X071840Y011220
X071840Y008680
X071840Y006140
X071840Y003600
X075090Y026450
X077630Y026450
X077635Y021385
X077635Y018845
X077635Y016305
X077635Y013765
X077635Y011225
X077635Y008685
X080170Y026450
X088525Y018860
X088525Y016320
X088525Y013780
X088525Y011240
X003300Y058460
X003300Y055920
X003300Y053379
X003300Y050840
X003300Y048300
X003300Y045760
X003300Y043220
X003300Y040680
X003300Y038140
X003300Y035600
X005840Y058460
X005840Y055920
X005840Y053379
X005840Y050840
X005840Y048300
X005840Y045760
X005840Y043220
X005840Y040680
X005840Y038140
X005840Y035600
X009090Y058450
X011630Y058450
X011635Y053385
X011635Y050845
X011635Y048305
X011635Y045765
X011635Y043225
X011635Y040685
X014170Y058450
X022525Y050860
X022525Y048320
X022525Y045780
X022525Y043240
X003300Y090460
X003300Y087920
X003300Y085380
X003300Y082840
X003300Y080300
X003300Y077760
X003300Y075220
X003300Y072680
X003300Y070140
X003300Y067600
X005840Y090460
X005840Y087920
X005840Y085380
X005840Y082840
X005840Y080300
X005840Y077760
X005840Y075220
X005840Y072680
X005840Y070140
X005840Y067600
X009090Y090450
X011630Y090450
X011635Y085385
X011635Y082845
X011635Y080305
X011635Y077765
X011635Y075225
X011635Y072685
X014170Y090450
X022525Y082860
X022525Y080320
X022525Y077780
X022525Y075240
X036300Y058460
X036300Y055920
X036300Y053379
X036300Y050840
X036300Y048300
X036300Y045760
X036300Y043220
X036300Y040680
X036300Y038140
X036300Y035600
X038840Y058460
X038840Y055920
X038840Y053379
X038840Y050840
X038840Y048300
X038840Y045760
X038840Y043220
X038840Y040680
X038840Y038140
X038840Y035600
X042090Y058450
X044630Y058450
X044635Y053385
X044635Y050845
X044635Y048305
X044635Y045765
X044635Y043225
X044635Y040685
X047170Y058450
X055525Y050860
X055525Y048320
X055525Y045780
X055525Y043240
X069300Y058460
X069300Y055920
X069300Y053379
X069300Y050840
X069300Y048300
X069300Y045760
X069300Y043220
X069300Y040680
X069300Y038140
X069300Y035600
X071840Y058460
X071840Y055920
X071840Y053379
X071840Y050840
X071840Y048300
X071840Y045760
X071840Y043220
X071840Y040680
X071840Y038140
X071840Y035600
X075090Y058450
X077630Y058450
X077635Y053385
X077635Y050845
X077635Y048305
X077635Y045765
X077635Y043225
X077635Y040685
X080170Y058450
X088525Y050860
X088525Y048320
X088525Y045780
X088525Y043240
X036300Y090460
X036300Y087920
X036300Y085380
X036300Y082840
X036300Y080300
X036300Y077760
X036300Y075220
X036300Y072680
X036300Y070140
X036300Y067600
X038840Y090460
X038840Y087920
X038840Y085380
X038840Y082840
X038840Y080300
X038840Y077760
X038840Y075220
X038840Y072680
X038840Y070140
X038840Y067600
X042090Y090450
X044630Y090450
X044635Y085385
X044635Y082845
X044635Y080305
X044635Y077765
X044635Y075225
X044635Y072685
X047170Y090450
X055525Y082860
X055525Y080320
X055525Y077780
X055525Y075240
X069300Y090460
X069300Y087920
X069300Y085380
X069300Y082840
X069300Y080300
X069300Y077760
X069300Y075220
X069300Y072680
X069300Y070140
X069300Y067600
X071840Y090460
X071840Y087920
X071840Y085380
X071840Y082840
X071840Y080300
X071840Y077760
X071840Y075220
X071840Y072680
X071840Y070140
X071840Y067600
X075090Y090450
X077630Y090450
X077635Y085385
X077635Y082845
X077635Y080305
X077635Y077765
X077635Y075225
X077635Y072685
X080170Y090450
X088525Y082860
X088525Y080320
X088525Y077780
X088525Y075240
T10
X008446Y062250
X007446Y062250
X006446Y062250
X005446Y062250
X004446Y062250
X003446Y062250
X003768Y063750
X004768Y063750
X005768Y063750
X006768Y063750
X007768Y063750
X008768Y063750
X023446Y062250
X022446Y062250
X021446Y062250
X020446Y062250
X019446Y062250
X018446Y062250
X018768Y063750
X019768Y063750
X020768Y063750
X021768Y063750
X022768Y063750
X023768Y063750
X031250Y082435
X031250Y083435
X031250Y084435
X031250Y085435
X031250Y086435
X031250Y087435
X032750Y087839
X032750Y086839
X032750Y085839
X032750Y084839
X032750Y083839
X032750Y082839
X031250Y070435
X031250Y071435
X031250Y072435
X031250Y073435
X031250Y074435
X031250Y075435
X032750Y075839
X032750Y074839
X032750Y073839
X032750Y072839
X032750Y071839
X032750Y070839
X064250Y082435
X064250Y083435
X064250Y084435
X064250Y085435
X064250Y086435
X064250Y087435
X065750Y087839
X065750Y086839
X065750Y085839
X065750Y084839
X065750Y083839
X065750Y082839
X008446Y030250
X007446Y030250
X006446Y030250
X005446Y030250
X004446Y030250
X003446Y030250
X003768Y031750
X004768Y031750
X005768Y031750
X006768Y031750
X007768Y031750
X008768Y031750
X023446Y030250
X022446Y030250
X021446Y030250
X020446Y030250
X019446Y030250
X018446Y030250
X018768Y031750
X019768Y031750
X020768Y031750
X021768Y031750
X022768Y031750
X023768Y031750
X040446Y062250
X039446Y062250
X038446Y062250
X037446Y062250
X036446Y062250
X035446Y062250
X035768Y063750
X036768Y063750
X037768Y063750
X038768Y063750
X039768Y063750
X040768Y063750
X056446Y062250
X055446Y062250
X054446Y062250
X053446Y062250
X052446Y062250
X051446Y062250
X051768Y063750
X052768Y063750
X053768Y063750
X054768Y063750
X055768Y063750
X056768Y063750
X040446Y030250
X039446Y030250
X038446Y030250
X037446Y030250
X036446Y030250
X035446Y030250
X035768Y031750
X036768Y031750
X037768Y031750
X038768Y031750
X039768Y031750
X040768Y031750
X064250Y070435
X064250Y071435
X064250Y072435
X064250Y073435
X064250Y074435
X064250Y075435
X065750Y075839
X065750Y074839
X065750Y073839
X065750Y072839
X065750Y071839
X065750Y070839
X074446Y062250
X073446Y062250
X072446Y062250
X071446Y062250
X070446Y062250
X069446Y062250
X069768Y063750
X070768Y063750
X071768Y063750
X072768Y063750
X073768Y063750
X074768Y063750
X089446Y062250
X088446Y062250
X087446Y062250
X086446Y062250
X085446Y062250
X084446Y062250
X084768Y063750
X085768Y063750
X086768Y063750
X087768Y063750
X088768Y063750
X089768Y063750
X074446Y030250
X073446Y030250
X072446Y030250
X071446Y030250
X070446Y030250
X069446Y030250
X069768Y031750
X070768Y031750
X071768Y031750
X072768Y031750
X073768Y031750
X074768Y031750
X089446Y030250
X088446Y030250
X087446Y030250
X086446Y030250
X085446Y030250
X084446Y030250
X084768Y031750
X085768Y031750
X086768Y031750
X087768Y031750
X088768Y031750
X089768Y031750
X056446Y030250
X055446Y030250
X054446Y030250
X053446Y030250
X052446Y030250
X051768Y031750
X052768Y031750
X053768Y031750
X054768Y031750
X055768Y031750
X056768Y031750
X031250Y018435
X031250Y019435
X031250Y020435
X031250Y021435
X031250Y022435
X031250Y023435
X032750Y023839
X032750Y022839
X032750Y021839
X032750Y020839
X032750Y019839
X032750Y018839
X031250Y006435
X031250Y007435
X031250Y008435
X031250Y009435
X031250Y010435
X031250Y011435
X032750Y011839
X032750Y010839
X032750Y009839
X032750Y008839
X032750Y007839
X032750Y006839
X064250Y018435
X064250Y019435
X064250Y020435
X064250Y021435
X064250Y022435
X064250Y023435
X065750Y023839
X065750Y022839
X065750Y021839
X065750Y020839
X065750Y019839
X065750Y018839
X064250Y006435
X064250Y007435
X064250Y008435
X064250Y009435
X064250Y010435
X064250Y011435
X065750Y011839
X065750Y010839
X065750Y009839
X065750Y008839
X065750Y007839
X065750Y006839
M30