%TF.GenerationSoftware,KiCad,Pcbnew,(6.0.9)*%
%TF.CreationDate,2023-10-26T15:22:16+09:00*%
%TF.ProjectId,JTAG_to_SWD,4a544147-5f74-46f5-9f53-57442e6b6963,rev?*%
%TF.SameCoordinates,PX1c9c380PYaba9500*%
%TF.FileFunction,Legend,Bot*%
%TF.FilePolarity,Positive*%
%FSLAX46Y46*%
G04 Gerber Fmt 4.6, Leading zero omitted, Abs format (unit mm)*
G04 Created by KiCad (PCBNEW (6.0.9)) date 2023-10-26 15:22:16*
%MOMM*%
%LPD*%
G01*
G04 APERTURE LIST*
%ADD10C,0.120000*%
G04 APERTURE END LIST*
D10*
X500000Y13000000D02*
X1910000Y13000000D01*
X1950000Y17500000D02*
X500000Y17500000D01*
X500000Y17500000D02*
X500000Y13000000D01*
%TO.C,J1*%
X4570000Y25190000D02*
X1970000Y25190000D01*
X1970000Y27790000D02*
X1970000Y26460000D01*
X7170000Y27790000D02*
X4570000Y27790000D01*
X4570000Y27790000D02*
X4570000Y25190000D01*
X1970000Y25190000D02*
X1970000Y2270000D01*
X3300000Y27790000D02*
X1970000Y27790000D01*
X7170000Y2270000D02*
X1970000Y2270000D01*
X7170000Y27790000D02*
X7170000Y2270000D01*
%TO.C,kibuzzard-652CCC4E*%
G36*
X18676848Y13222691D02*
G01*
X18919437Y13185484D01*
X19091086Y13119008D01*
X19205187Y13018797D01*
X19269184Y12877410D01*
X19290516Y12687406D01*
X19269184Y12497898D01*
X19205187Y12358000D01*
X19091086Y12259277D01*
X18919437Y12193297D01*
X18676848Y12156090D01*
X18349922Y12143688D01*
X18013074Y12156090D01*
X17764531Y12193297D01*
X17589906Y12259277D01*
X17474812Y12358000D01*
X17410816Y12497898D01*
X17389484Y12687406D01*
X17410816Y12877410D01*
X17474812Y13018797D01*
X17590402Y13119008D01*
X17766516Y13185484D01*
X18015555Y13222691D01*
X18349922Y13235094D01*
X18676848Y13222691D01*
G37*
G36*
X18619797Y21902844D02*
G01*
X17484734Y22208438D01*
X17484734Y22216375D01*
X18619797Y22521969D01*
X18619797Y21902844D01*
G37*
G36*
X19286547Y3317187D02*
G01*
X19252812Y3078070D01*
X19183359Y2900469D01*
X19068762Y2774957D01*
X18899594Y2692109D01*
X18663949Y2645973D01*
X18349922Y2630594D01*
X18052762Y2645477D01*
X17828031Y2690125D01*
X17664320Y2769996D01*
X17550219Y2890547D01*
X17476301Y3060707D01*
X17433141Y3289406D01*
X17418258Y3475937D01*
X17413297Y3630719D01*
X19274641Y3630719D01*
X19286547Y3317187D01*
G37*
G36*
X16126099Y1291802D02*
G01*
X16126099Y3678344D01*
X16976734Y3678344D01*
X16981695Y3464031D01*
X16996578Y3273531D01*
X17036266Y2994616D01*
X17097120Y2761122D01*
X17179141Y2573047D01*
X17353270Y2361215D01*
X17597844Y2221812D01*
X17808849Y2164486D01*
X18068802Y2130090D01*
X18377703Y2118625D01*
X18700715Y2131854D01*
X18971252Y2171542D01*
X19189312Y2237687D01*
X19435871Y2397430D01*
X19600078Y2638531D01*
X19668429Y2852403D01*
X19709439Y3118309D01*
X19723109Y3436250D01*
X19719582Y3644830D01*
X19708998Y3878986D01*
X19691359Y4138719D01*
X16992609Y4138719D01*
X16980703Y3896625D01*
X16976734Y3678344D01*
X16126099Y3678344D01*
X16126099Y4380812D01*
X16992609Y4380812D01*
X19691359Y4702281D01*
X19691359Y5230125D01*
X17341859Y5535719D01*
X17341859Y5551594D01*
X19691359Y5861156D01*
X19691359Y6385031D01*
X16992609Y6706500D01*
X16992609Y6269937D01*
X19115891Y6115156D01*
X19115891Y6111187D01*
X18623766Y6083406D01*
X16992609Y5829406D01*
X16992609Y5257906D01*
X18623766Y5011844D01*
X19115891Y4980094D01*
X19115891Y4976125D01*
X16992609Y4817375D01*
X16992609Y4380812D01*
X16126099Y4380812D01*
X16126099Y7932844D01*
X16952922Y7932844D01*
X16969789Y7595004D01*
X17020391Y7343484D01*
X17111672Y7164395D01*
X17250578Y7043844D01*
X17448023Y6976375D01*
X17714922Y6956531D01*
X17714922Y7460562D01*
X17514500Y7518109D01*
X17415281Y7664953D01*
X17385516Y7948719D01*
X17413297Y8240422D01*
X17504578Y8385281D01*
X17691109Y8428937D01*
X17895500Y8276141D01*
X17993230Y8063316D01*
X18107828Y7730437D01*
X18212008Y7442207D01*
X18318172Y7228391D01*
X18436738Y7077082D01*
X18578125Y6976375D01*
X18752254Y6919820D01*
X18969047Y6900969D01*
X19232969Y6923789D01*
X19429422Y6992250D01*
X19568328Y7114785D01*
X19659609Y7299828D01*
X19710211Y7562262D01*
X19727078Y7916969D01*
X19708227Y8282590D01*
X19651672Y8553953D01*
X19549477Y8744949D01*
X19393703Y8869469D01*
X19173438Y8934953D01*
X18877766Y8948844D01*
X18877766Y8452750D01*
X19133750Y8389250D01*
X19258766Y8220578D01*
X19285555Y8078199D01*
X19294484Y7885219D01*
X19266703Y7589547D01*
X19169469Y7440719D01*
X18973016Y7397062D01*
X18770609Y7460562D01*
X18617812Y7668922D01*
X18545879Y7844043D01*
X18468984Y8079687D01*
X18369270Y8374863D01*
X18268562Y8593641D01*
X18157934Y8747926D01*
X18028453Y8849625D01*
X17870695Y8906180D01*
X17675234Y8925031D01*
X17425203Y8902707D01*
X17238672Y8835734D01*
X17106215Y8715680D01*
X17018406Y8534109D01*
X16969293Y8277629D01*
X16952922Y7932844D01*
X16126099Y7932844D01*
X16126099Y12687406D01*
X16952922Y12687406D01*
X16966812Y12433186D01*
X17008484Y12220858D01*
X17077937Y12050422D01*
X17246113Y11858930D01*
X17500609Y11732922D01*
X17727269Y11681108D01*
X18010373Y11650019D01*
X18349922Y11639656D01*
X18684620Y11650019D01*
X18963755Y11681108D01*
X19187328Y11732922D01*
X19438352Y11858930D01*
X19604047Y12050422D01*
X19672398Y12220858D01*
X19713408Y12433186D01*
X19727078Y12687406D01*
X19713408Y12941627D01*
X19672398Y13153955D01*
X19604047Y13324391D01*
X19438352Y13515883D01*
X19187328Y13641891D01*
X18963755Y13693705D01*
X18684620Y13724793D01*
X18349922Y13735156D01*
X18010373Y13724793D01*
X17727269Y13693705D01*
X17500609Y13641891D01*
X17246113Y13515883D01*
X17077937Y13324391D01*
X17008484Y13153955D01*
X16966812Y12941627D01*
X16952922Y12687406D01*
X16126099Y12687406D01*
X16126099Y14092344D01*
X16992609Y14092344D01*
X17445047Y14092344D01*
X17445047Y14814656D01*
X19691359Y14814656D01*
X19691359Y15322656D01*
X17445047Y15322656D01*
X17445047Y16044969D01*
X16992609Y16044969D01*
X16992609Y14092344D01*
X16126099Y14092344D01*
X16126099Y19799406D01*
X16952922Y19799406D01*
X16970781Y19470992D01*
X17024359Y19223938D01*
X17119609Y19045840D01*
X17262484Y18924297D01*
X17464891Y18850379D01*
X17738734Y18815156D01*
X17738734Y19307281D01*
X17526406Y19366813D01*
X17421234Y19515641D01*
X17389484Y19795438D01*
X17411312Y19988914D01*
X17476797Y20132781D01*
X17593875Y20234480D01*
X17770484Y20301453D01*
X18019523Y20338660D01*
X18353891Y20351063D01*
X18680816Y20337172D01*
X18923406Y20295500D01*
X19094559Y20221582D01*
X19207172Y20110953D01*
X19269680Y19954684D01*
X19290516Y19743844D01*
X19272656Y19499766D01*
X19211141Y19303313D01*
X18603922Y19303313D01*
X18603922Y19862906D01*
X18171328Y19862906D01*
X18171328Y18823094D01*
X19516734Y18823094D01*
X19619922Y19070148D01*
X19683422Y19279500D01*
X19716164Y19487859D01*
X19727078Y19731938D01*
X19713188Y20003135D01*
X19671516Y20229354D01*
X19602063Y20410594D01*
X19434383Y20614488D01*
X19181375Y20749922D01*
X18956700Y20806146D01*
X18676903Y20839880D01*
X18341984Y20851125D01*
X18004861Y20840542D01*
X17723741Y20808792D01*
X17498625Y20755875D01*
X17245617Y20628379D01*
X17077937Y20436391D01*
X17008484Y20265955D01*
X16966812Y20053627D01*
X16952922Y19799406D01*
X16126099Y19799406D01*
X16126099Y21890938D01*
X16992609Y21890938D01*
X19691359Y21085281D01*
X19691359Y21589313D01*
X19044453Y21783781D01*
X19044453Y22641031D01*
X19691359Y22835500D01*
X19691359Y23339531D01*
X16992609Y22533875D01*
X16992609Y21890938D01*
X16126099Y21890938D01*
X16126099Y23617344D01*
X16992609Y23617344D01*
X17445047Y23617344D01*
X17445047Y24339656D01*
X19691359Y24339656D01*
X19691359Y24847656D01*
X17445047Y24847656D01*
X17445047Y25569969D01*
X16992609Y25569969D01*
X16992609Y23617344D01*
X16126099Y23617344D01*
X16126099Y26121625D01*
X16992609Y26121625D01*
X18889672Y26121625D01*
X19181375Y26141965D01*
X19397672Y26202984D01*
X19550469Y26312621D01*
X19651672Y26478813D01*
X19708227Y26713961D01*
X19727078Y27030469D01*
X19708227Y27349457D01*
X19651672Y27584109D01*
X19551461Y27747820D01*
X19401641Y27853984D01*
X19191297Y27909051D01*
X18909516Y27919469D01*
X18909516Y27411469D01*
X19205187Y27336063D01*
X19286547Y27042375D01*
X19248844Y26790359D01*
X19123828Y26663359D01*
X18873797Y26625656D01*
X16992609Y26625656D01*
X16992609Y26121625D01*
X16126099Y26121625D01*
X16126099Y28758198D01*
X20553901Y28758198D01*
X20553901Y1291802D01*
X16126099Y1291802D01*
G37*
%TD*%
M02*
