%TF.GenerationSoftware,KiCad,Pcbnew,(6.0.9)*%
%TF.CreationDate,2023-10-26T15:22:16+09:00*%
%TF.ProjectId,JTAG_to_SWD,4a544147-5f74-46f5-9f53-57442e6b6963,rev?*%
%TF.SameCoordinates,PX1c9c380PYaba9500*%
%TF.FileFunction,Legend,Top*%
%TF.FilePolarity,Positive*%
%FSLAX46Y46*%
G04 Gerber Fmt 4.6, Leading zero omitted, Abs format (unit mm)*
G04 Created by KiCad (PCBNEW (6.0.9)) date 2023-10-26 15:22:16*
%MOMM*%
%LPD*%
G01*
G04 APERTURE LIST*
%ADD10C,0.120000*%
%ADD11C,0.200000*%
G04 APERTURE END LIST*
D10*
X10290000Y22200000D02*
X10290000Y22700000D01*
X10800000Y22700000D02*
X10300000Y22700000D01*
X12965000Y15035000D02*
X19700000Y15035000D01*
X19700000Y15035000D02*
X19700000Y12520000D01*
X19700000Y12520000D02*
X12965000Y12520000D01*
X12965000Y12520000D02*
X12965000Y15035000D01*
X12900000Y27780000D02*
X10360000Y27780000D01*
X10360000Y27780000D02*
X10360000Y25120000D01*
X10360000Y25120000D02*
X12900000Y25120000D01*
X12900000Y25120000D02*
X12900000Y27780000D01*
X15500000Y27780000D02*
X12900000Y27780000D01*
X12900000Y27780000D02*
X12900000Y25120000D01*
X12900000Y25120000D02*
X15500000Y25120000D01*
X15500000Y25120000D02*
X15500000Y27780000D01*
X12965000Y9950000D02*
X19700000Y9950000D01*
X19700000Y9950000D02*
X19700000Y7350000D01*
X19700000Y7350000D02*
X12965000Y7350000D01*
X12965000Y7350000D02*
X12965000Y9950000D01*
D11*
X3402195Y27800000D02*
G75*
G03*
X3402195Y27800000I-92195J0D01*
G01*
D10*
X21180000Y19690000D02*
X21180000Y20190000D01*
X12965000Y17600000D02*
X19700000Y17600000D01*
X19700000Y17600000D02*
X19700000Y15035000D01*
X19700000Y15035000D02*
X12965000Y15035000D01*
X12965000Y15035000D02*
X12965000Y17600000D01*
X12965000Y12515000D02*
X19700000Y12515000D01*
X19700000Y12515000D02*
X19700000Y9950000D01*
X19700000Y9950000D02*
X12965000Y9950000D01*
X12965000Y9950000D02*
X12965000Y12515000D01*
X23855000Y12510000D02*
X30510000Y12510000D01*
X30510000Y12510000D02*
X30510000Y9910000D01*
X30510000Y9910000D02*
X23855000Y9910000D01*
X23855000Y9910000D02*
X23855000Y12510000D01*
X23855000Y17575000D02*
X30510000Y17575000D01*
X30510000Y17575000D02*
X30510000Y15075000D01*
X30510000Y15075000D02*
X23855000Y15075000D01*
X23855000Y15075000D02*
X23855000Y17575000D01*
X12965000Y20100000D02*
X19700000Y20100000D01*
X19700000Y20100000D02*
X19700000Y17600000D01*
X19700000Y17600000D02*
X12965000Y17600000D01*
X12965000Y17600000D02*
X12965000Y20100000D01*
X23855000Y20190000D02*
X30510000Y20190000D01*
X30510000Y20190000D02*
X30510000Y17575000D01*
X30510000Y17575000D02*
X23855000Y17575000D01*
X23855000Y17575000D02*
X23855000Y20190000D01*
X21690000Y20190000D02*
X21190000Y20190000D01*
X12965000Y22715000D02*
X19700000Y22715000D01*
X19700000Y22715000D02*
X19700000Y20100000D01*
X19700000Y20100000D02*
X12965000Y20100000D01*
X12965000Y20100000D02*
X12965000Y22715000D01*
X23855000Y15075000D02*
X30510000Y15075000D01*
X30510000Y15075000D02*
X30510000Y12510000D01*
X30510000Y12510000D02*
X23855000Y12510000D01*
X23855000Y12510000D02*
X23855000Y15075000D01*
%TO.C,kibuzzard-652CA4AC*%
G36*
X7266731Y1866312D02*
G01*
X7266731Y2485437D01*
X7465169Y2485437D01*
X7470725Y2383749D01*
X7487394Y2298818D01*
X7515175Y2230644D01*
X7582247Y2153848D01*
X7683450Y2102850D01*
X7773497Y2081683D01*
X7885944Y2068983D01*
X8020794Y2064750D01*
X8154761Y2069248D01*
X8266680Y2082742D01*
X8356550Y2105231D01*
X8457753Y2159405D01*
X8524825Y2240962D01*
X8552606Y2313458D01*
X8569275Y2403946D01*
X8574831Y2512425D01*
X8570466Y2610056D01*
X8557369Y2693400D01*
X8531969Y2777141D01*
X8490694Y2875962D01*
X7952531Y2875962D01*
X7952531Y2460037D01*
X8125569Y2460037D01*
X8125569Y2683875D01*
X8368456Y2683875D01*
X8393062Y2605294D01*
X8400206Y2507662D01*
X8391872Y2423327D01*
X8366869Y2360819D01*
X8321823Y2316567D01*
X8253363Y2287000D01*
X8156327Y2270331D01*
X8025556Y2264775D01*
X7891809Y2269736D01*
X7792194Y2284619D01*
X7721550Y2311408D01*
X7674719Y2352087D01*
X7648525Y2409634D01*
X7639794Y2487025D01*
X7652494Y2598944D01*
X7694562Y2658475D01*
X7779494Y2682287D01*
X7779494Y2879137D01*
X7669956Y2865048D01*
X7588994Y2835481D01*
X7531844Y2786864D01*
X7493744Y2715625D01*
X7472312Y2616803D01*
X7465169Y2485437D01*
X7266731Y2485437D01*
X7266731Y3831637D01*
X7481044Y3831637D01*
X7481044Y3636375D01*
X8101756Y3636375D01*
X8327181Y3658600D01*
X8327181Y3653838D01*
X7481044Y3266487D01*
X7481044Y3018837D01*
X8560544Y3018837D01*
X8560544Y3214100D01*
X7939831Y3214100D01*
X7714406Y3191875D01*
X7714406Y3196638D01*
X8560544Y3583987D01*
X8560544Y3831637D01*
X7481044Y3831637D01*
X7266731Y3831637D01*
X7266731Y4171363D01*
X7474694Y4171363D01*
X7476281Y4084050D01*
X7481044Y3987213D01*
X8560544Y3987213D01*
X8567599Y4091106D01*
X8571833Y4184768D01*
X8573244Y4268200D01*
X8567776Y4395376D01*
X8551372Y4501739D01*
X8524031Y4587288D01*
X8458348Y4683728D01*
X8359725Y4747625D01*
X8272501Y4774083D01*
X8164286Y4789958D01*
X8035081Y4795250D01*
X7911521Y4790664D01*
X7807540Y4776906D01*
X7723137Y4753975D01*
X7625308Y4698214D01*
X7555656Y4613481D01*
X7522848Y4538251D01*
X7498506Y4444853D01*
X7482631Y4333288D01*
X7476678Y4257088D01*
X7474694Y4171363D01*
X7266731Y4171363D01*
X7266731Y4993688D01*
X8773269Y4993688D01*
X8773269Y1866312D01*
X7266731Y1866312D01*
G37*
G36*
X8149580Y4584311D02*
G01*
X8243837Y4565856D01*
X8311505Y4532717D01*
X8357344Y4482513D01*
X8385125Y4411472D01*
X8398619Y4315825D01*
X8393856Y4190412D01*
X7649319Y4190412D01*
X7651303Y4252325D01*
X7657256Y4326938D01*
X7674520Y4418417D01*
X7704087Y4486481D01*
X7749728Y4534702D01*
X7815212Y4566650D01*
X7905105Y4584509D01*
X8023969Y4590463D01*
X8149580Y4584311D01*
G37*
%TO.C,kibuzzard-6539E611*%
G36*
X24281048Y19607713D02*
G01*
X27446524Y19607713D01*
X27446524Y18112287D01*
X24281048Y18112287D01*
X24281048Y19402925D01*
X24479486Y19402925D01*
X24800161Y18323425D01*
X25049399Y18323425D01*
X25487549Y18323425D01*
X25591442Y18316369D01*
X25685104Y18312136D01*
X25768536Y18310725D01*
X25895712Y18316193D01*
X25942604Y18323425D01*
X26440049Y18323425D01*
X26543942Y18316369D01*
X26637604Y18312136D01*
X26721036Y18310725D01*
X26848212Y18316193D01*
X26954575Y18332597D01*
X27040124Y18359937D01*
X27136564Y18425620D01*
X27200461Y18524244D01*
X27226919Y18611468D01*
X27242794Y18719683D01*
X27248086Y18848887D01*
X27243500Y18972448D01*
X27229742Y19076429D01*
X27206811Y19160831D01*
X27151050Y19258661D01*
X27066317Y19328313D01*
X26991087Y19361121D01*
X26897689Y19385463D01*
X26786124Y19401337D01*
X26709924Y19407291D01*
X26624199Y19409275D01*
X26536886Y19407688D01*
X26440049Y19402925D01*
X26440049Y18323425D01*
X25942604Y18323425D01*
X26002075Y18332597D01*
X26087624Y18359937D01*
X26184064Y18425620D01*
X26247961Y18524244D01*
X26274419Y18611468D01*
X26290294Y18719683D01*
X26295586Y18848887D01*
X26291000Y18972448D01*
X26277242Y19076429D01*
X26254311Y19160831D01*
X26198550Y19258661D01*
X26113817Y19328313D01*
X26038587Y19361121D01*
X25945189Y19385463D01*
X25833624Y19401337D01*
X25757424Y19407291D01*
X25671699Y19409275D01*
X25584386Y19407688D01*
X25487549Y19402925D01*
X25487549Y18323425D01*
X25049399Y18323425D01*
X25370074Y19402925D01*
X25163699Y19402925D01*
X24928749Y18561550D01*
X24920811Y18561550D01*
X24685861Y19402925D01*
X24479486Y19402925D01*
X24281048Y19402925D01*
X24281048Y19607713D01*
G37*
G36*
X26705161Y19232666D02*
G01*
X26779774Y19226713D01*
X26871253Y19209448D01*
X26939317Y19179881D01*
X26987538Y19134241D01*
X27019486Y19068756D01*
X27037345Y18978864D01*
X27043299Y18860000D01*
X27037147Y18734389D01*
X27018692Y18640131D01*
X26985553Y18572464D01*
X26935349Y18526625D01*
X26864308Y18498844D01*
X26768661Y18485350D01*
X26643249Y18490112D01*
X26643249Y19234650D01*
X26705161Y19232666D01*
G37*
G36*
X25752661Y19232666D02*
G01*
X25827274Y19226713D01*
X25918753Y19209448D01*
X25986817Y19179881D01*
X26035038Y19134241D01*
X26066986Y19068756D01*
X26084845Y18978864D01*
X26090799Y18860000D01*
X26084647Y18734389D01*
X26066192Y18640131D01*
X26033053Y18572464D01*
X25982849Y18526625D01*
X25911808Y18498844D01*
X25816161Y18485350D01*
X25690749Y18490112D01*
X25690749Y19234650D01*
X25752661Y19232666D01*
G37*
%TO.C,kibuzzard-652CAEF1*%
G36*
X6535525Y29688188D02*
G01*
X9564475Y29688188D01*
X9564475Y28197526D01*
X6535525Y28197526D01*
X6535525Y28461051D01*
X6733962Y28461051D01*
X6807980Y28430095D01*
X6877631Y28410251D01*
X6952045Y28399535D01*
X7040350Y28395963D01*
X7182034Y28404694D01*
X7289587Y28430888D01*
X7367573Y28476529D01*
X7420556Y28543601D01*
X7450917Y28636073D01*
X7461037Y28757913D01*
X7455084Y28862093D01*
X7437225Y28942857D01*
X7406070Y29002587D01*
X7360231Y29043663D01*
X7297723Y29067476D01*
X7216562Y29075413D01*
X7153062Y29072238D01*
X7153062Y29080176D01*
X7419762Y29305601D01*
X7419762Y29489751D01*
X7629312Y29489751D01*
X7949987Y28410251D01*
X8199225Y28410251D01*
X8214316Y28461051D01*
X8638963Y28461051D01*
X8712980Y28430095D01*
X8782631Y28410251D01*
X8857045Y28399535D01*
X8945350Y28395963D01*
X9087034Y28404694D01*
X9194588Y28430888D01*
X9272573Y28476529D01*
X9325556Y28543601D01*
X9355917Y28636073D01*
X9366038Y28757913D01*
X9360084Y28862093D01*
X9342225Y28942857D01*
X9311070Y29002587D01*
X9265231Y29043663D01*
X9202723Y29067476D01*
X9121562Y29075413D01*
X9058063Y29072238D01*
X9058063Y29080176D01*
X9324763Y29305601D01*
X9324763Y29489751D01*
X8661187Y29489751D01*
X8661187Y29321476D01*
X9083463Y29321476D01*
X8816762Y29084938D01*
X8816762Y28897613D01*
X8912806Y28911901D01*
X8991387Y28916663D01*
X9073144Y28907138D01*
X9127913Y28878563D01*
X9158869Y28829351D01*
X9169188Y28757913D01*
X9156686Y28667624D01*
X9119181Y28609482D01*
X9050323Y28577930D01*
X8943763Y28567413D01*
X8872127Y28572573D01*
X8803269Y28588051D01*
X8728458Y28616229D01*
X8638963Y28659488D01*
X8638963Y28461051D01*
X8214316Y28461051D01*
X8519900Y29489751D01*
X8313525Y29489751D01*
X8078575Y28648376D01*
X8070637Y28648376D01*
X7835687Y29489751D01*
X7629312Y29489751D01*
X7419762Y29489751D01*
X6756187Y29489751D01*
X6756187Y29321476D01*
X7178462Y29321476D01*
X6911762Y29084938D01*
X6911762Y28897613D01*
X7007806Y28911901D01*
X7086387Y28916663D01*
X7168144Y28907138D01*
X7222912Y28878563D01*
X7253869Y28829351D01*
X7264187Y28757913D01*
X7251686Y28667624D01*
X7214181Y28609482D01*
X7145323Y28577930D01*
X7038762Y28567413D01*
X6967127Y28572573D01*
X6898269Y28588051D01*
X6823458Y28616229D01*
X6733962Y28659488D01*
X6733962Y28461051D01*
X6535525Y28461051D01*
X6535525Y29688188D01*
G37*
%TO.C,kibuzzard-6539E8D8*%
G36*
X13476048Y14668923D02*
G01*
X19500610Y14668923D01*
X19500610Y12861077D01*
X13476048Y12861077D01*
X13476048Y13506873D01*
X13719888Y13506873D01*
X13726555Y13364950D01*
X13757988Y13259223D01*
X13817757Y13184451D01*
X13909435Y13135397D01*
X14039690Y13108251D01*
X14215188Y13099202D01*
X14385447Y13107299D01*
X14511415Y13131588D01*
X14600236Y13175403D01*
X14659053Y13242078D01*
X14691914Y13336375D01*
X14702868Y13463058D01*
X14693819Y13567118D01*
X14666673Y13650700D01*
X14618333Y13718566D01*
X14545705Y13775478D01*
X14443073Y13826436D01*
X14304723Y13876443D01*
X14144941Y13931449D01*
X14042785Y13978360D01*
X13969443Y14076468D01*
X13990398Y14166003D01*
X14059930Y14209818D01*
X14199948Y14223153D01*
X14336155Y14208865D01*
X14406640Y14161240D01*
X14434263Y14065038D01*
X14676198Y14065038D01*
X14666673Y14193149D01*
X14634288Y14287923D01*
X14576423Y14354598D01*
X14490460Y14398413D01*
X14424175Y14411748D01*
X14796213Y14411748D01*
X14950518Y13116347D01*
X15201978Y13116347D01*
X15350568Y14244108D01*
X15358188Y14244108D01*
X15504873Y13116347D01*
X15758238Y13116347D01*
X16028748Y13116347D01*
X16153419Y13107881D01*
X16265814Y13102801D01*
X16365933Y13101108D01*
X16518544Y13107669D01*
X16574811Y13116347D01*
X17282238Y13116347D01*
X17996613Y13116347D01*
X17996613Y13327803D01*
X17758488Y13327803D01*
X17758488Y13760238D01*
X18280458Y13760238D01*
X18285432Y13599582D01*
X18300354Y13465597D01*
X18325225Y13358283D01*
X18385709Y13237791D01*
X18477625Y13158257D01*
X18559434Y13125449D01*
X18661352Y13105764D01*
X18783378Y13099202D01*
X18905404Y13105764D01*
X19007321Y13125449D01*
X19089130Y13158257D01*
X19181047Y13237791D01*
X19241530Y13358283D01*
X19266401Y13465597D01*
X19281324Y13599582D01*
X19286298Y13760238D01*
X19281324Y13923221D01*
X19266401Y14059111D01*
X19241530Y14167908D01*
X19181047Y14290066D01*
X19089130Y14370790D01*
X19007321Y14404128D01*
X18905404Y14424130D01*
X18783378Y14430798D01*
X18661352Y14424130D01*
X18559434Y14404128D01*
X18477625Y14370790D01*
X18385709Y14290066D01*
X18325225Y14167908D01*
X18300354Y14059111D01*
X18285432Y13923221D01*
X18280458Y13760238D01*
X17758488Y13760238D01*
X17758488Y14200293D01*
X17983278Y14200293D01*
X17983278Y14411748D01*
X17295573Y14411748D01*
X17295573Y14200293D01*
X17520363Y14200293D01*
X17520363Y13327803D01*
X17282238Y13327803D01*
X17282238Y13116347D01*
X16574811Y13116347D01*
X16646179Y13127354D01*
X16748838Y13160163D01*
X16864566Y13238982D01*
X16941243Y13357330D01*
X16972993Y13461999D01*
X16992043Y13591857D01*
X16998393Y13746903D01*
X16992889Y13895175D01*
X16976379Y14019953D01*
X16948863Y14121235D01*
X16881950Y14238631D01*
X16780270Y14322213D01*
X16689994Y14361583D01*
X16577917Y14390793D01*
X16444038Y14409843D01*
X16352598Y14416986D01*
X16249728Y14419368D01*
X16144953Y14417463D01*
X16028748Y14411748D01*
X16028748Y13116347D01*
X15758238Y13116347D01*
X15912543Y14411748D01*
X15702993Y14411748D01*
X15626793Y13392573D01*
X15624888Y13392573D01*
X15609648Y13628793D01*
X15491538Y14411748D01*
X15217218Y14411748D01*
X15095298Y13628793D01*
X15081963Y13392573D01*
X15080058Y13392573D01*
X15005763Y14411748D01*
X14796213Y14411748D01*
X14424175Y14411748D01*
X14369731Y14422701D01*
X14207568Y14430798D01*
X14042071Y14422939D01*
X13918960Y14399365D01*
X13831806Y14357217D01*
X13774180Y14293638D01*
X13742033Y14204103D01*
X13731318Y14084088D01*
X13740366Y13990266D01*
X13767513Y13914543D01*
X13816328Y13852392D01*
X13890385Y13799290D01*
X13995398Y13750951D01*
X14137083Y13703088D01*
X14250192Y13666178D01*
X14334250Y13631650D01*
X14434263Y13558308D01*
X14464743Y13461153D01*
X14443788Y13366855D01*
X14372350Y13320183D01*
X14230428Y13306847D01*
X14137797Y13311134D01*
X14069455Y13323993D01*
X13988493Y13384000D01*
X13958013Y13506873D01*
X13719888Y13506873D01*
X13476048Y13506873D01*
X13476048Y14668923D01*
G37*
G36*
X16346883Y14207436D02*
G01*
X16436418Y14200293D01*
X16546193Y14179576D01*
X16627870Y14144095D01*
X16685735Y14089326D01*
X16724073Y14010745D01*
X16745504Y13902874D01*
X16752648Y13760238D01*
X16745266Y13609504D01*
X16723120Y13496395D01*
X16683353Y13415194D01*
X16623108Y13360188D01*
X16537859Y13326850D01*
X16423083Y13310658D01*
X16272588Y13316373D01*
X16272588Y14209818D01*
X16346883Y14207436D01*
G37*
G36*
X18874341Y14211008D02*
G01*
X18941493Y14180290D01*
X18988880Y14125045D01*
X19020550Y14041225D01*
X19038410Y13921924D01*
X19044363Y13760238D01*
X19038410Y13603313D01*
X19020550Y13486870D01*
X18988880Y13404479D01*
X18941493Y13349710D01*
X18874341Y13318992D01*
X18783378Y13308752D01*
X18692176Y13318992D01*
X18624310Y13349710D01*
X18576209Y13404479D01*
X18544300Y13486870D01*
X18526441Y13603313D01*
X18520488Y13760238D01*
X18526441Y13920734D01*
X18544300Y14040273D01*
X18576209Y14124807D01*
X18624310Y14180290D01*
X18692176Y14211008D01*
X18783378Y14221248D01*
X18874341Y14211008D01*
G37*
%TO.C,kibuzzard-6539E952*%
G36*
X9910753Y4656897D02*
G01*
X27489247Y4656897D01*
X27489247Y1823103D01*
X9910753Y1823103D01*
X9910753Y2875510D01*
X10447540Y2875510D01*
X10454207Y2695170D01*
X10489450Y2560550D01*
X10557395Y2464665D01*
X10662170Y2400530D01*
X10812347Y2364335D01*
X11016500Y2352270D01*
X11219065Y2364335D01*
X11369560Y2400530D01*
X11475922Y2465300D01*
X11546090Y2563090D01*
X11585142Y2701520D01*
X11598160Y2888210D01*
X11598160Y3812770D01*
X11951220Y3812770D01*
X12413500Y3812770D01*
X12413500Y2375130D01*
X12738620Y2375130D01*
X13378700Y2375130D01*
X13701280Y2375130D01*
X13825740Y2789150D01*
X14374380Y2789150D01*
X14498840Y2375130D01*
X14821420Y2375130D01*
X14563610Y3238730D01*
X14971280Y3238730D01*
X14978477Y3024382D01*
X15000067Y2845312D01*
X15036050Y2701520D01*
X15122727Y2539595D01*
X15253220Y2432280D01*
X15369213Y2387830D01*
X15513993Y2361160D01*
X15687560Y2352270D01*
X15843770Y2359255D01*
X15977120Y2380210D01*
X16111105Y2420850D01*
X16269220Y2486890D01*
X16269220Y3347950D01*
X15603740Y3347950D01*
X15603740Y3071090D01*
X15961880Y3071090D01*
X15961880Y2682470D01*
X15836150Y2643100D01*
X15679940Y2631670D01*
X15545002Y2645005D01*
X15444990Y2685010D01*
X15374187Y2757082D01*
X15326880Y2866620D01*
X15300210Y3021878D01*
X15291320Y3231110D01*
X15299257Y3445105D01*
X15323070Y3604490D01*
X15365932Y3717520D01*
X15431020Y3792450D01*
X15523095Y3834360D01*
X15646920Y3848330D01*
X15825990Y3828010D01*
X15921240Y3760700D01*
X15959340Y3624810D01*
X16274300Y3624810D01*
X16251757Y3800070D01*
X16247119Y3812770D01*
X18047220Y3812770D01*
X18509500Y3812770D01*
X18509500Y2375130D01*
X18834620Y2375130D01*
X18834620Y3233650D01*
X19525500Y3233650D01*
X19532132Y3019443D01*
X19552029Y2840797D01*
X19585190Y2697710D01*
X19665835Y2537055D01*
X19788390Y2431010D01*
X19897469Y2387266D01*
X20033359Y2361019D01*
X20196060Y2352270D01*
X20358761Y2361019D01*
X20494651Y2387266D01*
X20603730Y2431010D01*
X20726285Y2537055D01*
X20806930Y2697710D01*
X20840091Y2840797D01*
X20846220Y2895830D01*
X22588740Y2895830D01*
X22597630Y2706600D01*
X22639540Y2565630D01*
X22719233Y2465935D01*
X22841470Y2400530D01*
X23015143Y2364335D01*
X23249140Y2352270D01*
X23476153Y2363065D01*
X23644110Y2395450D01*
X23762537Y2453870D01*
X23840960Y2542770D01*
X23884775Y2668500D01*
X23899380Y2837410D01*
X23887315Y2976158D01*
X23851120Y3087600D01*
X23786668Y3178088D01*
X23689830Y3253970D01*
X23552988Y3321915D01*
X23368520Y3388590D01*
X23155478Y3461933D01*
X23019270Y3524480D01*
X22921480Y3655290D01*
X22949420Y3774670D01*
X23042130Y3833090D01*
X23228820Y3850870D01*
X23410430Y3831820D01*
X23504410Y3768320D01*
X23541240Y3640050D01*
X23863820Y3640050D01*
X23851120Y3810865D01*
X23807940Y3937230D01*
X23730788Y4026130D01*
X23616170Y4084550D01*
X23527793Y4102330D01*
X24023840Y4102330D01*
X24229580Y2375130D01*
X24564860Y2375130D01*
X24762980Y3878810D01*
X24773140Y3878810D01*
X24968720Y2375130D01*
X25306540Y2375130D01*
X25667220Y2375130D01*
X25833449Y2363841D01*
X25983309Y2357068D01*
X26116800Y2354810D01*
X26320282Y2363559D01*
X26490462Y2389806D01*
X26627340Y2433550D01*
X26781645Y2538643D01*
X26883880Y2696440D01*
X26926213Y2835999D01*
X26951613Y3009142D01*
X26960080Y3215870D01*
X26952742Y3413567D01*
X26930729Y3579937D01*
X26894040Y3714980D01*
X26804823Y3871508D01*
X26669250Y3982950D01*
X26548882Y4035443D01*
X26399446Y4074390D01*
X26220940Y4099790D01*
X26099020Y4109315D01*
X25961860Y4112490D01*
X25822160Y4109950D01*
X25667220Y4102330D01*
X25667220Y2375130D01*
X25306540Y2375130D01*
X25512280Y4102330D01*
X25232880Y4102330D01*
X25131280Y2743430D01*
X25128740Y2743430D01*
X25108420Y3058390D01*
X24950940Y4102330D01*
X24585180Y4102330D01*
X24422620Y3058390D01*
X24404840Y2743430D01*
X24402300Y2743430D01*
X24303240Y4102330D01*
X24023840Y4102330D01*
X23527793Y4102330D01*
X23455198Y4116935D01*
X23238980Y4127730D01*
X23018318Y4117253D01*
X22854170Y4085820D01*
X22737965Y4029623D01*
X22661130Y3944850D01*
X22618268Y3825470D01*
X22603980Y3665450D01*
X22616045Y3540355D01*
X22652240Y3439390D01*
X22717328Y3356523D01*
X22816070Y3285720D01*
X22956088Y3221268D01*
X23145000Y3157450D01*
X23295813Y3108238D01*
X23407890Y3062200D01*
X23541240Y2964410D01*
X23581880Y2834870D01*
X23553940Y2709140D01*
X23458690Y2646910D01*
X23269460Y2629130D01*
X23145953Y2634845D01*
X23054830Y2651990D01*
X22946880Y2732000D01*
X22906240Y2895830D01*
X22588740Y2895830D01*
X20846220Y2895830D01*
X20859988Y3019443D01*
X20866620Y3233650D01*
X20859988Y3450961D01*
X20840091Y3632148D01*
X20806930Y3777210D01*
X20726285Y3940088D01*
X20603730Y4047720D01*
X20494651Y4092170D01*
X20358761Y4118840D01*
X20196060Y4127730D01*
X20033359Y4118840D01*
X19897469Y4092170D01*
X19788390Y4047720D01*
X19665835Y3940088D01*
X19585190Y3777210D01*
X19552029Y3632148D01*
X19532132Y3450961D01*
X19525500Y3233650D01*
X18834620Y3233650D01*
X18834620Y3812770D01*
X19296900Y3812770D01*
X19296900Y4102330D01*
X18047220Y4102330D01*
X18047220Y3812770D01*
X16247119Y3812770D01*
X16204450Y3929610D01*
X16126662Y4021050D01*
X16012680Y4082010D01*
X15854565Y4116300D01*
X15644380Y4127730D01*
X15481679Y4118840D01*
X15345789Y4092170D01*
X15236710Y4047720D01*
X15113837Y3940405D01*
X15032240Y3778480D01*
X14998373Y3634406D01*
X14978053Y3454489D01*
X14971280Y3238730D01*
X14563610Y3238730D01*
X14305800Y4102330D01*
X13894320Y4102330D01*
X13378700Y2375130D01*
X12738620Y2375130D01*
X12738620Y3812770D01*
X13200900Y3812770D01*
X13200900Y4102330D01*
X11951220Y4102330D01*
X11951220Y3812770D01*
X11598160Y3812770D01*
X11598160Y4102330D01*
X11275580Y4102330D01*
X11275580Y2898370D01*
X11251450Y2738350D01*
X11170170Y2658340D01*
X11008880Y2634210D01*
X10820920Y2686280D01*
X10772660Y2875510D01*
X10447540Y2875510D01*
X9910753Y2875510D01*
X9910753Y4656897D01*
G37*
G36*
X26091400Y3829915D02*
G01*
X26210780Y3820390D01*
X26357147Y3792768D01*
X26466050Y3745460D01*
X26543203Y3672435D01*
X26594320Y3567660D01*
X26622895Y3423833D01*
X26632420Y3233650D01*
X26622578Y3032673D01*
X26593050Y2881860D01*
X26540028Y2773593D01*
X26459700Y2700250D01*
X26346035Y2655800D01*
X26193000Y2634210D01*
X25992340Y2641830D01*
X25992340Y3833090D01*
X26091400Y3829915D01*
G37*
G36*
X20317345Y3834678D02*
G01*
X20406880Y3793720D01*
X20470063Y3720060D01*
X20512290Y3608300D01*
X20536102Y3449233D01*
X20544040Y3233650D01*
X20536102Y3024417D01*
X20512290Y2869160D01*
X20470063Y2759305D01*
X20406880Y2686280D01*
X20317345Y2645323D01*
X20196060Y2631670D01*
X20074457Y2645323D01*
X19983970Y2686280D01*
X19919835Y2759305D01*
X19877290Y2869160D01*
X19853478Y3024417D01*
X19845540Y3233650D01*
X19853478Y3447645D01*
X19877290Y3607030D01*
X19919835Y3719743D01*
X19983970Y3793720D01*
X20074457Y3834678D01*
X20196060Y3848330D01*
X20317345Y3834678D01*
G37*
G36*
X14298180Y3060930D02*
G01*
X13901940Y3060930D01*
X14097520Y3787370D01*
X14102600Y3787370D01*
X14298180Y3060930D01*
G37*
%TO.C,kibuzzard-6539E58F*%
G36*
X13476048Y17208923D02*
G01*
X17228898Y17208923D01*
X17228898Y15401077D01*
X13476048Y15401077D01*
X13476048Y16304048D01*
X13714173Y16304048D01*
X13719570Y16143287D01*
X13735763Y16008984D01*
X13762750Y15901140D01*
X13827759Y15779696D01*
X13925628Y15699210D01*
X14012623Y15665873D01*
X14121208Y15645870D01*
X14251383Y15639202D01*
X14368540Y15644441D01*
X14444307Y15656347D01*
X14859078Y15656347D01*
X15093393Y15656347D01*
X15093393Y16401203D01*
X15066723Y16671713D01*
X15072438Y16671713D01*
X15537258Y15656347D01*
X15834438Y15656347D01*
X16021128Y15656347D01*
X16145800Y15647881D01*
X16258195Y15642801D01*
X16358313Y15641108D01*
X16510925Y15647669D01*
X16638560Y15667354D01*
X16741218Y15700163D01*
X16856947Y15778982D01*
X16933623Y15897330D01*
X16965373Y16001999D01*
X16984423Y16131857D01*
X16990773Y16286903D01*
X16985270Y16435175D01*
X16968760Y16559953D01*
X16941243Y16661235D01*
X16874330Y16778631D01*
X16772650Y16862213D01*
X16682375Y16901583D01*
X16570297Y16930793D01*
X16436418Y16949843D01*
X16344978Y16956986D01*
X16242108Y16959368D01*
X16137333Y16957463D01*
X16021128Y16951748D01*
X16021128Y15656347D01*
X15834438Y15656347D01*
X15834438Y16951748D01*
X15600123Y16951748D01*
X15600123Y16206893D01*
X15626793Y15936382D01*
X15621078Y15936382D01*
X15156258Y16951748D01*
X14859078Y16951748D01*
X14859078Y15656347D01*
X14444307Y15656347D01*
X14468553Y15660157D01*
X14569042Y15690638D01*
X14687628Y15740168D01*
X14687628Y16385963D01*
X14188518Y16385963D01*
X14188518Y16178318D01*
X14457123Y16178318D01*
X14457123Y15886853D01*
X14362825Y15857325D01*
X14245668Y15848752D01*
X14144465Y15858754D01*
X14069455Y15888758D01*
X14016354Y15942812D01*
X13980873Y16024965D01*
X13960870Y16141408D01*
X13954203Y16298333D01*
X13960156Y16458829D01*
X13978015Y16578368D01*
X14010162Y16663140D01*
X14058978Y16719338D01*
X14128034Y16750770D01*
X14220903Y16761248D01*
X14355205Y16746008D01*
X14426643Y16695525D01*
X14455218Y16593608D01*
X14691438Y16593608D01*
X14674531Y16725053D01*
X14639050Y16822208D01*
X14580710Y16890788D01*
X14495223Y16936508D01*
X14376637Y16962225D01*
X14218998Y16970798D01*
X14096972Y16964130D01*
X13995055Y16944128D01*
X13913245Y16910790D01*
X13821091Y16830304D01*
X13759893Y16708860D01*
X13734493Y16600804D01*
X13719253Y16465867D01*
X13714173Y16304048D01*
X13476048Y16304048D01*
X13476048Y17208923D01*
G37*
G36*
X16339263Y16747436D02*
G01*
X16428798Y16740293D01*
X16538574Y16719576D01*
X16620250Y16684095D01*
X16678115Y16629326D01*
X16716453Y16550745D01*
X16737884Y16442874D01*
X16745028Y16300238D01*
X16737646Y16149504D01*
X16715501Y16036395D01*
X16675734Y15955194D01*
X16615488Y15900188D01*
X16530239Y15866850D01*
X16415463Y15850658D01*
X16264968Y15856373D01*
X16264968Y16749818D01*
X16339263Y16747436D01*
G37*
%TO.C,kibuzzard-6539E162*%
G36*
X11473875Y29313141D02*
G01*
X11548488Y29307188D01*
X11639967Y29289923D01*
X11708031Y29260356D01*
X11756252Y29214716D01*
X11788200Y29149231D01*
X11806059Y29059339D01*
X11812013Y28940475D01*
X11805861Y28814864D01*
X11787406Y28720606D01*
X11754267Y28652939D01*
X11704063Y28607100D01*
X11633022Y28579319D01*
X11537375Y28565825D01*
X11411963Y28570587D01*
X11411963Y29315125D01*
X11473875Y29313141D01*
G37*
G36*
X12426375Y29313141D02*
G01*
X12500988Y29307188D01*
X12592467Y29289923D01*
X12660531Y29260356D01*
X12708752Y29214716D01*
X12740700Y29149231D01*
X12758559Y29059339D01*
X12764513Y28940475D01*
X12758361Y28814864D01*
X12739906Y28720606D01*
X12706767Y28652939D01*
X12656563Y28607100D01*
X12585522Y28579319D01*
X12489875Y28565825D01*
X12364463Y28570587D01*
X12364463Y29315125D01*
X12426375Y29313141D01*
G37*
G36*
X10002262Y29688188D02*
G01*
X13167738Y29688188D01*
X13167738Y28192762D01*
X10002262Y28192762D01*
X10002262Y29483400D01*
X10200700Y29483400D01*
X10521375Y28403900D01*
X10770613Y28403900D01*
X11208763Y28403900D01*
X11312656Y28396844D01*
X11406318Y28392611D01*
X11489750Y28391200D01*
X11616926Y28396668D01*
X11663818Y28403900D01*
X12161263Y28403900D01*
X12265156Y28396844D01*
X12358818Y28392611D01*
X12442250Y28391200D01*
X12569426Y28396668D01*
X12675789Y28413072D01*
X12761338Y28440412D01*
X12857778Y28506095D01*
X12921675Y28604719D01*
X12948133Y28691943D01*
X12964008Y28800158D01*
X12969300Y28929362D01*
X12964714Y29052923D01*
X12950956Y29156904D01*
X12928025Y29241306D01*
X12872264Y29339136D01*
X12787531Y29408788D01*
X12712301Y29441596D01*
X12618903Y29465938D01*
X12507338Y29481812D01*
X12431138Y29487766D01*
X12345413Y29489750D01*
X12258100Y29488163D01*
X12161263Y29483400D01*
X12161263Y28403900D01*
X11663818Y28403900D01*
X11723289Y28413072D01*
X11808838Y28440412D01*
X11905278Y28506095D01*
X11969175Y28604719D01*
X11995633Y28691943D01*
X12011508Y28800158D01*
X12016800Y28929362D01*
X12012214Y29052923D01*
X11998456Y29156904D01*
X11975525Y29241306D01*
X11919764Y29339136D01*
X11835031Y29408788D01*
X11759801Y29441596D01*
X11666403Y29465938D01*
X11554838Y29481812D01*
X11478638Y29487766D01*
X11392913Y29489750D01*
X11305600Y29488163D01*
X11208763Y29483400D01*
X11208763Y28403900D01*
X10770613Y28403900D01*
X11091288Y29483400D01*
X10884913Y29483400D01*
X10649963Y28642025D01*
X10642025Y28642025D01*
X10407075Y29483400D01*
X10200700Y29483400D01*
X10002262Y29483400D01*
X10002262Y29688188D01*
G37*
%TO.C,kibuzzard-6539E918*%
G36*
X13476048Y19753923D02*
G01*
X19510453Y19753923D01*
X19510453Y17946077D01*
X13476048Y17946077D01*
X13476048Y18591873D01*
X13719889Y18591873D01*
X13726556Y18449950D01*
X13757988Y18344223D01*
X13817758Y18269451D01*
X13909436Y18220397D01*
X14039690Y18193251D01*
X14215188Y18184202D01*
X14385448Y18192299D01*
X14511416Y18216588D01*
X14600237Y18260403D01*
X14659053Y18327078D01*
X14691915Y18421375D01*
X14702868Y18548058D01*
X14693820Y18652118D01*
X14666673Y18735700D01*
X14618334Y18803566D01*
X14545706Y18860478D01*
X14443074Y18911436D01*
X14304723Y18961443D01*
X14144942Y19016449D01*
X14042786Y19063360D01*
X13969443Y19161468D01*
X13990398Y19251003D01*
X14059931Y19294818D01*
X14199948Y19308153D01*
X14336156Y19293865D01*
X14406641Y19246240D01*
X14434264Y19150038D01*
X14676198Y19150038D01*
X14666673Y19278149D01*
X14634288Y19372923D01*
X14576424Y19439598D01*
X14490461Y19483413D01*
X14424176Y19496748D01*
X14796213Y19496748D01*
X14950518Y18201347D01*
X15201978Y18201347D01*
X15350568Y19329108D01*
X15358188Y19329108D01*
X15504874Y18201347D01*
X15758239Y18201347D01*
X15835165Y18847143D01*
X16034463Y18847143D01*
X16039543Y18686487D01*
X16054783Y18552503D01*
X16080183Y18445188D01*
X16141620Y18324458D01*
X16234489Y18244210D01*
X16317250Y18210873D01*
X16420755Y18190870D01*
X16545004Y18184202D01*
X16697165Y18192537D01*
X16737188Y18201347D01*
X18316654Y18201347D01*
X18558589Y18201347D01*
X18558589Y18818568D01*
X19032934Y18201347D01*
X19335829Y18201347D01*
X18798619Y18858573D01*
X18798619Y18864288D01*
X19263439Y19496748D01*
X18983404Y19496748D01*
X18558589Y18902388D01*
X18558589Y19496748D01*
X18316654Y19496748D01*
X18316654Y18201347D01*
X16737188Y18201347D01*
X16745847Y18203253D01*
X17225089Y18203253D01*
X18124249Y18203253D01*
X18124249Y18416613D01*
X17468929Y18416613D01*
X17468929Y19496748D01*
X17225089Y19496748D01*
X17225089Y18203253D01*
X16745847Y18203253D01*
X16810751Y18217540D01*
X16892428Y18262784D01*
X16948864Y18331840D01*
X16984106Y18429709D01*
X17002203Y18561393D01*
X16764078Y18561393D01*
X16703118Y18427090D01*
X16640730Y18400658D01*
X16545004Y18391847D01*
X16452135Y18402087D01*
X16383079Y18432805D01*
X16334263Y18487812D01*
X16302116Y18570917D01*
X16284257Y18688551D01*
X16278304Y18847143D01*
X16284257Y19007639D01*
X16302116Y19127178D01*
X16334263Y19211712D01*
X16383079Y19267195D01*
X16452135Y19297913D01*
X16545004Y19308153D01*
X16631681Y19298628D01*
X16689783Y19270053D01*
X16727407Y19215284D01*
X16752649Y19127178D01*
X16990774Y19127178D01*
X16976010Y19262194D01*
X16943148Y19362445D01*
X16888380Y19433406D01*
X16807893Y19480555D01*
X16695499Y19506987D01*
X16545004Y19515798D01*
X16420755Y19509130D01*
X16317250Y19489128D01*
X16234489Y19455790D01*
X16141620Y19375066D01*
X16080183Y19252908D01*
X16054783Y19144323D01*
X16039543Y19009068D01*
X16034463Y18847143D01*
X15835165Y18847143D01*
X15912544Y19496748D01*
X15702993Y19496748D01*
X15626793Y18477573D01*
X15624889Y18477573D01*
X15609649Y18713793D01*
X15491539Y19496748D01*
X15217218Y19496748D01*
X15095298Y18713793D01*
X15081963Y18477573D01*
X15080059Y18477573D01*
X15005764Y19496748D01*
X14796213Y19496748D01*
X14424176Y19496748D01*
X14369732Y19507701D01*
X14207568Y19515798D01*
X14042072Y19507939D01*
X13918961Y19484365D01*
X13831807Y19442217D01*
X13774181Y19378638D01*
X13742034Y19289103D01*
X13731318Y19169088D01*
X13740367Y19075266D01*
X13767513Y18999543D01*
X13816329Y18937392D01*
X13890386Y18884290D01*
X13995399Y18835951D01*
X14137083Y18788088D01*
X14250193Y18751178D01*
X14334251Y18716650D01*
X14434264Y18643308D01*
X14464743Y18546153D01*
X14443788Y18451855D01*
X14372351Y18405183D01*
X14230428Y18391847D01*
X14137798Y18396134D01*
X14069456Y18408993D01*
X13988493Y18469000D01*
X13958013Y18591873D01*
X13719889Y18591873D01*
X13476048Y18591873D01*
X13476048Y19753923D01*
G37*
%TO.C,kibuzzard-6539E1A4*%
G36*
X404669Y24960125D02*
G01*
X404669Y26049150D01*
X603107Y26049150D01*
X603107Y25842775D01*
X1444482Y25607825D01*
X1444482Y25599887D01*
X603107Y25364937D01*
X603107Y25158562D01*
X1682607Y25479237D01*
X1682607Y25728475D01*
X603107Y26049150D01*
X404669Y26049150D01*
X404669Y26166625D01*
X603107Y26166625D01*
X784082Y26166625D01*
X784082Y26455550D01*
X1682607Y26455550D01*
X1682607Y26658750D01*
X784082Y26658750D01*
X784082Y26947675D01*
X603107Y26947675D01*
X603107Y26166625D01*
X404669Y26166625D01*
X404669Y27638238D01*
X845994Y27638238D01*
X853932Y27533463D01*
X893619Y27479487D01*
X942038Y27445753D01*
X1023794Y27395350D01*
X1023794Y27377888D01*
X853932Y27385825D01*
X853932Y27211200D01*
X1682607Y27211200D01*
X1682607Y27401700D01*
X1274620Y27401700D01*
X1175401Y27425513D01*
X1087295Y27485838D01*
X1046019Y27554100D01*
X1040066Y27635063D01*
X1038082Y27744600D01*
X1039669Y27841438D01*
X849169Y27841438D01*
X846788Y27743013D01*
X845994Y27638238D01*
X404669Y27638238D01*
X404669Y28039875D01*
X1881045Y28039875D01*
X1881045Y24960125D01*
X404669Y24960125D01*
G37*
%TO.C,J3*%
X21195000Y18860000D02*
X21195000Y20190000D01*
X21195000Y17590000D02*
X23855000Y17590000D01*
X21195000Y9910000D02*
X23855000Y9910000D01*
X23855000Y17590000D02*
X23855000Y9910000D01*
X21195000Y17590000D02*
X21195000Y9910000D01*
X21195000Y20190000D02*
X22525000Y20190000D01*
%TO.C,kibuzzard-6539E581*%
G36*
X13476048Y22297255D02*
G01*
X17274618Y22297255D01*
X17274618Y20502745D01*
X13476048Y20502745D01*
X13476048Y22051510D01*
X13714173Y22051510D01*
X14098983Y20756110D01*
X14398068Y20756110D01*
X14923848Y20756110D01*
X15048520Y20747643D01*
X15160915Y20742563D01*
X15261033Y20740870D01*
X15413645Y20747432D01*
X15469912Y20756110D01*
X16066848Y20756110D01*
X16191520Y20747643D01*
X16303915Y20742563D01*
X16404033Y20740870D01*
X16556645Y20747432D01*
X16684280Y20767117D01*
X16786938Y20799925D01*
X16902667Y20878744D01*
X16979343Y20997093D01*
X17011093Y21101762D01*
X17030143Y21231619D01*
X17036493Y21386665D01*
X17030990Y21534937D01*
X17014480Y21659715D01*
X16986963Y21760998D01*
X16920050Y21878393D01*
X16818371Y21961975D01*
X16728095Y22001345D01*
X16616017Y22030555D01*
X16482138Y22049605D01*
X16390698Y22056749D01*
X16287828Y22059130D01*
X16183053Y22057225D01*
X16066848Y22051510D01*
X16066848Y20756110D01*
X15469912Y20756110D01*
X15541280Y20767117D01*
X15643938Y20799925D01*
X15759667Y20878744D01*
X15836343Y20997093D01*
X15868093Y21101762D01*
X15887143Y21231619D01*
X15893493Y21386665D01*
X15887990Y21534937D01*
X15871480Y21659715D01*
X15843963Y21760998D01*
X15777050Y21878393D01*
X15675371Y21961975D01*
X15585095Y22001345D01*
X15473017Y22030555D01*
X15339138Y22049605D01*
X15247698Y22056749D01*
X15144828Y22059130D01*
X15040053Y22057225D01*
X14923848Y22051510D01*
X14923848Y20756110D01*
X14398068Y20756110D01*
X14782878Y22051510D01*
X14535228Y22051510D01*
X14253288Y21041860D01*
X14243763Y21041860D01*
X13961823Y22051510D01*
X13714173Y22051510D01*
X13476048Y22051510D01*
X13476048Y22297255D01*
G37*
G36*
X15241983Y21847199D02*
G01*
X15331518Y21840055D01*
X15441294Y21819338D01*
X15522971Y21783858D01*
X15580835Y21729089D01*
X15619173Y21650508D01*
X15640604Y21542637D01*
X15647748Y21400000D01*
X15640366Y21249267D01*
X15618221Y21136157D01*
X15578454Y21054957D01*
X15518208Y20999950D01*
X15432959Y20966613D01*
X15318183Y20950420D01*
X15167688Y20956135D01*
X15167688Y21849580D01*
X15241983Y21847199D01*
G37*
G36*
X16384983Y21847199D02*
G01*
X16474518Y21840055D01*
X16584294Y21819338D01*
X16665971Y21783858D01*
X16723835Y21729089D01*
X16762173Y21650508D01*
X16783604Y21542637D01*
X16790748Y21400000D01*
X16783366Y21249267D01*
X16761221Y21136157D01*
X16721454Y21054957D01*
X16661208Y20999950D01*
X16575959Y20966613D01*
X16461183Y20950420D01*
X16310688Y20956135D01*
X16310688Y21849580D01*
X16384983Y21847199D01*
G37*
%TO.C,kibuzzard-6539E628*%
G36*
X27144263Y11682436D02*
G01*
X27233798Y11675293D01*
X27343574Y11654576D01*
X27425250Y11619095D01*
X27483115Y11564326D01*
X27521453Y11485745D01*
X27542884Y11377874D01*
X27550028Y11235238D01*
X27542646Y11084504D01*
X27520501Y10971395D01*
X27480734Y10890194D01*
X27420488Y10835188D01*
X27335239Y10801850D01*
X27220463Y10785658D01*
X27069968Y10791373D01*
X27069968Y11684818D01*
X27144263Y11682436D01*
G37*
G36*
X24281048Y12143923D02*
G01*
X28033898Y12143923D01*
X28033898Y10336077D01*
X24281048Y10336077D01*
X24281048Y11239048D01*
X24519173Y11239048D01*
X24524570Y11078287D01*
X24540763Y10943984D01*
X24567750Y10836140D01*
X24632759Y10714696D01*
X24730628Y10634210D01*
X24817623Y10600873D01*
X24926208Y10580870D01*
X25056383Y10574202D01*
X25173540Y10579441D01*
X25249307Y10591347D01*
X25664078Y10591347D01*
X25898393Y10591347D01*
X25898393Y11336203D01*
X25871723Y11606713D01*
X25877438Y11606713D01*
X26342258Y10591347D01*
X26639438Y10591347D01*
X26826128Y10591347D01*
X26950800Y10582881D01*
X27063195Y10577801D01*
X27163313Y10576108D01*
X27315925Y10582669D01*
X27443560Y10602354D01*
X27546218Y10635163D01*
X27661947Y10713982D01*
X27738623Y10832330D01*
X27770373Y10936999D01*
X27789423Y11066857D01*
X27795773Y11221903D01*
X27790270Y11370175D01*
X27773760Y11494953D01*
X27746243Y11596235D01*
X27679330Y11713631D01*
X27577650Y11797213D01*
X27487375Y11836583D01*
X27375297Y11865793D01*
X27241418Y11884843D01*
X27149978Y11891986D01*
X27047108Y11894368D01*
X26942333Y11892463D01*
X26826128Y11886748D01*
X26826128Y10591347D01*
X26639438Y10591347D01*
X26639438Y11886748D01*
X26405123Y11886748D01*
X26405123Y11141893D01*
X26431793Y10871382D01*
X26426078Y10871382D01*
X25961258Y11886748D01*
X25664078Y11886748D01*
X25664078Y10591347D01*
X25249307Y10591347D01*
X25273553Y10595157D01*
X25374042Y10625638D01*
X25492628Y10675168D01*
X25492628Y11320963D01*
X24993518Y11320963D01*
X24993518Y11113318D01*
X25262123Y11113318D01*
X25262123Y10821853D01*
X25167825Y10792325D01*
X25050668Y10783752D01*
X24949465Y10793754D01*
X24874455Y10823758D01*
X24821354Y10877812D01*
X24785873Y10959965D01*
X24765870Y11076408D01*
X24759203Y11233333D01*
X24765156Y11393829D01*
X24783015Y11513368D01*
X24815162Y11598140D01*
X24863978Y11654338D01*
X24933034Y11685770D01*
X25025903Y11696248D01*
X25160205Y11681008D01*
X25231643Y11630525D01*
X25260218Y11528608D01*
X25496438Y11528608D01*
X25479531Y11660053D01*
X25444050Y11757208D01*
X25385710Y11825788D01*
X25300223Y11871508D01*
X25181637Y11897225D01*
X25023998Y11905798D01*
X24901972Y11899130D01*
X24800055Y11879128D01*
X24718245Y11845790D01*
X24626091Y11765304D01*
X24564893Y11643860D01*
X24539493Y11535804D01*
X24524253Y11400867D01*
X24519173Y11239048D01*
X24281048Y11239048D01*
X24281048Y12143923D01*
G37*
%TO.C,J4*%
X15500000Y27780000D02*
X15500000Y26450000D01*
X14170000Y27780000D02*
X15500000Y27780000D01*
X12900000Y25120000D02*
X7760000Y25120000D01*
X12900000Y27780000D02*
X7760000Y27780000D01*
X7760000Y27780000D02*
X7760000Y25120000D01*
X12900000Y27780000D02*
X12900000Y25120000D01*
%TO.C,kibuzzard-6539E7D0*%
G36*
X16588342Y9116008D02*
G01*
X16655494Y9085290D01*
X16702880Y9030045D01*
X16734551Y8946225D01*
X16752410Y8826924D01*
X16758363Y8665238D01*
X16752410Y8508313D01*
X16734551Y8391870D01*
X16702880Y8309479D01*
X16655494Y8254710D01*
X16588342Y8223992D01*
X16497379Y8213752D01*
X16406177Y8223992D01*
X16338311Y8254710D01*
X16290210Y8309479D01*
X16258301Y8391870D01*
X16240442Y8508313D01*
X16234489Y8665238D01*
X16240442Y8825734D01*
X16258301Y8945273D01*
X16290210Y9029807D01*
X16338311Y9085290D01*
X16406177Y9116008D01*
X16497379Y9126248D01*
X16588342Y9116008D01*
G37*
G36*
X13476048Y9573923D02*
G01*
X17238424Y9573923D01*
X17238424Y7766077D01*
X13476048Y7766077D01*
X13476048Y8411873D01*
X13719888Y8411873D01*
X13726556Y8269950D01*
X13757988Y8164223D01*
X13817758Y8089451D01*
X13909436Y8040397D01*
X14039690Y8013251D01*
X14215189Y8004202D01*
X14385448Y8012299D01*
X14432373Y8021347D01*
X14885749Y8021347D01*
X15010420Y8012881D01*
X15122815Y8007801D01*
X15222934Y8006108D01*
X15375545Y8012669D01*
X15503180Y8032354D01*
X15605839Y8065163D01*
X15721567Y8143982D01*
X15798244Y8262330D01*
X15829993Y8366999D01*
X15849044Y8496857D01*
X15855394Y8651903D01*
X15854899Y8665238D01*
X15994459Y8665238D01*
X15999433Y8504582D01*
X16014355Y8370597D01*
X16039226Y8263283D01*
X16099710Y8142791D01*
X16191626Y8063257D01*
X16273435Y8030449D01*
X16375353Y8010764D01*
X16497379Y8004202D01*
X16619404Y8010764D01*
X16721322Y8030449D01*
X16803131Y8063257D01*
X16895047Y8142791D01*
X16955531Y8263283D01*
X16980402Y8370597D01*
X16995324Y8504582D01*
X17000298Y8665238D01*
X16995324Y8828221D01*
X16980402Y8964111D01*
X16955531Y9072908D01*
X16895047Y9195066D01*
X16803131Y9275790D01*
X16721322Y9309128D01*
X16619404Y9329130D01*
X16497379Y9335798D01*
X16375353Y9329130D01*
X16273435Y9309128D01*
X16191626Y9275790D01*
X16099710Y9195066D01*
X16039226Y9072908D01*
X16014355Y8964111D01*
X15999433Y8828221D01*
X15994459Y8665238D01*
X15854899Y8665238D01*
X15849890Y8800175D01*
X15833380Y8924953D01*
X15805864Y9026235D01*
X15738950Y9143631D01*
X15637271Y9227213D01*
X15546995Y9266583D01*
X15434918Y9295793D01*
X15301039Y9314843D01*
X15209599Y9321986D01*
X15106729Y9324368D01*
X15001954Y9322463D01*
X14885749Y9316748D01*
X14885749Y8021347D01*
X14432373Y8021347D01*
X14511416Y8036588D01*
X14600237Y8080403D01*
X14659054Y8147078D01*
X14691915Y8241375D01*
X14702868Y8368058D01*
X14693820Y8472118D01*
X14666673Y8555700D01*
X14618334Y8623566D01*
X14545706Y8680478D01*
X14443074Y8731436D01*
X14304723Y8781443D01*
X14144942Y8836449D01*
X14042786Y8883360D01*
X13969443Y8981468D01*
X13990398Y9071003D01*
X14059931Y9114818D01*
X14199949Y9128153D01*
X14336156Y9113865D01*
X14406641Y9066240D01*
X14434264Y8970038D01*
X14676199Y8970038D01*
X14666673Y9098149D01*
X14634288Y9192923D01*
X14576424Y9259598D01*
X14490461Y9303413D01*
X14369732Y9327701D01*
X14207569Y9335798D01*
X14042072Y9327939D01*
X13918961Y9304365D01*
X13831807Y9262217D01*
X13774181Y9198638D01*
X13742034Y9109103D01*
X13731318Y8989088D01*
X13740367Y8895266D01*
X13767513Y8819543D01*
X13816329Y8757392D01*
X13890386Y8704290D01*
X13995399Y8655951D01*
X14137083Y8608088D01*
X14250193Y8571178D01*
X14334251Y8536650D01*
X14434264Y8463308D01*
X14464743Y8366153D01*
X14443788Y8271855D01*
X14372351Y8225183D01*
X14230428Y8211847D01*
X14137798Y8216134D01*
X14069456Y8228993D01*
X13988493Y8289000D01*
X13958013Y8411873D01*
X13719888Y8411873D01*
X13476048Y8411873D01*
X13476048Y9573923D01*
G37*
G36*
X15203884Y9112436D02*
G01*
X15293419Y9105293D01*
X15403194Y9084576D01*
X15484871Y9049095D01*
X15542735Y8994326D01*
X15581074Y8915745D01*
X15602505Y8807874D01*
X15609649Y8665238D01*
X15602267Y8514504D01*
X15580121Y8401395D01*
X15540354Y8320194D01*
X15480109Y8265188D01*
X15394860Y8231850D01*
X15280084Y8215658D01*
X15129589Y8221373D01*
X15129589Y9114818D01*
X15203884Y9112436D01*
G37*
%TO.C,kibuzzard-6539E616*%
G36*
X27151883Y16762436D02*
G01*
X27241418Y16755293D01*
X27351193Y16734576D01*
X27432870Y16699095D01*
X27490734Y16644326D01*
X27529073Y16565745D01*
X27550504Y16457874D01*
X27557648Y16315238D01*
X27550266Y16164504D01*
X27528120Y16051395D01*
X27488353Y15970194D01*
X27428108Y15915188D01*
X27342859Y15881850D01*
X27228083Y15865658D01*
X27077588Y15871373D01*
X27077588Y16764818D01*
X27151883Y16762436D01*
G37*
G36*
X29679341Y16766008D02*
G01*
X29746493Y16735290D01*
X29793879Y16680045D01*
X29825550Y16596225D01*
X29843409Y16476924D01*
X29849363Y16315238D01*
X29843409Y16158313D01*
X29825550Y16041870D01*
X29793879Y15959479D01*
X29746493Y15904710D01*
X29679341Y15873992D01*
X29588378Y15863752D01*
X29497176Y15873992D01*
X29429310Y15904710D01*
X29381209Y15959479D01*
X29349300Y16041870D01*
X29331441Y16158313D01*
X29325488Y16315238D01*
X29331441Y16475734D01*
X29349300Y16595273D01*
X29381209Y16679807D01*
X29429310Y16735290D01*
X29497176Y16766008D01*
X29588378Y16776248D01*
X29679341Y16766008D01*
G37*
G36*
X24281048Y17223923D02*
G01*
X30329423Y17223923D01*
X30329423Y15416077D01*
X24281048Y15416077D01*
X24281048Y16061873D01*
X24524888Y16061873D01*
X24531555Y15919950D01*
X24562988Y15814223D01*
X24622757Y15739451D01*
X24714435Y15690397D01*
X24844689Y15663251D01*
X25020188Y15654202D01*
X25190447Y15662299D01*
X25316415Y15686588D01*
X25405236Y15730403D01*
X25464053Y15797078D01*
X25496914Y15891375D01*
X25507868Y16018058D01*
X25498819Y16122118D01*
X25471673Y16205700D01*
X25423333Y16273566D01*
X25350705Y16330478D01*
X25248073Y16381436D01*
X25109722Y16431443D01*
X24949941Y16486449D01*
X24847785Y16533360D01*
X24774443Y16631468D01*
X24795398Y16721003D01*
X24864930Y16764818D01*
X25004948Y16778153D01*
X25141155Y16763865D01*
X25211640Y16716240D01*
X25239263Y16620038D01*
X25481198Y16620038D01*
X25471673Y16748149D01*
X25439288Y16842923D01*
X25381423Y16909598D01*
X25295460Y16953413D01*
X25229175Y16966748D01*
X25601213Y16966748D01*
X25755518Y15671347D01*
X26006978Y15671347D01*
X26155568Y16799108D01*
X26163188Y16799108D01*
X26309873Y15671347D01*
X26563238Y15671347D01*
X26833748Y15671347D01*
X26958419Y15662881D01*
X27070814Y15657801D01*
X27170933Y15656108D01*
X27323544Y15662669D01*
X27379811Y15671347D01*
X28087238Y15671347D01*
X28801613Y15671347D01*
X28801613Y15882803D01*
X28563488Y15882803D01*
X28563488Y16315238D01*
X29085458Y16315238D01*
X29090432Y16154582D01*
X29105354Y16020597D01*
X29130225Y15913283D01*
X29190709Y15792791D01*
X29282625Y15713257D01*
X29364434Y15680449D01*
X29466352Y15660764D01*
X29588378Y15654202D01*
X29710403Y15660764D01*
X29812321Y15680449D01*
X29894130Y15713257D01*
X29986046Y15792791D01*
X30046530Y15913283D01*
X30071401Y16020597D01*
X30086323Y16154582D01*
X30091298Y16315238D01*
X30086323Y16478221D01*
X30071401Y16614111D01*
X30046530Y16722908D01*
X29986046Y16845066D01*
X29894130Y16925790D01*
X29812321Y16959128D01*
X29710403Y16979130D01*
X29588378Y16985798D01*
X29466352Y16979130D01*
X29364434Y16959128D01*
X29282625Y16925790D01*
X29190709Y16845066D01*
X29130225Y16722908D01*
X29105354Y16614111D01*
X29090432Y16478221D01*
X29085458Y16315238D01*
X28563488Y16315238D01*
X28563488Y16755293D01*
X28788278Y16755293D01*
X28788278Y16966748D01*
X28100573Y16966748D01*
X28100573Y16755293D01*
X28325363Y16755293D01*
X28325363Y15882803D01*
X28087238Y15882803D01*
X28087238Y15671347D01*
X27379811Y15671347D01*
X27451179Y15682354D01*
X27553838Y15715163D01*
X27669566Y15793982D01*
X27746243Y15912330D01*
X27777993Y16016999D01*
X27797043Y16146857D01*
X27803393Y16301903D01*
X27797889Y16450175D01*
X27781379Y16574953D01*
X27753863Y16676235D01*
X27686949Y16793631D01*
X27585270Y16877213D01*
X27494994Y16916583D01*
X27382917Y16945793D01*
X27249038Y16964843D01*
X27157598Y16971986D01*
X27054728Y16974368D01*
X26949953Y16972463D01*
X26833748Y16966748D01*
X26833748Y15671347D01*
X26563238Y15671347D01*
X26717543Y16966748D01*
X26507993Y16966748D01*
X26431793Y15947573D01*
X26429888Y15947573D01*
X26414648Y16183793D01*
X26296538Y16966748D01*
X26022218Y16966748D01*
X25900298Y16183793D01*
X25886963Y15947573D01*
X25885058Y15947573D01*
X25810763Y16966748D01*
X25601213Y16966748D01*
X25229175Y16966748D01*
X25174731Y16977701D01*
X25012568Y16985798D01*
X24847071Y16977939D01*
X24723960Y16954365D01*
X24636806Y16912217D01*
X24579180Y16848638D01*
X24547033Y16759103D01*
X24536318Y16639088D01*
X24545366Y16545266D01*
X24572512Y16469543D01*
X24621328Y16407392D01*
X24695385Y16354290D01*
X24800398Y16305951D01*
X24942083Y16258088D01*
X25055192Y16221178D01*
X25139250Y16186650D01*
X25239263Y16113308D01*
X25269743Y16016153D01*
X25248788Y15921855D01*
X25177350Y15875183D01*
X25035428Y15861847D01*
X24942797Y15866134D01*
X24874455Y15878993D01*
X24793493Y15939000D01*
X24763013Y16061873D01*
X24524888Y16061873D01*
X24281048Y16061873D01*
X24281048Y17223923D01*
G37*
%TO.C,kibuzzard-6539E1A4*%
G36*
X13610125Y29688188D02*
G01*
X16689875Y29688188D01*
X16689875Y28211812D01*
X13610125Y28211812D01*
X13610125Y29489750D01*
X13808562Y29489750D01*
X14129237Y28410250D01*
X14378475Y28410250D01*
X14645390Y29308775D01*
X14816625Y29308775D01*
X15105550Y29308775D01*
X15105550Y28410250D01*
X15308750Y28410250D01*
X15861200Y28410250D01*
X16051700Y28410250D01*
X16051700Y28818237D01*
X16075513Y28917456D01*
X16135838Y29005562D01*
X16204100Y29046838D01*
X16285063Y29052791D01*
X16394600Y29054775D01*
X16491438Y29053188D01*
X16491438Y29243688D01*
X16393013Y29246069D01*
X16288238Y29246863D01*
X16183463Y29238925D01*
X16129487Y29199238D01*
X16095753Y29150819D01*
X16045350Y29069063D01*
X16027888Y29069063D01*
X16035825Y29238925D01*
X15861200Y29238925D01*
X15861200Y28410250D01*
X15308750Y28410250D01*
X15308750Y29308775D01*
X15597675Y29308775D01*
X15597675Y29489750D01*
X14816625Y29489750D01*
X14816625Y29308775D01*
X14645390Y29308775D01*
X14699150Y29489750D01*
X14492775Y29489750D01*
X14257825Y28648375D01*
X14249887Y28648375D01*
X14014937Y29489750D01*
X13808562Y29489750D01*
X13610125Y29489750D01*
X13610125Y29688188D01*
G37*
%TO.C,kibuzzard-6539E4EE*%
G36*
X22501910Y28444575D02*
G01*
X27498090Y28444575D01*
X27498090Y26355425D01*
X22501910Y26355425D01*
X22501910Y28047700D01*
X22898785Y28047700D01*
X23283595Y26752300D01*
X23582680Y26752300D01*
X23807341Y27508585D01*
X24169420Y27508585D01*
X24512320Y27720040D01*
X24586615Y27781000D01*
X24578995Y27662890D01*
X24578995Y26752300D01*
X24815215Y26752300D01*
X25413385Y26752300D01*
X25775335Y26752300D01*
X25775335Y27100915D01*
X25413385Y27100915D01*
X25413385Y26752300D01*
X24815215Y26752300D01*
X24815215Y27508585D01*
X26455420Y27508585D01*
X26798320Y27720040D01*
X26872615Y27781000D01*
X26864995Y27662890D01*
X26864995Y26752300D01*
X27101215Y26752300D01*
X27101215Y28047700D01*
X26864995Y28047700D01*
X26455420Y27760045D01*
X26455420Y27508585D01*
X24815215Y27508585D01*
X24815215Y28047700D01*
X24578995Y28047700D01*
X24169420Y27760045D01*
X24169420Y27508585D01*
X23807341Y27508585D01*
X23967490Y28047700D01*
X23719840Y28047700D01*
X23437900Y27038050D01*
X23428375Y27038050D01*
X23146435Y28047700D01*
X22898785Y28047700D01*
X22501910Y28047700D01*
X22501910Y28444575D01*
G37*
%TO.C,kibuzzard-6539E8AF*%
G36*
X24281048Y14683923D02*
G01*
X30331328Y14683923D01*
X30331328Y12876077D01*
X24281048Y12876077D01*
X24281048Y13521873D01*
X24524888Y13521873D01*
X24531556Y13379950D01*
X24562988Y13274223D01*
X24622757Y13199451D01*
X24714436Y13150397D01*
X24844690Y13123251D01*
X25020188Y13114202D01*
X25190447Y13122299D01*
X25316416Y13146588D01*
X25405236Y13190403D01*
X25464053Y13257078D01*
X25496914Y13351375D01*
X25507868Y13478058D01*
X25498819Y13582118D01*
X25471673Y13665700D01*
X25423334Y13733566D01*
X25350706Y13790478D01*
X25248074Y13841436D01*
X25109723Y13891443D01*
X24949941Y13946449D01*
X24847786Y13993360D01*
X24774443Y14091468D01*
X24795398Y14181003D01*
X24864931Y14224818D01*
X25004948Y14238153D01*
X25141156Y14223865D01*
X25211641Y14176240D01*
X25239263Y14080038D01*
X25481198Y14080038D01*
X25471673Y14208149D01*
X25439288Y14302923D01*
X25381424Y14369598D01*
X25295461Y14413413D01*
X25229176Y14426748D01*
X25601213Y14426748D01*
X25755518Y13131347D01*
X26006978Y13131347D01*
X26155568Y14259108D01*
X26163188Y14259108D01*
X26309873Y13131347D01*
X26563238Y13131347D01*
X26640164Y13777143D01*
X26839463Y13777143D01*
X26844543Y13616487D01*
X26859783Y13482503D01*
X26885183Y13375188D01*
X26946619Y13254458D01*
X27039488Y13174210D01*
X27122250Y13140873D01*
X27225755Y13120870D01*
X27350003Y13114202D01*
X27502165Y13122537D01*
X27542188Y13131347D01*
X29121653Y13131347D01*
X29363588Y13131347D01*
X29363588Y13748568D01*
X29837933Y13131347D01*
X30140828Y13131347D01*
X29603618Y13788573D01*
X29603618Y13794288D01*
X30068438Y14426748D01*
X29788403Y14426748D01*
X29363588Y13832388D01*
X29363588Y14426748D01*
X29121653Y14426748D01*
X29121653Y13131347D01*
X27542188Y13131347D01*
X27550847Y13133253D01*
X28030088Y13133253D01*
X28929248Y13133253D01*
X28929248Y13346613D01*
X28273928Y13346613D01*
X28273928Y14426748D01*
X28030088Y14426748D01*
X28030088Y13133253D01*
X27550847Y13133253D01*
X27615751Y13147540D01*
X27697427Y13192784D01*
X27753863Y13261840D01*
X27789106Y13359709D01*
X27807203Y13491393D01*
X27569078Y13491393D01*
X27508118Y13357090D01*
X27445729Y13330658D01*
X27350003Y13321847D01*
X27257134Y13332087D01*
X27188078Y13362805D01*
X27139262Y13417812D01*
X27107116Y13500917D01*
X27089256Y13618551D01*
X27083303Y13777143D01*
X27089256Y13937639D01*
X27107116Y14057178D01*
X27139262Y14141712D01*
X27188078Y14197195D01*
X27257134Y14227913D01*
X27350003Y14238153D01*
X27436681Y14228628D01*
X27494783Y14200053D01*
X27532407Y14145284D01*
X27557648Y14057178D01*
X27795773Y14057178D01*
X27781009Y14192194D01*
X27748148Y14292445D01*
X27693379Y14363406D01*
X27612893Y14410555D01*
X27500498Y14436987D01*
X27350003Y14445798D01*
X27225755Y14439130D01*
X27122250Y14419128D01*
X27039488Y14385790D01*
X26946619Y14305066D01*
X26885183Y14182908D01*
X26859783Y14074323D01*
X26844543Y13939068D01*
X26839463Y13777143D01*
X26640164Y13777143D01*
X26717543Y14426748D01*
X26507993Y14426748D01*
X26431793Y13407573D01*
X26429888Y13407573D01*
X26414648Y13643793D01*
X26296538Y14426748D01*
X26022218Y14426748D01*
X25900298Y13643793D01*
X25886963Y13407573D01*
X25885058Y13407573D01*
X25810763Y14426748D01*
X25601213Y14426748D01*
X25229176Y14426748D01*
X25174731Y14437701D01*
X25012568Y14445798D01*
X24847071Y14437939D01*
X24723961Y14414365D01*
X24636807Y14372217D01*
X24579181Y14308638D01*
X24547034Y14219103D01*
X24536318Y14099088D01*
X24545367Y14005266D01*
X24572513Y13929543D01*
X24621329Y13867392D01*
X24695386Y13814290D01*
X24800399Y13765951D01*
X24942083Y13718088D01*
X25055192Y13681178D01*
X25139250Y13646650D01*
X25239263Y13573308D01*
X25269743Y13476153D01*
X25248788Y13381855D01*
X25177351Y13335183D01*
X25035428Y13321847D01*
X24942797Y13326134D01*
X24874455Y13338993D01*
X24793493Y13399000D01*
X24763013Y13521873D01*
X24524888Y13521873D01*
X24281048Y13521873D01*
X24281048Y14683923D01*
G37*
%TO.C,J2*%
X12965000Y20115000D02*
X12965000Y7355000D01*
X10305000Y7355000D02*
X12965000Y7355000D01*
X10305000Y20115000D02*
X12965000Y20115000D01*
X10305000Y22715000D02*
X11635000Y22715000D01*
X10305000Y20115000D02*
X10305000Y7355000D01*
X10305000Y21385000D02*
X10305000Y22715000D01*
%TO.C,kibuzzard-6539E59E*%
G36*
X15298180Y11681484D02*
G01*
X15390573Y11677198D01*
X15510588Y11638145D01*
X15542973Y11520988D01*
X15511540Y11373350D01*
X15394383Y11332393D01*
X15148638Y11332393D01*
X15148638Y11681008D01*
X15230553Y11682913D01*
X15298180Y11681484D01*
G37*
G36*
X13476048Y12143923D02*
G01*
X18337608Y12143923D01*
X18337608Y10336077D01*
X13476048Y10336077D01*
X13476048Y10591347D01*
X13714173Y10591347D01*
X13948488Y10591347D01*
X13948488Y11336203D01*
X13921818Y11606713D01*
X13927533Y11606713D01*
X14392353Y10591347D01*
X14689533Y10591347D01*
X14906703Y10591347D01*
X15148638Y10591347D01*
X15148638Y11120938D01*
X15270558Y11120938D01*
X15371523Y11113556D01*
X15438198Y11091410D01*
X15506778Y10978063D01*
X15596313Y10591347D01*
X15857298Y10591347D01*
X15752298Y10981873D01*
X15996363Y10981873D01*
X16003030Y10839950D01*
X16034463Y10734223D01*
X16094232Y10659451D01*
X16185910Y10610397D01*
X16316165Y10583251D01*
X16491663Y10574202D01*
X16661922Y10582299D01*
X16787890Y10606588D01*
X16876711Y10650403D01*
X16935528Y10717078D01*
X16968389Y10811375D01*
X16979343Y10938058D01*
X16970294Y11042118D01*
X16943148Y11125700D01*
X16894809Y11193566D01*
X16822181Y11250478D01*
X16719549Y11301436D01*
X16581198Y11351443D01*
X16421416Y11406449D01*
X16319261Y11453360D01*
X16245918Y11551468D01*
X16266873Y11641003D01*
X16336405Y11684818D01*
X16476423Y11698153D01*
X16612631Y11683865D01*
X16683115Y11636240D01*
X16710738Y11540038D01*
X16952673Y11540038D01*
X16943148Y11668149D01*
X16942660Y11669578D01*
X17162223Y11669578D01*
X17508933Y11669578D01*
X17508933Y10591347D01*
X17752773Y10591347D01*
X17752773Y11669578D01*
X18099483Y11669578D01*
X18099483Y11886748D01*
X17162223Y11886748D01*
X17162223Y11669578D01*
X16942660Y11669578D01*
X16910763Y11762923D01*
X16852899Y11829598D01*
X16766936Y11873413D01*
X16646206Y11897701D01*
X16484043Y11905798D01*
X16318546Y11897939D01*
X16195435Y11874365D01*
X16108282Y11832217D01*
X16050655Y11768638D01*
X16018509Y11679103D01*
X16007793Y11559088D01*
X16016842Y11465266D01*
X16043988Y11389543D01*
X16092804Y11327392D01*
X16166860Y11274290D01*
X16271874Y11225951D01*
X16413558Y11178088D01*
X16526667Y11141178D01*
X16610725Y11106650D01*
X16710738Y11033308D01*
X16741218Y10936153D01*
X16720263Y10841855D01*
X16648825Y10795183D01*
X16506903Y10781847D01*
X16414272Y10786134D01*
X16345931Y10798993D01*
X16264968Y10859000D01*
X16234488Y10981873D01*
X15996363Y10981873D01*
X15752298Y10981873D01*
X15748713Y10995208D01*
X15716090Y11090934D01*
X15679180Y11153322D01*
X15560118Y11212377D01*
X15560118Y11229523D01*
X15695373Y11272385D01*
X15763000Y11358110D01*
X15783003Y11511463D01*
X15770859Y11641955D01*
X15734425Y11740063D01*
X15669179Y11810548D01*
X15570595Y11858173D01*
X15483283Y11878281D01*
X15375015Y11890346D01*
X15245793Y11894368D01*
X15133398Y11892463D01*
X14906703Y11884843D01*
X14906703Y10591347D01*
X14689533Y10591347D01*
X14689533Y11886748D01*
X14455218Y11886748D01*
X14455218Y11141893D01*
X14481888Y10871382D01*
X14476173Y10871382D01*
X14011353Y11886748D01*
X13714173Y11886748D01*
X13714173Y10591347D01*
X13476048Y10591347D01*
X13476048Y12143923D01*
G37*
%TO.C,kibuzzard-652CAEF1*%
G36*
X404669Y1865525D02*
G01*
X404669Y2086187D01*
X603106Y2086187D01*
X771381Y2086187D01*
X771381Y2508462D01*
X1007919Y2241762D01*
X1195244Y2241762D01*
X1180956Y2337806D01*
X1176194Y2416387D01*
X1185719Y2498144D01*
X1214294Y2552912D01*
X1263506Y2583869D01*
X1334944Y2594187D01*
X1425233Y2581686D01*
X1483375Y2544181D01*
X1514927Y2475323D01*
X1525444Y2368762D01*
X1520284Y2297127D01*
X1504806Y2228269D01*
X1476628Y2153458D01*
X1433369Y2063962D01*
X1631806Y2063962D01*
X1662762Y2137980D01*
X1682606Y2207631D01*
X1693322Y2282045D01*
X1696894Y2370350D01*
X1688163Y2512034D01*
X1661969Y2619587D01*
X1616328Y2697573D01*
X1549256Y2750556D01*
X1456784Y2780917D01*
X1334944Y2791037D01*
X1230764Y2785084D01*
X1150000Y2767225D01*
X1090270Y2736070D01*
X1049194Y2690231D01*
X1025381Y2627723D01*
X1017444Y2546562D01*
X1020619Y2483062D01*
X1012681Y2483062D01*
X787256Y2749762D01*
X603106Y2749762D01*
X603106Y2086187D01*
X404669Y2086187D01*
X404669Y3849900D01*
X603106Y3849900D01*
X603106Y3643525D01*
X1444481Y3408575D01*
X1444481Y3400637D01*
X603106Y3165687D01*
X603106Y2959312D01*
X1682606Y3279987D01*
X1682606Y3529225D01*
X603106Y3849900D01*
X404669Y3849900D01*
X404669Y3991187D01*
X603106Y3991187D01*
X771381Y3991187D01*
X771381Y4413463D01*
X1007919Y4146762D01*
X1195244Y4146762D01*
X1180956Y4242806D01*
X1176194Y4321387D01*
X1185719Y4403144D01*
X1214294Y4457913D01*
X1263506Y4488869D01*
X1334944Y4499188D01*
X1425233Y4486686D01*
X1483375Y4449181D01*
X1514927Y4380323D01*
X1525444Y4273763D01*
X1520284Y4202127D01*
X1504806Y4133269D01*
X1476628Y4058458D01*
X1433369Y3968963D01*
X1631806Y3968963D01*
X1662762Y4042980D01*
X1682606Y4112631D01*
X1693322Y4187045D01*
X1696894Y4275350D01*
X1688163Y4417034D01*
X1661969Y4524588D01*
X1616328Y4602573D01*
X1549256Y4655556D01*
X1456784Y4685917D01*
X1334944Y4696038D01*
X1230764Y4690084D01*
X1150000Y4672225D01*
X1090270Y4641070D01*
X1049194Y4595231D01*
X1025381Y4532723D01*
X1017444Y4451562D01*
X1020619Y4388063D01*
X1012681Y4388063D01*
X787256Y4654763D01*
X603106Y4654763D01*
X603106Y3991187D01*
X404669Y3991187D01*
X404669Y4894475D01*
X1895331Y4894475D01*
X1895331Y1865525D01*
X404669Y1865525D01*
G37*
%TD*%
M02*
