M48
; DRILL file {KiCad (6.0.9)} date Thu Oct 26 15:22:28 2023
; FORMAT={-:-/ absolute / metric / decimal}
; #@! TF.CreationDate,2023-10-26T15:22:28+09:00
; #@! TF.GenerationSoftware,Kicad,Pcbnew,(6.0.9)
; #@! TF.FileFunction,MixedPlating,1,2
FMAT,2
METRIC
; #@! TA.AperFunction,Plated,PTH,ComponentDrill
T1C1.000
%
G90
G05
T1
X3.3Y26.46
X3.3Y23.92
X3.3Y21.38
X3.3Y18.84
X3.3Y16.3
X3.3Y13.76
X3.3Y11.22
X3.3Y8.68
X3.3Y6.14
X3.3Y3.6
X5.84Y26.46
X5.84Y23.92
X5.84Y21.38
X5.84Y18.84
X5.84Y16.3
X5.84Y13.76
X5.84Y11.22
X5.84Y8.68
X5.84Y6.14
X5.84Y3.6
X9.09Y26.45
X11.63Y26.45
X11.635Y21.385
X11.635Y18.845
X11.635Y16.305
X11.635Y13.765
X11.635Y11.225
X11.635Y8.685
X14.17Y26.45
X22.525Y18.86
X22.525Y16.32
X22.525Y13.78
X22.525Y11.24
T0
M30
